{"glyphs":{"0":{"ha":928,"x_min":0,"x_max":0,"o":"m 885 486 b 464 -14 885 192 706 -14 b 43 486 222 -14 43 192 b 464 986 43 781 222 986 b 885 486 706 986 885 781 m 656 486 b 464 958 656 794 600 958 b 272 486 328 958 272 794 b 464 14 272 178 328 14 b 656 486 600 14 656 178 "},"1":{"ha":531,"x_min":0,"x_max":0,"o":"m 514 0 b 26 0 514 0 26 0 b 26 6 26 0 26 6 b 167 119 136 46 167 49 b 167 850 167 119 167 850 b 21 967 167 919 136 922 b 21 972 21 967 21 972 b 376 972 21 972 376 972 b 376 119 376 972 376 119 b 514 6 376 49 408 46 b 514 0 514 6 514 0 "},"2":{"ha":774,"x_min":0,"x_max":0,"o":"m 344 963 b 181 781 238 963 181 883 b 294 643 181 694 228 643 b 351 660 321 643 336 647 b 354 660 351 660 354 660 b 207 557 331 590 278 557 b 35 738 107 557 35 629 b 344 986 35 882 160 986 b 711 711 547 986 711 901 b 185 164 711 515 538 386 b 439 164 185 164 439 164 b 729 289 599 164 657 175 b 732 289 729 289 732 289 b 693 0 732 289 693 0 b 0 0 693 0 0 0 b 0 3 0 0 0 3 b 506 743 414 396 506 543 b 344 963 506 863 464 963 "},"3":{"ha":764,"x_min":0,"x_max":0,"o":"m 346 11 b 522 267 456 11 522 121 b 296 517 522 433 446 517 b 296 529 296 517 296 529 b 486 760 444 535 486 626 b 351 961 486 876 451 961 b 219 817 265 961 219 894 b 294 708 219 753 247 708 b 325 714 306 708 317 710 b 328 714 325 714 328 714 b 201 646 308 671 264 646 b 63 782 121 646 63 700 b 351 986 63 904 188 986 b 692 754 554 986 692 896 b 431 529 692 618 579 547 b 733 268 601 521 733 426 b 346 -14 733 82 563 -14 b 11 214 169 -14 11 64 b 168 369 11 311 81 369 b 294 297 238 369 276 342 b 292 297 294 297 292 297 b 260 303 281 301 271 303 b 186 190 213 304 186 258 b 346 11 186 83 253 11 "},"4":{"ha":861,"x_min":0,"x_max":0,"o":"m 438 307 b 438 840 438 307 438 840 b 75 307 438 840 75 307 b 438 307 75 307 438 307 m 438 172 b 438 268 438 172 438 268 b 4 268 438 268 4 268 b 4 272 4 268 4 272 b 489 981 4 272 489 981 b 644 981 489 981 644 981 b 644 307 644 981 644 307 b 699 307 644 307 699 307 b 835 403 782 307 799 325 b 838 403 835 403 838 403 b 838 172 838 403 838 172 b 835 172 838 172 835 172 b 699 268 799 250 782 268 b 644 268 699 268 644 268 b 644 172 644 268 644 172 b 722 3 644 81 658 39 b 722 0 722 3 722 0 b 360 0 722 0 360 0 b 360 3 360 0 360 3 b 438 172 424 39 438 81 "},"5":{"ha":768,"x_min":0,"x_max":0,"o":"m 340 11 b 524 307 471 11 524 147 b 319 561 524 453 456 561 b 125 463 242 561 168 510 b 124 463 125 463 124 463 b 181 982 124 463 181 982 b 469 960 276 968 392 960 b 694 1024 576 960 640 963 b 697 1024 694 1024 697 1024 b 464 776 697 885 649 776 b 197 818 375 776 254 800 b 167 528 197 818 167 528 b 404 621 211 574 293 621 b 731 326 601 621 731 510 b 340 -14 731 111 550 -14 b 11 213 168 -14 11 64 b 165 368 11 314 79 368 b 290 294 233 368 274 339 b 288 294 290 294 288 294 b 256 301 278 300 268 301 b 182 189 210 301 182 256 b 340 11 182 82 249 11 "},"6":{"ha":829,"x_min":0,"x_max":0,"o":"m 489 986 b 779 792 646 986 779 919 b 646 661 779 713 719 661 b 514 754 586 661 529 690 b 517 754 514 754 517 754 b 554 743 528 746 540 743 b 624 833 596 743 624 781 b 489 961 624 911 571 961 b 251 526 319 961 251 760 b 254 447 251 501 253 469 b 497 606 290 539 372 606 b 792 313 646 606 792 518 b 435 -14 792 114 640 -14 b 43 465 189 -14 43 207 b 489 986 43 746 208 986 m 588 292 b 432 560 588 454 540 560 b 276 292 332 560 276 450 b 438 13 276 133 324 13 b 588 292 540 13 588 126 "},"7":{"ha":725,"x_min":0,"x_max":0,"o":"m 156 972 b 733 972 156 972 733 972 b 733 969 733 972 733 969 b 567 707 733 969 567 707 b 425 13 432 501 404 264 b 203 -8 425 13 203 -8 b 540 718 232 288 374 499 b 592 785 540 718 592 785 b 217 785 592 785 217 785 b 24 653 115 785 72 758 b 21 653 24 653 21 653 b 50 988 21 653 50 988 b 156 972 72 976 107 972 "},"8":{"ha":797,"x_min":0,"x_max":0,"o":"m 496 575 b 767 276 682 510 767 411 b 401 -14 767 96 615 -14 b 29 232 193 -14 29 72 b 263 449 29 350 132 425 b 74 707 161 493 74 585 b 394 986 74 889 217 986 b 710 772 568 986 710 906 b 496 575 710 651 593 590 m 231 796 b 369 628 232 713 282 664 b 481 582 369 628 481 582 b 575 774 533 619 575 681 b 394 961 575 882 511 961 b 231 796 290 961 231 892 m 278 440 b 172 242 208 401 172 329 b 401 13 172 107 261 13 b 601 188 522 13 601 81 b 428 378 601 282 540 332 b 278 440 428 378 278 440 "},"9":{"ha":829,"x_min":0,"x_max":0,"o":"m 242 681 b 397 413 242 518 289 413 b 553 681 497 413 553 522 b 392 960 553 839 506 960 b 242 681 289 960 242 846 m 340 -14 b 50 181 183 -14 50 53 b 183 311 50 260 110 311 b 315 218 243 311 300 282 b 313 218 315 218 313 218 b 275 229 301 226 289 229 b 206 139 233 229 206 192 b 340 11 206 61 258 11 b 578 446 510 11 578 213 b 575 525 578 471 576 503 b 332 367 539 433 457 367 b 38 660 183 367 38 454 b 394 986 38 858 189 986 b 786 507 640 986 786 765 b 340 -14 786 226 621 -14 "},"\u0000":{"ha":656,"x_min":0,"x_max":0,"o":"m 0 0 b 0 972 0 0 0 972 b 600 972 0 972 600 972 b 600 0 600 972 600 0 b 0 0 600 0 0 0 m 69 903 b 69 69 69 903 69 69 b 531 69 69 69 531 69 b 531 903 531 69 531 903 b 69 903 531 903 69 903 "}," ":{"ha":278,"x_min":0,"x_max":0,"o":""},"!":{"ha":399,"x_min":0,"x_max":0,"o":"m 68 972 b 331 972 68 972 331 972 b 203 318 331 972 203 318 b 197 318 203 318 197 318 b 68 972 197 318 68 972 m 321 111 b 200 -11 321 43 268 -11 b 78 111 132 -11 78 43 b 200 233 78 179 132 233 b 321 111 268 233 321 179 "},"\"":{"ha":626,"x_min":0,"x_max":0,"o":"m 453 561 b 449 561 453 561 449 561 b 338 906 449 561 407 786 b 450 986 353 951 400 986 b 564 906 500 986 549 951 b 453 561 493 786 453 561 m 179 561 b 174 561 179 561 174 561 b 63 906 174 561 133 786 b 176 986 79 951 126 986 b 290 906 226 986 274 951 b 179 561 219 786 179 561 "},"#":{"ha":882,"x_min":0,"x_max":0,"o":"m 526 338 b 568 636 526 338 568 636 b 356 636 568 636 356 636 b 314 338 356 636 314 338 b 526 338 314 338 526 338 m 478 0 b 521 304 478 0 521 304 b 308 304 521 304 308 304 b 265 0 308 304 265 0 b 232 0 265 0 232 0 b 275 304 232 0 275 304 b 57 304 275 304 57 304 b 63 338 57 304 63 338 b 281 338 63 338 281 338 b 322 636 281 338 322 636 b 85 636 322 636 85 636 b 90 669 85 636 90 669 b 328 669 90 669 328 669 b 371 972 328 669 371 972 b 404 972 371 972 404 972 b 361 669 404 972 361 669 b 574 669 361 669 574 669 b 617 972 574 669 617 972 b 650 972 617 972 650 972 b 607 669 650 972 607 669 b 825 669 607 669 825 669 b 819 636 825 669 819 636 b 601 636 819 636 601 636 b 560 338 601 636 560 338 b 799 338 560 338 799 338 b 792 304 799 338 792 304 b 554 304 792 304 554 304 b 511 0 554 304 511 0 b 478 0 511 0 478 0 "},"$":{"ha":814,"x_min":0,"x_max":0,"o":"m 408 961 b 364 958 393 961 378 960 b 364 621 364 958 364 621 b 450 594 364 621 450 594 b 450 958 450 594 450 958 b 408 961 436 960 422 961 m 204 788 b 340 628 204 693 256 653 b 340 953 340 628 340 953 b 204 788 254 932 204 869 m 397 11 b 450 15 415 11 433 13 b 450 386 450 15 450 386 b 364 410 450 386 364 410 b 364 13 364 410 364 13 b 397 11 375 11 386 11 m 475 379 b 472 381 475 379 472 381 b 472 19 472 381 472 19 b 636 208 572 40 636 108 b 475 379 636 297 588 349 m 397 -14 b 364 -14 397 -14 364 -14 b 364 -158 364 -14 364 -158 b 340 -158 364 -158 340 -158 b 340 -12 340 -158 340 -12 b 36 188 157 1 36 79 b 160 306 36 260 89 306 b 253 267 204 306 235 288 b 185 174 213 263 185 231 b 340 17 185 97 243 33 b 340 417 340 17 340 417 b 326 421 340 417 326 421 b 64 699 181 463 64 540 b 340 982 64 847 171 958 b 340 1125 340 982 340 1125 b 364 1125 340 1125 364 1125 b 364 985 364 1125 364 985 b 408 986 378 986 393 986 b 450 985 422 986 436 986 b 450 1125 450 985 450 1125 b 472 1125 450 1125 472 1125 b 472 983 472 1125 472 983 b 738 806 635 969 738 900 b 625 700 738 736 688 700 b 535 735 583 700 549 717 b 603 824 571 739 603 771 b 472 954 603 889 553 938 b 472 588 472 954 472 588 b 506 578 472 588 506 578 b 769 296 653 533 769 464 b 472 -8 769 131 639 18 b 472 -158 472 -8 472 -158 b 450 -158 472 -158 450 -158 b 450 -11 450 -158 450 -11 b 397 -14 433 -12 415 -14 "},"%":{"ha":931,"x_min":0,"x_max":0,"o":"m 217 0 b 158 0 217 0 158 0 b 692 935 158 0 692 935 b 518 872 658 906 596 872 b 419 889 482 872 451 878 b 457 772 442 856 457 815 b 242 558 457 654 358 558 b 28 772 125 558 28 654 b 242 986 28 890 125 986 b 519 901 356 986 386 901 b 733 999 621 901 671 939 b 749 986 733 999 749 986 b 217 0 749 986 217 0 m 242 583 b 321 772 304 583 321 660 b 242 961 321 885 304 961 b 163 772 181 961 163 885 b 242 583 163 660 181 583 m 689 -7 b 474 207 572 -7 474 88 b 689 419 474 325 572 419 b 903 207 806 419 903 325 b 689 -7 903 88 806 -7 m 689 17 b 768 207 750 17 768 94 b 689 396 768 318 750 396 b 610 207 626 396 610 318 b 689 17 610 94 626 17 "},"&":{"ha":1040,"x_min":0,"x_max":0,"o":"m 417 642 b 482 569 417 642 482 569 b 596 779 550 613 596 683 b 450 961 596 878 547 961 b 319 825 367 961 319 906 b 417 642 319 753 358 704 m 464 40 b 656 101 531 40 597 63 b 314 467 656 101 314 467 b 229 276 253 421 229 357 b 464 40 229 142 325 40 m 750 0 b 682 74 750 0 682 74 b 393 -14 604 18 508 -14 b 53 238 214 -14 53 71 b 300 481 53 357 144 440 b 247 538 300 481 247 538 b 161 736 194 593 161 665 b 450 986 161 899 299 986 b 738 779 625 986 738 901 b 499 551 738 653 629 583 b 786 239 499 551 786 239 b 836 397 814 288 832 340 b 732 526 842 467 815 494 b 732 531 732 526 732 531 b 988 531 732 531 988 531 b 988 526 988 531 988 526 b 882 397 908 499 896 465 b 810 213 868 331 843 268 b 901 113 810 213 901 113 b 1051 3 954 56 988 32 b 1051 0 1051 3 1051 0 b 750 0 1051 0 750 0 "},"'":{"ha":353,"x_min":0,"x_max":0,"o":"m 179 561 b 174 561 179 561 174 561 b 63 906 174 561 133 786 b 176 986 79 951 126 986 b 290 906 226 986 274 951 b 179 561 219 786 179 561 "},"(":{"ha":494,"x_min":0,"x_max":0,"o":"m 57 435 b 451 1040 57 735 243 928 b 475 1040 451 1040 475 1040 b 244 435 328 915 244 681 b 475 -171 244 189 328 -46 b 451 -171 475 -171 451 -171 b 57 435 243 -58 57 135 "},")":{"ha":494,"x_min":0,"x_max":0,"o":"m 43 1040 b 438 435 251 928 438 735 b 43 -171 438 135 251 -58 b 19 -171 43 -171 19 -171 b 250 435 167 -46 250 189 b 19 1040 250 681 167 915 b 43 1040 19 1040 43 1040 "},"*":{"ha":578,"x_min":0,"x_max":0,"o":"m 204 1040 b 374 1040 204 1040 374 1040 b 301 840 350 1018 313 919 b 469 969 376 875 457 940 b 522 810 469 969 522 810 b 310 815 493 825 389 831 b 486 694 365 756 454 699 b 349 596 486 694 349 596 b 289 799 356 628 329 868 b 229 596 249 729 222 628 b 92 694 229 596 92 694 b 268 815 124 699 213 756 b 56 810 189 831 85 825 b 108 969 56 810 108 969 b 276 840 121 940 201 875 b 204 1040 265 919 228 1018 "},"+":{"ha":665,"x_min":0,"x_max":0,"o":"m 604 428 b 351 428 604 428 351 428 b 351 176 351 428 351 176 b 313 176 351 176 313 176 b 313 428 313 176 313 428 b 61 428 313 428 61 428 b 61 467 61 428 61 467 b 313 467 61 467 313 467 b 313 718 313 467 313 718 b 351 718 313 718 351 718 b 351 467 351 718 351 467 b 604 467 351 467 604 467 b 604 428 604 467 604 428 "},",":{"ha":331,"x_min":0,"x_max":0,"o":"m 218 36 b 143 6 204 17 178 6 b 43 110 86 6 43 47 b 160 224 43 176 92 224 b 293 65 240 224 293 160 b 22 -182 293 -86 174 -182 b 22 -160 22 -182 22 -160 b 218 36 135 -150 228 -89 "},"-":{"ha":447,"x_min":0,"x_max":0,"o":"m 50 357 b 50 428 50 357 50 428 b 396 428 50 428 396 428 b 396 357 396 428 396 357 b 50 357 396 357 50 357 "},".":{"ha":331,"x_min":0,"x_max":0,"o":"m 286 111 b 165 -11 286 43 233 -11 b 43 111 96 -11 43 43 b 165 233 43 179 96 233 b 286 111 233 233 286 179 "},"/":{"ha":485,"x_min":0,"x_max":0,"o":"m 0 -171 b 411 1040 0 -171 411 1040 b 457 1040 411 1040 457 1040 b 46 -171 457 1040 46 -171 b 0 -171 46 -171 0 -171 "},":":{"ha":331,"x_min":0,"x_max":0,"o":"m 286 525 b 165 403 286 457 233 403 b 43 525 96 403 43 457 b 165 647 43 593 96 647 b 286 525 233 647 286 593 m 286 111 b 165 -11 286 43 233 -11 b 43 111 96 -11 43 43 b 165 233 43 179 96 233 b 286 111 233 233 286 179 "},";":{"ha":331,"x_min":0,"x_max":0,"o":"m 286 525 b 165 403 286 457 233 403 b 43 525 96 403 43 457 b 165 647 43 593 96 647 b 286 525 233 647 286 593 m 218 36 b 143 6 204 17 178 6 b 43 110 86 6 43 47 b 160 224 43 176 92 224 b 293 65 240 224 293 160 b 22 -182 293 -86 174 -182 b 22 -160 22 -182 22 -160 b 218 36 135 -150 228 -89 "},"<":{"ha":488,"x_min":0,"x_max":0,"o":"m 39 435 b 39 454 39 435 39 454 b 433 683 39 454 433 683 b 433 638 433 683 433 638 b 96 444 433 638 96 444 b 433 251 96 444 433 251 b 433 206 433 251 433 206 b 39 435 433 206 39 435 "},"=":{"ha":672,"x_min":0,"x_max":0,"o":"m 64 519 b 64 558 64 519 64 558 b 608 558 64 558 608 558 b 608 519 608 558 608 519 b 64 519 608 519 64 519 m 64 340 b 64 379 64 340 64 379 b 608 379 64 379 608 379 b 608 340 608 379 608 340 b 64 340 608 340 64 340 "},">":{"ha":488,"x_min":0,"x_max":0,"o":"m 449 454 b 449 435 449 454 449 435 b 54 206 449 435 54 206 b 54 251 54 206 54 251 b 392 444 54 251 392 444 b 54 638 392 444 54 638 b 54 683 54 638 54 683 b 449 454 54 683 449 454 "},"?":{"ha":736,"x_min":0,"x_max":0,"o":"m 350 960 b 182 807 249 960 182 890 b 275 699 182 744 218 699 b 321 711 286 699 307 703 b 324 710 321 711 324 710 b 186 615 303 651 256 615 b 36 767 104 615 36 672 b 350 986 36 896 167 986 b 700 714 563 986 700 872 b 358 385 700 539 538 419 b 358 310 358 385 358 310 b 331 310 358 310 331 310 b 331 556 331 310 331 556 b 531 782 456 589 531 660 b 350 960 531 875 468 960 m 346 233 b 467 111 414 233 467 179 b 346 -11 467 43 414 -11 b 224 111 278 -11 224 43 b 346 233 224 179 278 233 "},"@":{"ha":1272,"x_min":0,"x_max":0,"o":"m 990 635 b 889 226 990 635 889 226 b 953 121 871 157 899 121 b 1156 458 1042 121 1156 240 b 681 894 1156 736 936 894 b 153 314 374 894 153 626 b 663 -192 153 -4 379 -192 b 1101 -50 835 -192 979 -150 b 1104 -57 1101 -50 1104 -57 b 663 -229 997 -172 835 -229 b 56 315 321 -229 56 -42 b 681 924 56 658 326 924 b 1217 458 969 924 1217 754 b 904 57 1217 188 1054 57 b 719 197 797 57 726 108 b 515 57 678 113 613 57 b 328 269 404 57 328 139 b 649 642 328 468 458 642 b 808 529 743 642 794 590 b 990 635 849 582 925 628 m 740 311 b 774 453 740 311 774 453 b 704 593 797 547 761 593 b 508 251 600 593 508 407 b 588 121 508 181 535 121 b 740 311 660 121 717 201 "},"A":{"ha":1010,"x_min":0,"x_max":0,"o":"m 413 715 b 249 340 413 715 249 340 b 585 340 249 340 585 340 b 413 715 585 340 413 715 m 232 3 b 232 0 232 3 232 0 b -1 0 232 0 -1 0 b -1 3 -1 0 -1 3 b 129 176 51 33 89 89 b 499 986 129 176 499 986 b 504 986 499 986 504 986 b 897 156 504 986 897 156 b 1010 3 939 68 960 33 b 1010 0 1010 3 1010 0 b 629 0 1010 0 629 0 b 629 3 629 0 629 3 b 690 79 669 24 690 46 b 668 160 690 104 682 129 b 603 301 668 160 603 301 b 231 301 603 301 231 301 b 181 186 231 301 181 186 b 160 103 168 160 160 132 b 232 3 160 60 186 24 "},"B":{"ha":951,"x_min":0,"x_max":0,"o":"m 535 0 b 46 0 535 0 46 0 b 46 3 46 0 46 3 b 124 172 110 39 124 81 b 124 800 124 172 124 800 b 46 969 124 892 110 933 b 46 972 46 969 46 972 b 511 972 46 972 511 972 b 861 726 715 972 861 906 b 601 503 861 592 740 514 b 917 258 747 496 917 425 b 535 0 917 69 761 0 m 332 514 b 446 514 332 514 446 514 b 658 725 575 514 658 589 b 446 936 658 861 575 936 b 332 936 446 936 332 936 b 332 514 332 936 332 514 m 332 36 b 467 36 332 36 467 36 b 708 258 621 36 708 111 b 467 478 708 403 621 478 b 332 478 467 478 332 478 b 332 36 332 478 332 36 "},"C":{"ha":949,"x_min":0,"x_max":0,"o":"m 881 986 b 890 665 881 986 890 665 b 888 665 890 665 888 665 b 571 954 824 835 715 954 b 269 515 378 954 269 761 b 607 93 269 247 424 93 b 908 286 740 93 843 142 b 917 283 908 286 917 283 b 518 -14 875 101 731 -14 b 42 478 246 -14 42 182 b 554 986 42 775 272 986 b 790 942 675 986 746 942 b 881 986 832 942 856 963 "},"D":{"ha":1056,"x_min":0,"x_max":0,"o":"m 46 0 b 46 3 46 0 46 3 b 124 172 110 39 124 81 b 124 800 124 172 124 800 b 46 969 124 892 110 933 b 46 972 46 969 46 972 b 432 972 46 972 432 972 b 1014 493 772 972 1014 814 b 451 0 1014 157 767 0 b 46 0 451 0 46 0 m 332 36 b 432 36 332 36 432 36 b 789 493 644 36 789 182 b 419 936 789 776 646 936 b 332 936 419 936 332 936 b 332 36 332 936 332 36 "},"E":{"ha":908,"x_min":0,"x_max":0,"o":"m 46 972 b 707 972 46 972 707 972 b 793 983 746 972 775 975 b 840 725 793 983 840 725 b 838 725 840 725 838 725 b 519 936 760 861 686 936 b 332 936 519 936 332 936 b 332 518 332 936 332 518 b 486 518 332 518 486 518 b 685 675 599 518 639 546 b 688 675 685 675 688 675 b 688 335 688 675 688 335 b 685 335 688 335 685 335 b 486 479 639 463 599 479 b 332 479 486 479 332 479 b 332 36 332 479 332 36 b 543 36 332 36 543 36 b 875 272 717 36 797 131 b 878 272 875 272 878 272 b 833 0 878 272 833 0 b 46 0 833 0 46 0 b 46 3 46 0 46 3 b 124 172 110 39 124 81 b 124 800 124 172 124 800 b 46 969 124 892 110 933 b 46 972 46 969 46 972 "},"F":{"ha":864,"x_min":0,"x_max":0,"o":"m 332 463 b 332 165 332 463 332 165 b 442 3 332 76 351 42 b 442 0 442 3 442 0 b 46 0 442 0 46 0 b 46 3 46 0 46 3 b 124 172 110 39 124 81 b 124 800 124 172 124 800 b 46 969 124 892 110 933 b 46 972 46 969 46 972 b 697 972 46 972 697 972 b 783 983 736 972 765 975 b 831 725 783 983 831 725 b 828 725 831 725 828 725 b 508 936 750 861 676 936 b 332 936 508 936 332 936 b 332 501 332 936 332 501 b 486 501 332 501 486 501 b 685 658 599 501 639 529 b 688 658 685 658 688 658 b 688 318 688 658 688 318 b 685 318 688 318 685 318 b 486 463 639 446 599 463 b 332 463 486 463 332 463 "},"G":{"ha":1054,"x_min":0,"x_max":0,"o":"m 575 956 b 272 476 381 956 272 764 b 547 28 272 215 378 28 b 751 233 671 28 751 103 b 751 285 751 233 751 285 b 674 454 751 376 738 418 b 674 457 674 454 674 457 b 1032 457 674 457 1032 457 b 1032 454 1032 457 1032 454 b 954 285 968 418 954 376 b 954 -14 954 285 954 -14 b 951 -14 954 -14 951 -14 b 835 140 951 -14 835 140 b 538 -14 783 58 674 -14 b 42 476 247 -14 42 186 b 560 986 42 781 276 986 b 801 942 683 986 756 942 b 892 986 842 942 867 963 b 901 665 892 986 901 665 b 899 665 901 665 899 665 b 575 956 832 833 719 956 "},"H":{"ha":1129,"x_min":0,"x_max":0,"o":"m 124 172 b 124 800 124 172 124 800 b 46 969 124 892 110 933 b 46 972 46 969 46 972 b 410 972 46 972 410 972 b 410 969 410 972 410 969 b 332 800 346 933 332 892 b 332 519 332 800 332 519 b 797 519 332 519 797 519 b 797 800 797 519 797 800 b 719 969 797 892 783 933 b 719 972 719 969 719 972 b 1083 972 719 972 1083 972 b 1083 969 1083 972 1083 969 b 1006 800 1019 933 1006 892 b 1006 172 1006 800 1006 172 b 1083 3 1006 81 1019 39 b 1083 0 1083 3 1083 0 b 719 0 1083 0 719 0 b 719 3 719 0 719 3 b 797 172 783 39 797 81 b 797 479 797 172 797 479 b 332 479 797 479 332 479 b 332 172 332 479 332 172 b 410 3 332 81 346 39 b 410 0 410 3 410 0 b 46 0 410 0 46 0 b 46 3 46 0 46 3 b 124 172 110 39 124 81 "},"I":{"ha":456,"x_min":0,"x_max":0,"o":"m 332 172 b 410 3 332 81 346 39 b 410 0 410 3 410 0 b 46 0 410 0 46 0 b 46 3 46 0 46 3 b 124 172 110 39 124 81 b 124 800 124 172 124 800 b 46 969 124 892 110 933 b 46 972 46 969 46 972 b 410 972 46 972 410 972 b 410 969 410 972 410 969 b 332 800 346 933 332 892 b 332 172 332 800 332 172 "},"J":{"ha":803,"x_min":0,"x_max":0,"o":"m 488 231 b 488 800 488 231 488 800 b 411 969 488 892 475 933 b 411 972 411 969 411 972 b 775 972 411 972 775 972 b 775 969 775 972 775 969 b 697 800 711 933 697 892 b 697 289 697 800 697 289 b 338 -14 697 76 533 -14 b 14 210 167 -14 14 67 b 174 357 14 303 82 357 b 289 313 221 357 264 340 b 193 185 224 310 193 256 b 338 13 193 89 243 13 b 488 231 446 13 488 97 "},"K":{"ha":1028,"x_min":0,"x_max":0,"o":"m 410 0 b 46 0 410 0 46 0 b 46 3 46 0 46 3 b 124 172 110 39 124 81 b 124 800 124 172 124 800 b 46 969 124 892 110 933 b 46 972 46 969 46 972 b 410 972 46 972 410 972 b 410 969 410 972 410 969 b 332 800 346 933 332 892 b 332 458 332 800 332 458 b 726 832 332 458 726 832 b 764 901 750 854 764 879 b 710 969 764 929 744 954 b 710 972 710 969 710 972 b 990 972 710 972 990 972 b 990 969 990 972 990 969 b 771 824 896 932 836 885 b 560 624 771 824 560 624 b 879 154 560 624 879 154 b 1039 3 929 85 982 32 b 1039 0 1039 3 1039 0 b 646 0 1039 0 646 0 b 646 3 646 0 646 3 b 682 56 672 17 682 29 b 644 147 682 82 669 107 b 407 483 644 147 407 483 b 332 413 407 483 332 413 b 332 172 332 413 332 172 b 410 3 332 81 346 39 b 410 0 410 3 410 0 "},"L":{"ha":874,"x_min":0,"x_max":0,"o":"m 46 972 b 410 972 46 972 410 972 b 410 969 410 972 410 969 b 332 800 346 933 332 892 b 332 36 332 800 332 36 b 517 36 332 36 517 36 b 851 297 690 36 761 129 b 854 297 851 297 854 297 b 806 0 854 297 806 0 b 46 0 806 0 46 0 b 46 3 46 0 46 3 b 124 172 110 39 124 81 b 124 800 124 172 124 800 b 46 969 124 892 110 933 b 46 972 46 969 46 972 "},"M":{"ha":1243,"x_min":0,"x_max":0,"o":"m 165 211 b 276 3 165 101 200 36 b 276 0 276 3 276 0 b 19 0 276 0 19 0 b 19 3 19 0 19 3 b 124 206 89 39 124 101 b 124 800 124 206 124 800 b 46 969 124 892 110 933 b 46 972 46 969 46 972 b 346 972 46 972 346 972 b 639 294 346 972 639 294 b 918 972 639 294 918 972 b 1197 972 918 972 1197 972 b 1197 969 1197 972 1197 969 b 1119 800 1133 933 1119 892 b 1119 175 1119 800 1119 175 b 1206 3 1119 83 1142 39 b 1206 0 1206 3 1206 0 b 828 0 1206 0 828 0 b 828 3 828 0 828 3 b 913 175 892 39 913 83 b 913 863 913 175 913 863 b 553 -15 913 863 553 -15 b 547 -15 553 -15 547 -15 b 165 864 547 -15 165 864 b 165 211 165 864 165 211 "},"N":{"ha":1011,"x_min":0,"x_max":0,"o":"m 999 969 b 894 767 928 933 894 871 b 894 -7 894 767 894 -7 b 856 -7 894 -7 856 -7 b 165 856 856 -7 165 856 b 165 211 165 856 165 211 b 276 3 165 101 200 36 b 276 0 276 3 276 0 b 19 0 276 0 19 0 b 19 3 19 0 19 3 b 124 206 89 39 124 101 b 124 800 124 206 124 800 b 46 969 124 892 110 933 b 46 972 46 969 46 972 b 344 972 46 972 344 972 b 853 332 344 972 853 332 b 853 761 853 332 853 761 b 742 969 853 871 818 936 b 742 972 742 969 742 972 b 999 972 742 972 999 972 b 999 969 999 972 999 969 "},"O":{"ha":1064,"x_min":0,"x_max":0,"o":"m 1022 486 b 532 -14 1022 194 808 -14 b 42 486 256 -14 42 194 b 532 986 42 778 256 986 b 1022 486 808 986 1022 778 m 792 486 b 532 957 792 776 714 957 b 272 486 350 957 272 776 b 532 15 272 196 350 15 b 792 486 714 15 792 196 "},"P":{"ha":913,"x_min":0,"x_max":0,"o":"m 519 403 b 332 403 519 403 332 403 b 332 165 332 403 332 165 b 442 3 332 76 351 42 b 442 0 442 3 442 0 b 46 0 442 0 46 0 b 46 3 46 0 46 3 b 124 172 110 39 124 81 b 124 800 124 172 124 800 b 46 969 124 892 110 933 b 46 972 46 969 46 972 b 518 972 46 972 518 972 b 893 688 743 972 893 874 b 519 403 893 501 743 403 m 332 439 b 453 439 332 439 453 439 b 686 688 613 439 686 540 b 453 936 686 835 613 936 b 332 936 453 936 332 936 b 332 439 332 936 332 439 "},"Q":{"ha":1064,"x_min":0,"x_max":0,"o":"m 904 -224 b 667 3 772 -224 715 -108 b 532 -15 624 -10 579 -15 b 42 485 256 -15 42 193 b 532 985 42 776 256 985 b 1022 485 808 985 1022 776 b 786 51 1022 292 929 136 b 975 -90 836 -22 888 -90 b 1076 -24 1021 -90 1057 -69 b 1079 -24 1076 -24 1079 -24 b 904 -224 1078 -144 1017 -224 m 272 485 b 369 86 272 303 303 165 b 544 243 386 171 439 243 b 728 136 628 243 682 194 b 792 485 771 217 792 336 b 532 956 792 775 714 956 b 272 485 350 956 272 775 m 532 14 b 649 46 576 14 615 25 b 503 204 611 132 574 204 b 390 65 443 204 396 142 b 532 14 428 32 475 14 "},"R":{"ha":1017,"x_min":0,"x_max":0,"o":"m 332 936 b 332 490 332 936 332 490 b 469 490 332 490 469 490 b 688 710 604 490 688 560 b 469 936 688 853 611 936 b 332 936 469 936 332 936 m 46 972 b 546 972 46 972 546 972 b 910 714 751 972 910 901 b 590 465 910 544 751 468 b 847 285 736 456 810 394 b 883 174 847 285 883 174 b 1033 3 917 74 951 39 b 1033 0 1033 3 1033 0 b 740 0 1033 0 740 0 b 667 150 710 32 688 86 b 621 303 667 150 621 303 b 446 453 593 388 556 453 b 332 453 446 453 332 453 b 332 172 332 453 332 172 b 410 3 332 81 346 39 b 410 0 410 3 410 0 b 46 0 410 0 46 0 b 46 3 46 0 46 3 b 124 172 110 39 124 81 b 124 800 124 172 124 800 b 46 969 124 892 110 933 b 46 972 46 969 46 972 "},"S":{"ha":808,"x_min":0,"x_max":0,"o":"m 390 957 b 211 789 293 957 211 899 b 429 596 211 671 313 631 b 764 279 585 550 764 503 b 407 -14 764 85 594 -14 b 160 31 294 -14 217 31 b 65 -14 121 31 94 11 b 44 301 65 -14 44 301 b 47 301 44 301 47 301 b 406 15 133 125 268 15 b 607 197 524 15 607 81 b 338 410 607 333 474 367 b 54 701 197 453 54 508 b 390 986 54 875 197 986 b 621 943 497 986 569 943 b 703 986 660 943 682 967 b 708 706 703 986 708 706 b 706 706 708 706 706 706 b 390 957 629 850 536 957 "},"T":{"ha":1036,"x_min":0,"x_max":0,"o":"m 151 972 b 883 972 151 972 883 972 b 969 983 922 972 951 975 b 1017 672 969 983 1017 672 b 1014 672 1017 672 1014 672 b 703 936 907 849 854 936 b 622 936 703 936 622 936 b 622 165 622 936 622 165 b 704 3 622 74 640 39 b 704 0 704 3 704 0 b 332 0 704 0 332 0 b 332 3 332 0 332 3 b 413 165 396 39 413 74 b 413 936 413 165 413 936 b 332 936 413 936 332 936 b 22 672 181 936 129 849 b 19 672 22 672 19 672 b 67 983 19 672 67 983 b 151 972 85 975 114 972 "},"U":{"ha":1014,"x_min":0,"x_max":0,"o":"m 899 767 b 899 375 899 767 899 375 b 519 -14 899 119 744 -14 b 107 378 269 -14 107 118 b 107 800 107 378 107 800 b 29 969 107 892 93 933 b 29 972 29 969 29 972 b 394 972 29 972 394 972 b 394 969 394 972 394 969 b 317 800 331 933 317 892 b 317 385 317 800 317 385 b 574 61 317 181 399 61 b 857 381 736 61 857 174 b 857 761 857 381 857 761 b 746 969 857 871 822 936 b 746 972 746 969 746 972 b 1003 972 746 972 1003 972 b 1003 969 1003 972 1003 969 b 899 767 932 933 899 871 "},"V":{"ha":999,"x_min":0,"x_max":0,"o":"m 826 786 b 846 869 838 813 846 840 b 774 969 846 913 819 949 b 774 972 774 969 774 972 b 1007 972 774 972 1007 972 b 1007 969 1007 972 1007 969 b 876 796 954 939 917 883 b 507 -14 876 796 507 -14 b 501 -14 507 -14 501 -14 b 107 817 501 -14 107 817 b -6 969 65 904 46 939 b -6 972 -6 969 -6 972 b 372 972 -6 972 372 972 b 372 969 372 972 372 969 b 311 893 332 949 311 926 b 333 813 311 868 319 843 b 590 256 333 813 590 256 b 826 786 590 256 826 786 "},"W":{"ha":1343,"x_min":0,"x_max":0,"o":"m 917 -14 b 678 625 917 -14 678 625 b 432 -14 678 625 432 -14 b 425 -14 432 -14 425 -14 b 96 817 425 -14 96 817 b -6 969 61 904 38 939 b -6 972 -6 969 -6 972 b 354 972 -6 972 354 972 b 354 969 354 972 354 969 b 297 892 318 950 297 926 b 315 813 297 868 303 843 b 514 297 315 813 514 297 b 657 681 514 297 657 681 b 606 817 657 681 606 817 b 504 969 571 904 547 939 b 504 972 504 969 504 972 b 858 972 504 972 858 972 b 858 969 858 972 858 969 b 801 892 824 950 801 926 b 819 813 801 868 808 843 b 1000 292 819 813 1000 292 b 1186 793 1000 292 1186 793 b 1197 856 1193 814 1197 836 b 1125 969 1197 903 1174 943 b 1125 972 1125 969 1125 972 b 1354 972 1125 972 1354 972 b 1354 969 1354 972 1354 969 b 1236 803 1307 938 1268 886 b 922 -14 1236 803 922 -14 b 917 -14 922 -14 917 -14 "},"X":{"ha":1014,"x_min":0,"x_max":0,"o":"m 235 3 b 235 0 235 3 235 0 b 0 0 235 0 0 0 b 0 3 0 0 0 3 b 168 158 67 36 114 86 b 414 478 168 158 414 478 b 179 817 414 478 179 817 b 38 969 125 896 86 933 b 38 972 38 969 38 972 b 404 972 38 972 404 972 b 404 969 404 972 404 969 b 372 910 383 951 372 935 b 407 828 372 882 389 856 b 567 597 407 828 567 597 b 733 817 567 597 733 817 b 764 894 751 842 764 868 b 717 969 764 922 750 949 b 717 972 717 969 717 972 b 950 972 717 972 950 972 b 950 969 950 972 950 969 b 781 814 882 936 836 886 b 589 565 781 814 589 565 b 872 156 589 565 872 156 b 1013 3 926 76 965 39 b 1013 0 1013 3 1013 0 b 646 0 1013 0 646 0 b 646 3 646 0 646 3 b 678 63 668 21 678 38 b 643 144 678 90 663 117 b 436 444 643 144 436 444 b 222 165 436 444 222 165 b 189 79 201 136 189 107 b 235 3 190 50 204 24 "},"Y":{"ha":951,"x_min":0,"x_max":0,"o":"m 560 460 b 772 810 560 460 772 810 b 793 878 786 833 793 856 b 731 969 793 914 774 947 b 731 972 731 969 731 972 b 957 972 731 972 957 972 b 957 969 957 972 957 969 b 824 817 900 931 864 883 b 574 407 824 817 574 407 b 574 165 574 407 574 165 b 654 3 574 74 590 39 b 654 0 654 3 654 0 b 292 0 654 0 292 0 b 292 3 292 0 292 3 b 374 165 356 39 374 74 b 374 407 374 165 374 407 b 118 825 374 407 118 825 b -6 969 78 892 49 929 b -6 972 -6 969 -6 972 b 374 972 -6 972 374 972 b 374 969 374 972 374 969 b 322 890 339 946 322 925 b 343 826 322 872 328 851 b 560 460 343 826 560 460 "},"Z":{"ha":943,"x_min":0,"x_max":0,"o":"m 857 0 b 38 0 857 0 38 0 b 38 3 38 0 38 3 b 633 936 38 3 633 936 b 382 936 633 936 382 936 b 72 692 221 936 158 838 b 69 692 72 692 69 692 b 117 983 69 692 117 983 b 201 972 135 975 164 972 b 886 972 201 972 886 972 b 886 969 886 972 886 969 b 299 36 886 969 299 36 b 564 36 299 36 564 36 b 897 306 732 36 789 111 b 900 306 897 306 900 306 b 857 0 900 306 857 0 "},"[":{"ha":471,"x_min":0,"x_max":0,"o":"m 108 -171 b 108 1040 108 -171 108 1040 b 447 1040 108 1040 447 1040 b 447 1036 447 1040 447 1036 b 276 988 447 1036 276 988 b 276 -117 276 988 276 -117 b 447 -167 276 -117 447 -167 b 447 -171 447 -167 447 -171 b 108 -171 447 -171 108 -171 "},"\\":{"ha":485,"x_min":0,"x_max":0,"o":"m 74 1040 b 485 -171 74 1040 485 -171 b 439 -171 485 -171 439 -171 b 28 1040 439 -171 28 1040 b 74 1040 28 1040 74 1040 "},"]":{"ha":471,"x_min":0,"x_max":0,"o":"m 363 1040 b 363 -171 363 1040 363 -171 b 24 -171 363 -171 24 -171 b 24 -167 24 -171 24 -167 b 194 -117 24 -167 194 -117 b 194 988 194 -117 194 988 b 24 1036 194 988 24 1036 b 24 1040 24 1036 24 1040 b 363 1040 24 1040 363 1040 "},"^":{"ha":625,"x_min":0,"x_max":0,"o":"m 310 986 b 315 986 310 986 315 986 b 569 572 315 986 569 572 b 506 572 569 572 506 572 b 313 889 506 572 313 889 b 119 572 313 889 119 572 b 56 572 119 572 56 572 b 310 986 56 572 310 986 "},"_":{"ha":447,"x_min":0,"x_max":0,"o":"m 50 -157 b 50 -86 50 -157 50 -86 b 396 -86 50 -86 396 -86 b 396 -157 396 -86 396 -157 b 50 -157 396 -157 50 -157 "},"`":{"ha":694,"x_min":0,"x_max":0,"o":"m 407 1040 b 485 765 413 946 435 853 b 478 765 485 765 478 765 b 204 1040 347 844 260 935 b 407 1040 204 1040 407 1040 "},"a":{"ha":760,"x_min":0,"x_max":0,"o":"m 782 53 b 782 50 782 53 782 50 b 631 -12 751 14 693 -12 b 471 111 532 -12 482 36 b 468 158 471 117 468 149 b 242 -10 449 64 358 -10 b 39 164 132 -10 39 46 b 361 379 39 317 194 349 b 467 399 361 379 467 399 b 467 513 467 399 467 513 b 339 671 467 596 432 671 b 224 563 260 671 224 622 b 289 482 224 511 249 482 b 313 486 297 482 304 483 b 192 411 293 436 249 411 b 71 522 124 411 71 454 b 343 697 71 622 182 697 b 667 457 553 697 667 628 b 664 176 667 357 664 269 b 747 44 664 90 682 44 b 782 53 758 44 772 47 m 467 374 b 394 358 467 374 394 358 b 239 192 286 336 239 285 b 333 72 239 113 275 72 b 464 239 407 72 463 140 b 467 374 464 239 467 374 "},"b":{"ha":865,"x_min":0,"x_max":0,"o":"m 500 -14 b 249 146 375 -14 283 49 b 78 -12 219 75 163 7 b 93 294 93 71 93 172 b 93 888 93 294 93 888 b 10 1038 93 975 75 1007 b 10 1040 10 1038 10 1040 b 293 1040 10 1040 293 1040 b 293 504 293 1040 293 504 b 533 697 321 610 407 697 b 832 349 699 697 832 564 b 500 -14 832 124 683 -14 m 619 340 b 454 613 619 513 558 613 b 293 401 372 613 293 531 b 293 236 293 401 293 236 b 451 35 293 114 371 35 b 619 340 561 35 619 144 "},"c":{"ha":699,"x_min":0,"x_max":0,"o":"m 415 671 b 244 374 306 671 244 543 b 465 81 244 185 335 81 b 675 222 556 81 633 125 b 683 218 675 222 683 218 b 378 -14 650 71 531 -14 b 33 328 199 -14 33 111 b 414 697 33 560 204 697 b 669 521 564 697 669 625 b 549 403 669 444 613 403 b 442 478 486 403 444 439 b 468 472 450 474 461 472 b 536 561 514 472 536 510 b 415 671 536 625 499 671 "},"d":{"ha":874,"x_min":0,"x_max":0,"o":"m 411 69 b 572 276 493 69 572 150 b 572 413 572 276 572 413 b 410 632 572 547 492 632 b 247 335 304 632 247 524 b 411 69 247 167 307 69 m 572 524 b 572 888 572 524 572 888 b 489 1038 572 975 554 1007 b 489 1040 489 1038 489 1040 b 772 1040 489 1040 772 1040 b 772 151 772 1040 772 151 b 847 3 772 67 785 38 b 847 0 847 3 847 0 b 572 0 847 0 572 0 b 572 178 572 0 572 178 b 333 -14 544 72 458 -14 b 33 335 168 -14 33 119 b 343 697 33 554 172 697 b 572 524 464 697 544 621 "},"e":{"ha":728,"x_min":0,"x_max":0,"o":"m 382 697 b 694 371 596 697 694 557 b 236 371 694 371 236 371 b 469 81 236 194 328 81 b 683 222 561 81 642 125 b 692 218 683 222 692 218 b 383 -14 657 71 539 -14 b 33 340 192 -14 33 115 b 382 697 33 556 193 697 m 238 400 b 497 400 238 400 497 400 b 381 671 497 550 481 671 b 238 400 299 671 243 564 "},"f":{"ha":456,"x_min":0,"x_max":0,"o":"m 106 151 b 106 647 106 151 106 647 b 19 647 106 647 19 647 b 19 660 19 647 19 660 b 106 690 19 660 106 690 b 106 747 106 690 106 747 b 408 1049 106 956 233 1049 b 621 914 529 1049 621 1006 b 511 813 621 854 574 813 b 428 844 475 813 444 824 b 488 936 463 854 488 879 b 408 1026 488 990 460 1026 b 306 858 329 1026 306 951 b 306 683 306 858 306 683 b 483 683 306 683 483 683 b 476 647 483 683 476 647 b 306 647 476 647 306 647 b 306 151 306 647 306 151 b 418 3 306 60 342 32 b 418 0 418 3 418 0 b 36 0 418 0 36 0 b 36 3 36 0 36 3 b 106 151 99 38 106 60 "},"g":{"ha":792,"x_min":0,"x_max":0,"o":"m 361 674 b 260 469 290 674 260 594 b 361 265 260 344 290 265 b 464 469 433 265 464 344 b 361 674 464 594 433 674 m 765 -57 b 346 -321 765 -232 568 -321 b 6 -162 188 -321 6 -281 b 190 -37 6 -94 75 -46 b 42 115 110 -24 42 28 b 190 276 42 197 113 254 b 63 469 107 317 63 388 b 361 697 63 599 169 697 b 583 625 456 697 533 671 b 719 735 611 671 650 735 b 826 640 788 735 826 697 b 704 538 826 563 760 538 b 704 540 704 538 704 540 b 724 589 718 553 724 568 b 663 649 724 622 704 649 b 594 614 633 649 611 632 b 661 469 638 576 661 526 b 361 242 661 340 554 242 b 211 267 301 242 253 250 b 146 199 176 254 146 232 b 229 142 146 161 175 142 b 499 142 229 142 499 142 b 765 -57 664 142 765 72 m 332 -296 b 619 -142 497 -296 619 -239 b 468 -29 619 -62 567 -29 b 257 -29 468 -29 257 -29 b 103 -150 163 -29 103 -69 b 332 -296 103 -244 204 -296 "},"h":{"ha":857,"x_min":0,"x_max":0,"o":"m 18 1040 b 301 1040 18 1040 301 1040 b 301 497 301 1040 301 497 b 543 697 336 624 425 697 b 763 456 685 697 763 600 b 763 151 763 456 763 151 b 833 3 763 60 769 38 b 833 0 833 3 833 0 b 492 0 833 0 492 0 b 492 3 492 0 492 3 b 563 151 556 38 563 60 b 563 456 563 151 563 456 b 449 597 563 533 531 597 b 301 383 363 597 301 521 b 301 151 301 383 301 151 b 372 3 301 60 308 38 b 372 0 372 3 372 0 b 31 0 372 0 31 0 b 31 3 31 0 31 3 b 101 151 94 38 101 60 b 101 888 101 151 101 888 b 18 1038 101 975 83 1007 b 18 1040 18 1038 18 1040 "},"i":{"ha":403,"x_min":0,"x_max":0,"o":"m 82 907 b 201 1022 82 972 133 1022 b 321 907 269 1022 321 972 b 201 792 321 842 269 792 b 82 907 133 792 82 842 m 306 683 b 306 151 306 683 306 151 b 376 3 306 60 314 38 b 376 0 376 3 376 0 b 36 0 376 0 36 0 b 36 3 36 0 36 3 b 106 151 99 38 106 60 b 106 529 106 151 106 529 b 28 681 106 618 93 646 b 28 683 28 681 28 683 b 306 683 28 683 306 683 "},"j":{"ha":375,"x_min":0,"x_max":0,"o":"m 69 907 b 188 1022 69 972 119 1022 b 308 907 257 1022 308 972 b 188 792 308 842 257 792 b 69 907 119 792 69 842 m -4 -321 b -221 -185 -125 -321 -221 -275 b -106 -87 -221 -126 -171 -87 b -19 -114 -71 -87 -37 -99 b -83 -204 -57 -124 -83 -153 b 0 -299 -83 -262 -56 -299 b 93 -132 68 -299 93 -240 b 93 529 93 -132 93 529 b 15 681 93 618 81 646 b 15 683 15 681 15 683 b 293 683 15 683 293 683 b 293 -50 293 683 293 -50 b -4 -321 293 -242 160 -321 "},"k":{"ha":822,"x_min":0,"x_max":0,"o":"m 301 389 b 333 389 301 389 333 389 b 438 432 374 389 399 394 b 557 553 438 432 557 553 b 594 624 583 578 594 601 b 549 681 594 649 578 669 b 549 683 549 681 549 683 b 814 683 549 683 814 683 b 814 681 814 683 814 681 b 617 565 725 656 675 621 b 513 458 617 565 513 458 b 697 156 513 458 697 156 b 853 3 740 86 788 32 b 853 0 853 3 853 0 b 544 0 853 0 544 0 b 508 99 544 28 531 63 b 372 326 508 99 372 326 b 322 360 358 351 346 360 b 301 360 322 360 301 360 b 301 151 301 360 301 151 b 372 3 301 60 308 38 b 372 0 372 3 372 0 b 31 0 372 0 31 0 b 31 3 31 0 31 3 b 101 151 94 38 101 60 b 101 888 101 151 101 888 b 18 1038 101 975 83 1007 b 18 1040 18 1038 18 1040 b 301 1040 18 1040 301 1040 b 301 389 301 1040 301 389 "},"l":{"ha":399,"x_min":0,"x_max":0,"o":"m 301 1040 b 301 151 301 1040 301 151 b 372 3 301 60 308 38 b 372 0 372 3 372 0 b 31 0 372 0 31 0 b 31 3 31 0 31 3 b 101 151 94 38 101 60 b 101 888 101 151 101 888 b 18 1038 101 975 83 1007 b 18 1040 18 1038 18 1040 b 301 1040 18 1040 301 1040 "},"m":{"ha":1279,"x_min":0,"x_max":0,"o":"m 743 497 b 974 697 775 624 856 697 b 1183 456 1115 697 1183 600 b 1183 151 1183 456 1183 151 b 1254 3 1183 60 1192 38 b 1254 0 1254 3 1254 0 b 914 0 1254 0 914 0 b 914 3 914 0 914 3 b 983 151 976 38 983 60 b 983 456 983 151 983 456 b 881 597 983 533 963 597 b 744 383 799 597 744 521 b 744 151 744 383 744 151 b 815 3 744 60 753 38 b 815 0 815 3 815 0 b 475 0 815 0 475 0 b 475 3 475 0 475 3 b 544 151 538 38 544 60 b 544 456 544 151 544 456 b 442 597 544 533 524 597 b 306 383 360 597 306 521 b 306 151 306 383 306 151 b 376 3 306 60 314 38 b 376 0 376 3 376 0 b 36 0 376 0 36 0 b 36 3 36 0 36 3 b 106 151 99 38 106 60 b 106 529 106 151 106 529 b 28 681 106 618 93 646 b 28 683 28 681 28 683 b 306 683 28 683 306 683 b 306 497 306 683 306 497 b 535 697 338 624 417 697 b 743 497 661 697 732 619 "},"n":{"ha":863,"x_min":0,"x_max":0,"o":"m 28 683 b 306 683 28 683 306 683 b 306 497 306 683 306 497 b 549 697 342 624 431 697 b 767 456 690 697 767 600 b 767 151 767 456 767 151 b 838 3 767 60 775 38 b 838 0 838 3 838 0 b 497 0 838 0 497 0 b 497 3 497 0 497 3 b 567 151 560 38 567 60 b 567 456 567 151 567 456 b 453 597 567 533 535 597 b 306 383 367 597 306 521 b 306 151 306 383 306 151 b 376 3 306 60 314 38 b 376 0 376 3 376 0 b 36 0 376 0 36 0 b 36 3 36 0 36 3 b 106 151 99 38 106 60 b 106 529 106 151 106 529 b 28 681 106 618 93 646 b 28 683 28 681 28 683 "},"o":{"ha":799,"x_min":0,"x_max":0,"o":"m 399 -14 b 33 342 194 -14 33 131 b 399 697 33 553 194 697 b 765 342 604 697 765 553 b 399 -14 765 131 604 -14 m 399 11 b 550 342 501 11 550 138 b 399 671 550 546 501 671 b 249 342 297 671 249 546 b 399 11 249 138 297 11 "},"p":{"ha":872,"x_min":0,"x_max":0,"o":"m 461 613 b 300 407 379 613 300 532 b 300 271 300 407 300 271 b 463 51 300 135 381 51 b 625 349 568 51 625 160 b 461 613 625 515 565 613 m 300 160 b 300 -156 300 160 300 -156 b 369 -304 300 -247 307 -269 b 369 -307 369 -304 369 -307 b 29 -307 369 -307 29 -307 b 29 -304 29 -307 29 -304 b 100 -156 92 -269 100 -247 b 100 529 100 -156 100 529 b 21 681 100 618 86 646 b 21 683 21 681 21 683 b 300 683 21 683 300 683 b 300 504 300 683 300 504 b 539 697 328 610 414 697 b 839 349 704 697 839 564 b 529 -14 839 129 700 -14 b 300 160 408 -14 328 61 "},"q":{"ha":856,"x_min":0,"x_max":0,"o":"m 772 388 b 772 -156 772 388 772 -156 b 843 -304 772 -247 781 -269 b 843 -307 843 -304 843 -307 b 503 -307 843 -307 503 -307 b 503 -304 503 -307 503 -304 b 572 -156 565 -269 572 -247 b 572 178 572 -156 572 178 b 333 -14 544 72 458 -14 b 33 335 168 -14 33 114 b 365 697 33 558 188 697 b 621 538 488 697 585 632 b 786 694 649 614 717 675 b 789 694 786 694 789 694 b 772 388 772 611 772 510 m 572 282 b 572 440 572 282 572 440 b 414 650 572 571 492 650 b 247 343 304 650 247 539 b 411 69 247 169 307 69 b 572 282 493 69 572 153 "},"r":{"ha":678,"x_min":0,"x_max":0,"o":"m 494 442 b 538 507 521 451 538 476 b 456 581 538 553 508 581 b 306 344 376 581 306 483 b 306 151 306 344 306 151 b 418 3 306 60 342 32 b 418 0 418 3 418 0 b 36 0 418 0 36 0 b 36 3 36 0 36 3 b 106 151 99 38 106 60 b 106 529 106 151 106 529 b 28 681 106 618 93 646 b 28 683 28 681 28 683 b 306 683 28 683 306 683 b 306 456 306 683 306 456 b 528 697 339 583 404 697 b 669 565 613 697 669 642 b 543 426 669 474 606 426 b 494 442 521 426 503 433 "},"s":{"ha":650,"x_min":0,"x_max":0,"o":"m 296 671 b 182 572 224 671 182 629 b 351 446 182 507 218 483 b 604 207 533 394 604 332 b 335 -14 604 67 486 -14 b 129 18 239 -14 176 18 b 63 -14 97 18 81 3 b 47 243 63 -14 47 243 b 50 243 47 243 50 243 b 335 11 121 96 210 11 b 465 126 408 11 465 51 b 288 254 465 201 399 224 b 54 492 122 301 54 369 b 296 697 54 618 163 697 b 481 663 382 697 432 663 b 556 697 510 663 531 676 b 556 471 556 697 556 471 b 553 471 556 471 553 471 b 296 671 496 588 399 671 "},"t":{"ha":539,"x_min":0,"x_max":0,"o":"m 507 242 b 521 238 507 242 521 238 b 296 -14 506 104 447 -14 b 92 208 175 -14 90 58 b 93 647 92 208 93 647 b 10 647 93 647 10 647 b 10 660 10 647 10 660 b 278 924 142 688 240 785 b 292 924 278 924 292 924 b 292 683 292 924 292 683 b 503 683 292 683 503 683 b 496 647 503 683 496 647 b 292 647 496 647 292 647 b 292 207 292 647 292 207 b 379 86 292 128 321 86 b 507 242 444 86 489 142 "},"u":{"ha":844,"x_min":0,"x_max":0,"o":"m 549 300 b 549 529 549 300 549 529 b 469 681 549 618 535 646 b 469 683 469 681 469 683 b 749 683 469 683 749 683 b 749 143 749 683 749 143 b 831 3 749 54 769 33 b 831 0 831 3 831 0 b 549 0 831 0 549 0 b 549 190 549 0 549 190 b 304 -14 515 60 424 -14 b 88 228 165 -14 88 83 b 88 529 88 228 88 529 b 10 681 88 618 75 646 b 10 683 10 681 10 683 b 288 683 10 683 288 683 b 288 229 288 683 288 229 b 400 88 288 156 321 88 b 549 300 483 88 549 163 "},"v":{"ha":738,"x_min":0,"x_max":0,"o":"m 451 225 b 593 524 451 225 593 524 b 611 596 606 549 611 574 b 549 681 611 633 593 664 b 549 683 549 681 549 683 b 747 683 549 683 747 683 b 747 681 747 683 747 681 b 639 529 700 644 682 618 b 372 -14 639 529 372 -14 b 369 -14 372 -14 369 -14 b 94 533 369 -14 94 533 b -10 681 50 622 36 643 b -10 683 -10 681 -10 683 b 321 683 -10 683 321 683 b 321 681 321 683 321 681 b 281 618 289 663 281 646 b 303 539 281 596 290 565 b 451 225 303 539 451 225 "},"w":{"ha":1072,"x_min":0,"x_max":0,"o":"m 740 -14 b 550 443 740 -14 550 443 b 342 -14 550 443 342 -14 b 339 -14 342 -14 339 -14 b 92 533 339 -14 92 533 b -10 681 53 621 36 643 b -10 683 -10 681 -10 683 b 307 683 -10 683 307 683 b 307 681 307 683 307 681 b 272 618 279 663 272 647 b 293 538 272 594 282 565 b 424 242 293 538 424 242 b 533 485 424 242 533 485 b 513 533 533 485 513 533 b 411 681 472 622 457 643 b 411 683 411 681 411 683 b 728 683 411 683 728 683 b 728 681 728 683 728 681 b 686 617 696 663 686 644 b 707 536 686 596 697 567 b 817 247 707 536 817 247 b 932 529 817 247 932 529 b 944 590 940 550 944 571 b 879 681 944 631 924 664 b 879 683 879 681 879 683 b 1082 683 879 683 1082 683 b 1082 681 1082 683 1082 681 b 975 531 1035 643 1015 622 b 743 -14 975 531 743 -14 b 740 -14 743 -14 740 -14 "},"x":{"ha":761,"x_min":0,"x_max":0,"o":"m 193 3 b 193 0 193 3 193 0 b -11 0 193 0 -11 0 b -11 3 -11 0 -11 3 b 164 165 61 40 106 89 b 290 333 164 165 290 333 b 172 518 290 333 172 518 b 15 681 119 600 85 635 b 15 683 15 681 15 683 b 349 683 15 683 349 683 b 349 681 349 683 349 681 b 329 639 335 669 329 657 b 379 531 328 608 353 572 b 447 425 379 531 447 425 b 518 531 447 425 518 531 b 560 625 542 563 560 597 b 522 681 560 650 546 669 b 522 683 522 681 522 683 b 724 683 522 683 724 683 b 724 681 724 683 724 681 b 551 517 651 643 607 593 b 465 397 551 517 465 397 b 613 165 465 397 613 165 b 772 3 668 82 701 47 b 772 0 772 3 772 0 b 438 0 772 0 438 0 b 438 3 438 0 438 3 b 458 43 451 14 458 26 b 408 151 457 74 435 111 b 310 304 408 151 310 304 b 199 151 310 304 199 151 b 156 61 176 122 156 90 b 193 3 156 36 168 15 "},"y":{"ha":736,"x_min":0,"x_max":0,"o":"m 329 -118 b 371 -24 329 -118 371 -24 b 94 533 371 -24 94 533 b -10 681 50 622 36 642 b -10 683 -10 681 -10 683 b 321 683 -10 683 321 683 b 321 681 321 683 321 681 b 281 618 289 663 281 646 b 303 536 281 596 289 565 b 461 203 303 536 461 203 b 596 524 461 203 596 524 b 610 590 606 547 610 569 b 546 681 610 632 588 664 b 546 683 546 681 546 683 b 746 683 546 683 746 683 b 746 681 746 683 746 681 b 638 524 697 644 676 615 b 354 -143 638 524 354 -143 b 156 -321 303 -262 246 -321 b 18 -200 76 -321 18 -276 b 128 -89 18 -129 68 -89 b 172 -97 144 -89 157 -92 b 132 -162 144 -110 132 -131 b 207 -236 132 -206 163 -236 b 329 -118 260 -236 293 -199 "},"z":{"ha":717,"x_min":0,"x_max":0,"o":"m 439 653 b 307 653 439 653 307 653 b 54 453 194 653 147 592 b 51 453 54 453 51 453 b 71 694 51 453 71 694 b 156 683 90 688 119 683 b 671 683 156 683 671 683 b 671 681 671 683 671 681 b 260 29 671 681 260 29 b 379 31 260 29 379 31 b 681 251 522 31 571 89 b 683 251 681 251 683 251 b 643 0 683 251 643 0 b 25 0 643 0 25 0 b 25 3 25 0 25 3 b 439 653 25 3 439 653 "},"{":{"ha":518,"x_min":0,"x_max":0,"o":"m 15 431 b 15 439 15 431 15 439 b 178 640 104 442 178 492 b 157 832 178 700 157 760 b 431 1040 157 958 261 1040 b 501 1035 457 1040 479 1039 b 501 1029 501 1035 501 1029 b 326 842 390 1029 326 957 b 350 632 326 771 350 694 b 115 435 350 486 189 442 b 350 238 189 428 350 383 b 326 28 350 175 326 99 b 501 -160 326 -87 390 -160 b 501 -165 501 -160 501 -165 b 431 -171 479 -169 457 -171 b 157 38 261 -171 157 -89 b 178 229 157 110 178 169 b 15 431 178 378 104 428 "},"|":{"ha":274,"x_min":0,"x_max":0,"o":"m 117 -171 b 117 1040 117 -171 117 1040 b 157 1040 117 1040 157 1040 b 157 -171 157 1040 157 -171 b 117 -171 157 -171 117 -171 "},"}":{"ha":518,"x_min":0,"x_max":0,"o":"m 503 439 b 503 431 503 439 503 431 b 340 229 414 428 340 378 b 361 38 340 169 361 110 b 88 -171 361 -89 257 -171 b 17 -165 61 -171 39 -169 b 17 -160 17 -165 17 -160 b 192 28 128 -160 192 -87 b 168 238 192 99 168 175 b 403 435 168 383 329 428 b 168 632 329 442 168 486 b 192 842 168 694 192 771 b 17 1029 192 957 128 1029 b 17 1035 17 1029 17 1035 b 88 1040 39 1039 61 1040 b 361 832 257 1040 361 958 b 340 640 361 760 340 700 b 503 439 340 492 414 442 "},"~":{"ha":697,"x_min":0,"x_max":0,"o":"m 67 338 b 64 338 67 338 64 338 b 244 549 83 468 151 549 b 493 481 343 549 403 481 b 631 558 551 481 601 506 b 633 558 631 558 633 558 b 453 347 614 428 544 347 b 204 414 354 347 294 414 b 67 338 146 414 94 390 "}," ":{"ha":278,"x_min":0,"x_max":0,"o":""},"¡":{"ha":399,"x_min":0,"x_max":0,"o":"m 200 776 b 321 654 268 776 321 722 b 200 532 321 586 268 532 b 78 654 132 532 78 586 b 200 776 78 722 132 776 m 331 -207 b 68 -207 331 -207 68 -207 b 197 447 68 -207 197 447 b 203 447 197 447 203 447 b 331 -207 203 447 331 -207 "},"¢":{"ha":722,"x_min":0,"x_max":0,"o":"m 243 374 b 374 101 243 235 293 142 b 419 671 374 101 419 671 b 243 374 304 661 243 536 m 378 -158 b 353 -158 378 -158 353 -158 b 364 -14 353 -158 364 -14 b 42 328 189 -4 42 118 b 421 697 42 560 207 697 b 432 828 421 697 432 828 b 457 828 432 828 457 828 b 446 697 457 828 446 697 b 676 524 581 690 676 622 b 568 413 676 451 625 413 b 465 483 517 413 481 440 b 497 476 476 478 488 476 b 560 561 538 476 560 513 b 444 671 560 618 524 667 b 397 92 444 671 397 92 b 469 81 419 85 444 81 b 683 222 561 81 642 125 b 692 218 683 222 692 218 b 389 -14 657 71 539 -14 b 378 -158 389 -14 378 -158 "},"£":{"ha":906,"x_min":0,"x_max":0,"o":"m 675 -35 b 357 114 533 -35 450 49 b 140 -14 299 29 221 -14 b 13 97 65 -14 13 31 b 150 218 13 169 68 218 b 288 190 192 218 238 207 b 293 271 290 215 293 242 b 265 472 293 340 279 406 b 113 472 265 472 113 472 b 113 500 113 472 113 500 b 260 500 113 500 260 500 b 238 674 247 557 238 614 b 593 986 238 871 385 986 b 847 806 747 986 847 917 b 725 685 847 729 790 685 b 607 739 674 685 626 707 b 710 844 665 738 710 774 b 593 964 710 915 672 964 b 464 771 504 964 464 875 b 464 535 464 771 464 535 b 464 500 464 535 464 500 b 660 500 464 500 660 500 b 660 472 660 500 660 472 b 463 472 660 472 463 472 b 385 158 456 342 426 236 b 607 113 457 135 532 113 b 778 231 731 113 778 157 b 758 292 778 249 774 271 b 874 138 829 267 874 210 b 675 -35 874 26 782 -35 m 136 15 b 281 160 207 15 258 69 b 150 190 242 178 200 190 b 47 97 86 190 47 153 b 136 15 47 47 85 15 "},"¥":{"ha":901,"x_min":0,"x_max":0,"o":"m 631 3 b 631 0 631 3 631 0 b 271 0 631 0 271 0 b 271 3 271 0 271 3 b 351 165 333 39 351 74 b 351 342 351 165 351 342 b 108 342 351 342 108 342 b 108 371 108 342 108 371 b 351 371 108 371 351 371 b 351 407 351 371 351 407 b 315 472 351 407 315 472 b 108 472 315 472 108 472 b 108 501 108 472 108 501 b 300 501 108 501 300 501 b 124 825 300 501 124 825 b 0 969 88 893 54 929 b 0 972 0 969 0 972 b 379 972 0 972 379 972 b 379 969 379 972 379 969 b 328 892 344 946 328 925 b 347 825 328 872 335 850 b 538 458 347 825 538 458 b 729 817 538 458 729 817 b 747 885 742 839 747 863 b 688 969 746 919 728 950 b 688 972 688 969 688 972 b 901 972 688 972 901 972 b 901 969 901 972 901 969 b 775 821 847 931 814 890 b 603 501 775 821 603 501 b 793 501 603 501 793 501 b 793 472 793 501 793 472 b 586 472 793 472 586 472 b 551 407 586 472 551 407 b 551 371 551 407 551 371 b 793 371 551 371 793 371 b 793 342 793 371 793 342 b 551 342 793 342 551 342 b 551 165 551 342 551 165 b 631 3 551 74 568 39 "},"§":{"ha":775,"x_min":0,"x_max":0,"o":"m 243 381 b 481 185 243 381 481 185 b 599 63 524 149 569 107 b 618 144 611 83 618 114 b 532 293 618 203 596 240 b 296 489 532 293 296 489 b 178 611 251 525 207 567 b 157 529 164 590 157 560 b 243 381 157 471 179 433 m 374 -312 b 129 -158 235 -312 129 -249 b 226 -57 129 -94 172 -57 b 308 -85 261 -57 294 -71 b 258 -171 279 -94 258 -119 b 374 -290 258 -244 303 -290 b 507 -153 461 -290 507 -231 b 381 43 507 -64 468 -29 b 206 186 381 43 206 186 b 63 418 114 263 63 329 b 169 624 63 504 115 581 b 139 749 150 657 139 696 b 403 986 139 882 253 986 b 646 832 540 986 646 922 b 549 731 646 768 604 731 b 467 758 515 731 482 744 b 517 844 497 768 517 793 b 403 964 517 918 472 964 b 269 826 315 964 269 904 b 394 631 269 738 308 703 b 569 488 394 631 569 488 b 713 256 663 411 713 344 b 607 50 713 169 661 93 b 636 -75 625 17 636 -22 b 374 -312 636 -208 524 -312 "},"¨":{"ha":694,"x_min":0,"x_max":0,"o":"m 208 783 b 103 890 149 783 103 832 b 208 999 103 949 149 999 b 315 890 268 999 315 949 b 208 783 315 832 268 783 m 485 783 b 378 890 426 783 378 832 b 485 999 378 949 426 999 b 592 890 544 999 592 949 b 485 783 592 832 544 783 "},"©":{"ha":1125,"x_min":0,"x_max":0,"o":"m 1063 486 b 563 -14 1063 196 839 -14 b 63 486 286 -14 63 196 b 563 986 63 776 286 986 b 1063 486 839 986 1063 776 m 1035 486 b 563 958 1035 760 824 958 b 90 486 301 958 90 760 b 563 14 90 213 301 14 b 1035 486 824 14 1035 213 m 599 761 b 439 508 499 761 439 650 b 639 263 439 347 531 263 b 818 371 714 263 776 288 b 822 369 818 371 822 369 b 578 179 793 258 706 179 b 281 483 406 179 281 301 b 586 790 281 665 414 790 b 743 760 664 790 704 760 b 797 790 765 760 782 774 b 799 594 797 790 799 594 b 796 594 799 594 796 594 b 599 761 753 685 689 761 "},"ª":{"ha":586,"x_min":0,"x_max":0,"o":"m 571 546 b 571 539 571 546 571 539 b 463 496 549 514 507 496 b 347 582 392 496 356 531 b 346 614 347 586 346 608 b 192 497 332 549 272 497 b 50 618 115 497 50 536 b 274 768 50 724 158 746 b 344 781 274 768 344 781 b 344 854 344 781 344 854 b 258 963 344 911 322 963 b 181 893 207 963 181 935 b 226 836 181 858 197 836 b 243 839 232 836 238 838 b 158 786 231 804 199 786 b 71 865 110 786 71 817 b 261 986 71 938 149 986 b 490 821 406 986 490 938 b 488 628 490 751 488 692 b 546 539 488 568 500 539 b 571 546 553 539 563 542 m 344 758 b 299 750 344 758 299 750 b 194 639 226 735 194 699 b 258 563 194 589 219 563 b 343 671 304 563 342 606 b 344 758 343 671 344 758 m 89 374 b 89 403 89 374 89 403 b 500 403 89 403 500 403 b 500 374 500 403 500 374 b 89 374 500 374 89 374 "},"«":{"ha":671,"x_min":0,"x_max":0,"o":"m 22 338 b 22 340 22 338 22 340 b 375 610 139 401 276 499 b 381 610 375 610 381 610 b 226 339 336 497 276 404 b 381 68 276 274 336 181 b 375 68 381 68 375 68 b 22 338 276 179 139 276 m 286 338 b 286 340 286 338 286 340 b 638 610 401 401 539 499 b 643 610 638 610 643 610 b 489 339 599 497 540 404 b 643 68 540 274 599 181 b 638 68 643 68 638 68 b 286 338 539 179 401 276 "},"®":{"ha":668,"x_min":0,"x_max":0,"o":"m 606 714 b 335 443 606 557 485 443 b 63 714 183 443 63 557 b 335 986 63 872 183 986 b 606 714 485 986 606 872 m 581 714 b 335 963 581 860 472 963 b 88 714 197 963 88 860 b 335 467 88 569 197 467 b 581 714 472 467 581 569 m 290 856 b 290 721 290 856 290 721 b 319 721 290 721 319 721 b 388 786 361 721 388 738 b 319 856 388 832 363 856 b 290 856 319 856 290 856 m 186 871 b 350 871 186 871 350 871 b 469 788 415 871 469 847 b 364 711 469 733 415 711 b 449 653 411 708 438 688 b 461 617 449 653 461 617 b 503 567 472 585 481 578 b 503 561 503 567 503 561 b 404 561 503 561 404 561 b 381 610 394 572 386 589 b 365 658 381 610 365 658 b 314 707 357 686 344 707 b 290 707 314 707 290 707 b 290 617 290 707 290 617 b 314 567 290 588 293 578 b 314 561 314 567 314 561 b 186 561 314 561 186 561 b 186 567 186 561 186 567 b 211 617 207 578 211 588 b 211 815 211 617 211 815 b 186 865 211 844 207 854 b 186 871 186 865 186 871 "},"¯":{"ha":694,"x_min":0,"x_max":0,"o":"m 558 831 b 147 831 558 831 147 831 b 147 882 147 831 147 882 b 558 882 147 882 558 882 b 558 831 558 882 558 831 "},"°":{"ha":378,"x_min":0,"x_max":0,"o":"m 342 832 b 189 678 342 747 274 678 b 36 832 104 678 36 747 b 189 985 36 917 104 985 b 342 832 274 985 342 917 m 307 832 b 189 950 307 897 254 950 b 72 832 124 950 72 897 b 189 713 72 767 124 713 b 307 832 254 713 307 767 "},"±":{"ha":665,"x_min":0,"x_max":0,"o":"m 604 501 b 351 501 604 501 351 501 b 351 310 351 501 351 310 b 313 310 351 310 313 310 b 313 501 313 310 313 501 b 61 501 313 501 61 501 b 61 540 61 501 61 540 b 313 540 61 540 313 540 b 313 731 313 540 313 731 b 351 731 313 731 351 731 b 351 540 351 731 351 540 b 604 540 351 540 604 540 b 604 501 604 540 604 501 m 61 183 b 61 221 61 183 61 221 b 604 221 61 221 604 221 b 604 183 604 221 604 183 b 61 183 604 183 61 183 "},"²":{"ha":383,"x_min":0,"x_max":0,"o":"m 171 957 b 110 896 132 957 110 929 b 154 836 110 857 131 836 b 179 846 167 836 172 839 b 183 846 179 846 183 846 b 111 794 171 810 143 794 b 35 872 68 794 35 825 b 171 978 35 939 93 978 b 338 860 260 978 338 946 b 125 656 338 774 260 721 b 228 656 125 656 228 656 b 339 704 292 657 311 663 b 344 704 339 704 344 704 b 329 569 344 704 329 569 b 22 569 329 569 22 569 b 22 572 22 569 22 572 b 228 885 189 739 228 794 b 171 957 228 922 213 957 "},"³":{"ha":383,"x_min":0,"x_max":0,"o":"m 178 585 b 236 679 215 585 236 628 b 158 779 236 746 211 779 b 158 790 158 779 158 790 b 225 885 210 793 225 829 b 179 958 225 926 211 958 b 131 903 149 958 131 933 b 161 853 131 874 142 853 b 174 856 167 853 169 854 b 176 854 174 856 176 854 b 117 826 168 839 149 826 b 50 889 76 826 50 851 b 179 978 50 947 108 978 b 335 879 267 978 335 943 b 224 789 335 822 286 794 b 350 681 294 783 350 749 b 178 564 350 603 274 564 b 28 663 99 564 28 596 b 104 733 28 708 61 733 b 167 703 139 733 158 719 b 163 701 167 703 163 701 b 151 706 160 704 156 706 b 119 651 131 706 119 683 b 178 585 119 613 143 585 "},"´":{"ha":694,"x_min":0,"x_max":0,"o":"m 281 1040 b 485 1040 281 1040 485 1040 b 210 765 429 935 340 844 b 204 765 210 765 204 765 b 281 1040 253 853 275 946 "},"¶":{"ha":718,"x_min":0,"x_max":0,"o":"m 588 825 b 588 -71 588 825 588 -71 b 364 -326 588 -210 506 -326 b 151 -162 257 -326 151 -274 b 254 -58 151 -97 203 -58 b 343 -118 299 -58 332 -79 b 342 -118 343 -118 342 -118 b 304 -107 332 -111 319 -107 b 251 -174 274 -107 251 -133 b 378 -290 251 -243 299 -290 b 553 -71 483 -290 553 -196 b 553 940 553 -71 553 940 b 499 940 553 940 499 940 b 499 167 499 940 499 167 b 463 167 499 167 463 167 b 463 383 463 167 463 383 b 53 678 243 383 53 488 b 463 972 53 868 243 972 b 671 972 463 972 671 972 b 671 969 671 972 671 969 b 588 825 606 933 588 917 "},"·":{"ha":344,"x_min":0,"x_max":0,"o":"m 293 385 b 172 263 293 317 240 263 b 50 385 103 263 50 317 b 172 507 50 453 103 507 b 293 385 240 507 293 453 "},"¸":{"ha":694,"x_min":0,"x_max":0,"o":"m 188 -214 b 199 -203 188 -214 199 -203 b 301 -262 224 -243 260 -262 b 375 -186 346 -262 375 -233 b 263 -106 375 -126 332 -108 b 329 11 263 -106 329 11 b 354 11 329 11 354 11 b 306 -78 354 11 306 -78 b 513 -192 424 -74 513 -111 b 353 -310 513 -268 438 -310 b 188 -214 268 -310 207 -264 "},"¹":{"ha":283,"x_min":0,"x_max":0,"o":"m 85 917 b 17 964 85 946 71 953 b 17 972 17 964 17 972 b 200 972 17 972 200 972 b 200 625 200 972 200 625 b 267 578 200 596 213 589 b 267 569 267 578 267 569 b 18 569 267 569 18 569 b 18 578 18 569 18 578 b 85 625 72 589 85 596 b 85 917 85 625 85 917 "},"º":{"ha":589,"x_min":0,"x_max":0,"o":"m 294 494 b 38 740 153 494 38 594 b 294 986 38 886 153 986 b 551 740 436 986 551 886 b 294 494 551 594 436 494 m 294 519 b 396 740 368 519 396 600 b 294 961 396 881 368 961 b 193 740 221 961 193 881 b 294 519 193 600 221 519 m 90 374 b 90 403 90 374 90 403 b 500 403 90 403 500 403 b 500 374 500 403 500 374 b 90 374 500 374 90 374 "},"»":{"ha":671,"x_min":0,"x_max":0,"o":"m 396 340 b 396 338 396 340 396 338 b 44 68 279 276 142 179 b 39 68 44 68 39 68 b 192 339 83 181 142 274 b 39 610 142 404 83 497 b 44 610 39 610 44 610 b 396 340 142 499 279 401 m 658 340 b 658 338 658 340 658 338 b 307 68 543 276 404 179 b 301 68 307 68 301 68 b 454 339 346 181 404 274 b 301 610 404 404 346 497 b 307 610 301 610 307 610 b 658 340 404 499 543 401 "},"¼":{"ha":582,"x_min":0,"x_max":0,"o":"m 231 917 b 163 964 231 946 217 953 b 163 972 163 964 163 972 b 346 972 163 972 346 972 b 346 625 346 972 346 625 b 413 578 346 596 358 589 b 413 569 413 578 413 569 b 164 569 413 569 164 569 b 164 578 164 569 164 578 b 231 625 218 589 231 596 b 231 917 231 625 231 917 m 28 497 b 535 497 28 497 535 497 b 535 475 535 497 535 475 b 28 475 535 475 28 475 b 28 497 28 475 28 497 m 268 131 b 268 338 268 131 268 338 b 128 131 268 338 128 131 b 268 131 128 131 268 131 m 268 71 b 268 108 268 71 268 108 b 88 108 268 108 88 108 b 88 111 88 108 88 111 b 288 404 88 111 288 404 b 382 404 288 404 382 404 b 382 131 382 404 382 131 b 410 131 382 131 410 131 b 465 167 446 131 449 138 b 471 167 465 167 471 167 b 471 72 471 167 471 72 b 465 72 471 72 465 72 b 410 108 449 101 446 108 b 382 108 410 108 382 108 b 382 71 382 108 382 71 b 414 6 382 33 389 24 b 414 0 414 6 414 0 b 236 0 414 0 236 0 b 236 6 236 0 236 6 b 268 71 261 24 268 33 "},"½":{"ha":563,"x_min":0,"x_max":0,"o":"m 231 917 b 163 964 231 946 217 953 b 163 972 163 964 163 972 b 346 972 163 972 346 972 b 346 625 346 972 346 625 b 413 578 346 596 358 589 b 413 569 413 578 413 569 b 164 569 413 569 164 569 b 164 578 164 569 164 578 b 231 625 218 589 231 596 b 231 917 231 625 231 917 m 28 497 b 535 497 28 497 535 497 b 535 475 535 497 535 475 b 28 475 535 475 28 475 b 28 497 28 475 28 497 m 272 388 b 211 326 233 388 211 360 b 256 267 211 288 232 267 b 281 276 268 267 274 269 b 285 276 281 276 285 276 b 213 225 272 240 244 225 b 136 303 169 225 136 256 b 272 408 136 369 194 408 b 439 290 361 408 439 376 b 226 86 439 204 361 151 b 329 86 226 86 329 86 b 440 135 393 88 413 93 b 446 135 440 135 446 135 b 431 0 446 135 431 0 b 124 0 431 0 124 0 b 124 3 124 0 124 3 b 329 315 290 169 329 225 b 272 388 329 353 314 388 "},"¾":{"ha":582,"x_min":0,"x_max":0,"o":"m 279 585 b 338 679 317 585 338 628 b 260 779 338 746 313 779 b 260 790 260 779 260 790 b 326 885 311 793 326 829 b 281 958 326 926 313 958 b 232 903 250 958 232 933 b 263 853 232 874 243 853 b 275 856 268 853 271 854 b 278 854 275 856 278 854 b 218 826 269 839 250 826 b 151 889 178 826 151 851 b 281 978 151 947 210 978 b 436 879 368 978 436 943 b 325 789 436 822 388 794 b 451 681 396 783 451 749 b 279 564 451 603 375 564 b 129 663 200 564 129 596 b 206 733 129 708 163 733 b 268 703 240 733 260 719 b 264 701 268 703 264 701 b 253 706 261 704 257 706 b 221 651 232 706 221 683 b 279 585 221 613 244 585 m 28 497 b 535 497 28 497 535 497 b 535 475 535 497 535 475 b 28 475 535 475 28 475 b 28 497 28 475 28 497 m 268 131 b 268 338 268 131 268 338 b 128 131 268 338 128 131 b 268 131 128 131 268 131 m 268 71 b 268 108 268 71 268 108 b 88 108 268 108 88 108 b 88 111 88 108 88 111 b 288 404 88 111 288 404 b 382 404 288 404 382 404 b 382 131 382 404 382 131 b 410 131 382 131 410 131 b 465 167 446 131 449 138 b 471 167 465 167 471 167 b 471 72 471 167 471 72 b 465 72 471 72 465 72 b 410 108 449 101 446 108 b 382 108 410 108 382 108 b 382 71 382 108 382 71 b 414 6 382 33 389 24 b 414 0 414 6 414 0 b 236 0 414 0 236 0 b 236 6 236 0 236 6 b 268 71 261 24 268 33 "},"¿":{"ha":736,"x_min":0,"x_max":0,"o":"m 390 532 b 269 654 322 532 269 586 b 390 776 269 722 322 776 b 513 654 458 776 513 722 b 390 532 513 586 458 532 m 386 -194 b 554 -42 488 -194 554 -125 b 461 67 554 21 518 67 b 415 54 450 67 429 63 b 413 56 415 54 413 56 b 550 150 433 114 481 150 b 700 -1 632 150 700 93 b 386 -221 700 -131 569 -221 b 36 51 174 -221 36 -107 b 378 381 36 226 199 346 b 378 456 378 381 378 456 b 406 456 378 456 406 456 b 406 210 406 456 406 210 b 206 -17 281 176 206 106 b 386 -194 206 -110 268 -194 "},"À":{"ha":1010,"x_min":0,"x_max":0,"o":"m 506 1285 b 578 1029 513 1196 528 1110 b 571 1029 578 1029 571 1029 b 296 1285 440 1101 351 1185 b 506 1285 296 1285 506 1285 m 413 715 b 249 340 413 715 249 340 b 585 340 249 340 585 340 b 413 715 585 340 413 715 m 232 3 b 232 0 232 3 232 0 b -1 0 232 0 -1 0 b -1 3 -1 0 -1 3 b 129 176 51 33 89 89 b 499 986 129 176 499 986 b 504 986 499 986 504 986 b 897 156 504 986 897 156 b 1010 3 939 68 960 33 b 1010 0 1010 3 1010 0 b 629 0 1010 0 629 0 b 629 3 629 0 629 3 b 690 79 669 24 690 46 b 668 160 690 104 682 129 b 603 301 668 160 603 301 b 231 301 603 301 231 301 b 181 186 231 301 181 186 b 160 103 168 160 160 132 b 232 3 160 60 186 24 "},"Á":{"ha":1010,"x_min":0,"x_max":0,"o":"m 474 1285 b 683 1285 474 1285 683 1285 b 407 1029 626 1185 539 1101 b 401 1029 407 1029 401 1029 b 474 1285 450 1110 467 1196 m 413 715 b 249 340 413 715 249 340 b 585 340 249 340 585 340 b 413 715 585 340 413 715 m 232 3 b 232 0 232 3 232 0 b -1 0 232 0 -1 0 b -1 3 -1 0 -1 3 b 129 176 51 33 89 89 b 499 986 129 176 499 986 b 504 986 499 986 504 986 b 897 156 504 986 897 156 b 1010 3 939 68 960 33 b 1010 0 1010 3 1010 0 b 629 0 1010 0 629 0 b 629 3 629 0 629 3 b 690 79 669 24 690 46 b 668 160 690 104 682 129 b 603 301 668 160 603 301 b 231 301 603 301 231 301 b 181 186 231 301 181 186 b 160 103 168 160 160 132 b 232 3 160 60 186 24 "},"Â":{"ha":1010,"x_min":0,"x_max":0,"o":"m 721 1018 b 499 1133 636 1049 554 1175 b 276 1018 443 1092 361 1049 b 263 1018 276 1018 263 1018 b 496 1318 351 1103 453 1226 b 501 1318 496 1318 501 1318 b 735 1018 544 1226 646 1103 b 721 1018 735 1018 721 1018 m 413 715 b 249 340 413 715 249 340 b 585 340 249 340 585 340 b 413 715 585 340 413 715 m 232 3 b 232 0 232 3 232 0 b -1 0 232 0 -1 0 b -1 3 -1 0 -1 3 b 129 176 51 33 89 89 b 499 986 129 176 499 986 b 504 986 499 986 504 986 b 897 156 504 986 897 156 b 1010 3 939 68 960 33 b 1010 0 1010 3 1010 0 b 629 0 1010 0 629 0 b 629 3 629 0 629 3 b 690 79 669 24 690 46 b 668 160 690 104 682 129 b 603 301 668 160 603 301 b 231 301 603 301 231 301 b 181 186 231 301 181 186 b 160 103 168 160 160 132 b 232 3 160 60 186 24 "},"Ã":{"ha":1010,"x_min":0,"x_max":0,"o":"m 765 1279 b 604 1060 744 1143 686 1060 b 383 1138 518 1060 456 1138 b 264 1050 329 1138 289 1107 b 254 1050 264 1050 254 1050 b 415 1269 275 1186 333 1269 b 636 1192 501 1269 564 1192 b 756 1279 690 1192 731 1222 b 765 1279 756 1279 765 1279 m 413 715 b 249 340 413 715 249 340 b 585 340 249 340 585 340 b 413 715 585 340 413 715 m 232 3 b 232 0 232 3 232 0 b -1 0 232 0 -1 0 b -1 3 -1 0 -1 3 b 129 176 51 33 89 89 b 499 986 129 176 499 986 b 504 986 499 986 504 986 b 897 156 504 986 897 156 b 1010 3 939 68 960 33 b 1010 0 1010 3 1010 0 b 629 0 1010 0 629 0 b 629 3 629 0 629 3 b 690 79 669 24 690 46 b 668 160 690 104 682 129 b 603 301 668 160 603 301 b 231 301 603 301 231 301 b 181 186 231 301 181 186 b 160 103 168 160 160 132 b 232 3 160 60 186 24 "},"Ä":{"ha":1010,"x_min":0,"x_max":0,"o":"m 360 1049 b 254 1156 300 1049 254 1097 b 360 1264 254 1214 300 1264 b 467 1156 419 1264 467 1214 b 360 1049 467 1097 419 1049 m 636 1049 b 529 1156 578 1049 529 1097 b 636 1264 529 1214 578 1264 b 743 1156 696 1264 743 1214 b 636 1049 743 1097 696 1049 m 413 715 b 249 340 413 715 249 340 b 585 340 249 340 585 340 b 413 715 585 340 413 715 m 232 3 b 232 0 232 3 232 0 b -1 0 232 0 -1 0 b -1 3 -1 0 -1 3 b 129 176 51 33 89 89 b 499 986 129 176 499 986 b 504 986 499 986 504 986 b 897 156 504 986 897 156 b 1010 3 939 68 960 33 b 1010 0 1010 3 1010 0 b 629 0 1010 0 629 0 b 629 3 629 0 629 3 b 690 79 669 24 690 46 b 668 160 690 104 682 129 b 603 301 668 160 603 301 b 231 301 603 301 231 301 b 181 186 231 301 181 186 b 160 103 168 160 160 132 b 232 3 160 60 186 24 "},"Å":{"ha":1010,"x_min":0,"x_max":0,"o":"m 499 1318 b 643 1176 576 1318 643 1253 b 499 1033 643 1097 576 1033 b 354 1176 421 1033 354 1097 b 499 1318 354 1253 421 1318 m 499 1072 b 604 1176 556 1072 604 1118 b 499 1279 604 1232 556 1279 b 394 1176 442 1279 394 1232 b 499 1072 394 1118 442 1072 m 413 715 b 249 340 413 715 249 340 b 585 340 249 340 585 340 b 413 715 585 340 413 715 m 232 3 b 232 0 232 3 232 0 b -1 0 232 0 -1 0 b -1 3 -1 0 -1 3 b 129 176 51 33 89 89 b 499 986 129 176 499 986 b 504 986 499 986 504 986 b 897 156 504 986 897 156 b 1010 3 939 68 960 33 b 1010 0 1010 3 1010 0 b 629 0 1010 0 629 0 b 629 3 629 0 629 3 b 690 79 669 24 690 46 b 668 160 690 104 682 129 b 603 301 668 160 603 301 b 231 301 603 301 231 301 b 181 186 231 301 181 186 b 160 103 168 160 160 132 b 232 3 160 60 186 24 "},"Æ":{"ha":1482,"x_min":0,"x_max":0,"o":"m 697 931 b 351 407 697 931 351 407 b 697 407 351 407 697 407 b 697 931 697 407 697 931 m 233 3 b 233 0 233 3 233 0 b 0 0 233 0 0 0 b 0 3 0 0 0 3 b 133 154 51 33 81 75 b 593 847 133 154 593 847 b 607 892 603 864 607 878 b 533 969 607 921 583 940 b 533 972 533 969 533 972 b 1282 972 533 972 1282 972 b 1367 983 1319 972 1349 975 b 1414 725 1367 983 1414 725 b 1411 725 1414 725 1411 725 b 1093 936 1335 861 1260 936 b 907 936 1093 936 907 936 b 907 518 907 936 907 518 b 1060 518 907 518 1060 518 b 1258 675 1172 518 1214 546 b 1261 675 1258 675 1261 675 b 1261 335 1261 675 1261 335 b 1258 335 1261 335 1258 335 b 1060 479 1214 463 1172 479 b 907 479 1060 479 907 479 b 907 36 907 479 907 36 b 1118 36 907 36 1118 36 b 1449 272 1290 36 1371 131 b 1451 272 1449 272 1451 272 b 1407 0 1451 272 1407 0 b 621 0 1407 0 621 0 b 621 3 621 0 621 3 b 697 172 685 39 697 81 b 697 368 697 172 697 368 b 325 368 697 368 325 368 b 199 176 325 368 199 176 b 168 89 178 144 168 117 b 233 3 168 50 189 21 "},"Ç":{"ha":949,"x_min":0,"x_max":0,"o":"m 507 -310 b 342 -214 422 -310 361 -264 b 353 -203 342 -214 353 -203 b 456 -262 378 -243 414 -262 b 529 -186 500 -262 529 -233 b 417 -106 529 -126 486 -108 b 471 -12 417 -106 471 -12 b 42 478 222 10 42 200 b 554 986 42 775 272 986 b 790 942 675 986 746 942 b 881 986 832 942 856 963 b 890 665 881 986 890 665 b 888 665 890 665 888 665 b 571 954 824 835 715 954 b 269 515 378 954 269 761 b 607 93 269 247 424 93 b 908 286 740 93 843 142 b 917 283 908 286 917 283 b 518 -14 875 101 731 -14 b 494 -14 518 -14 494 -14 b 460 -78 494 -14 460 -78 b 667 -192 578 -74 667 -111 b 507 -310 667 -268 592 -310 "},"È":{"ha":908,"x_min":0,"x_max":0,"o":"m 478 1285 b 550 1029 485 1196 500 1110 b 543 1029 550 1029 543 1029 b 268 1285 413 1101 324 1185 b 478 1285 268 1285 478 1285 m 46 972 b 707 972 46 972 707 972 b 793 983 746 972 775 975 b 840 725 793 983 840 725 b 838 725 840 725 838 725 b 519 936 760 861 686 936 b 332 936 519 936 332 936 b 332 518 332 936 332 518 b 486 518 332 518 486 518 b 685 675 599 518 639 546 b 688 675 685 675 688 675 b 688 335 688 675 688 335 b 685 335 688 335 685 335 b 486 479 639 463 599 479 b 332 479 486 479 332 479 b 332 36 332 479 332 36 b 543 36 332 36 543 36 b 875 272 717 36 797 131 b 878 272 875 272 878 272 b 833 0 878 272 833 0 b 46 0 833 0 46 0 b 46 3 46 0 46 3 b 124 172 110 39 124 81 b 124 800 124 172 124 800 b 46 969 124 892 110 933 b 46 972 46 969 46 972 "},"É":{"ha":908,"x_min":0,"x_max":0,"o":"m 446 1285 b 656 1285 446 1285 656 1285 b 379 1029 599 1185 511 1101 b 374 1029 379 1029 374 1029 b 446 1285 422 1110 439 1196 m 46 972 b 707 972 46 972 707 972 b 793 983 746 972 775 975 b 840 725 793 983 840 725 b 838 725 840 725 838 725 b 519 936 760 861 686 936 b 332 936 519 936 332 936 b 332 518 332 936 332 518 b 486 518 332 518 486 518 b 685 675 599 518 639 546 b 688 675 685 675 688 675 b 688 335 688 675 688 335 b 685 335 688 335 685 335 b 486 479 639 463 599 479 b 332 479 486 479 332 479 b 332 36 332 479 332 36 b 543 36 332 36 543 36 b 875 272 717 36 797 131 b 878 272 875 272 878 272 b 833 0 878 272 833 0 b 46 0 833 0 46 0 b 46 3 46 0 46 3 b 124 172 110 39 124 81 b 124 800 124 172 124 800 b 46 969 124 892 110 933 b 46 972 46 969 46 972 "},"Ê":{"ha":908,"x_min":0,"x_max":0,"o":"m 686 1018 b 464 1133 601 1049 519 1175 b 242 1018 408 1092 326 1049 b 228 1018 242 1018 228 1018 b 461 1318 317 1103 418 1226 b 467 1318 461 1318 467 1318 b 700 1018 510 1226 611 1103 b 686 1018 700 1018 686 1018 m 46 972 b 707 972 46 972 707 972 b 793 983 746 972 775 975 b 840 725 793 983 840 725 b 838 725 840 725 838 725 b 519 936 760 861 686 936 b 332 936 519 936 332 936 b 332 518 332 936 332 518 b 486 518 332 518 486 518 b 685 675 599 518 639 546 b 688 675 685 675 688 675 b 688 335 688 675 688 335 b 685 335 688 335 685 335 b 486 479 639 463 599 479 b 332 479 486 479 332 479 b 332 36 332 479 332 36 b 543 36 332 36 543 36 b 875 272 717 36 797 131 b 878 272 875 272 878 272 b 833 0 878 272 833 0 b 46 0 833 0 46 0 b 46 3 46 0 46 3 b 124 172 110 39 124 81 b 124 800 124 172 124 800 b 46 969 124 892 110 933 b 46 972 46 969 46 972 "},"Ë":{"ha":908,"x_min":0,"x_max":0,"o":"m 326 1049 b 221 1156 267 1049 221 1097 b 326 1264 221 1214 267 1264 b 433 1156 386 1264 433 1214 b 326 1049 433 1097 386 1049 m 603 1049 b 496 1156 544 1049 496 1097 b 603 1264 496 1214 544 1264 b 710 1156 663 1264 710 1214 b 603 1049 710 1097 663 1049 m 46 972 b 707 972 46 972 707 972 b 793 983 746 972 775 975 b 840 725 793 983 840 725 b 838 725 840 725 838 725 b 519 936 760 861 686 936 b 332 936 519 936 332 936 b 332 518 332 936 332 518 b 486 518 332 518 486 518 b 685 675 599 518 639 546 b 688 675 685 675 688 675 b 688 335 688 675 688 335 b 685 335 688 335 685 335 b 486 479 639 463 599 479 b 332 479 486 479 332 479 b 332 36 332 479 332 36 b 543 36 332 36 543 36 b 875 272 717 36 797 131 b 878 272 875 272 878 272 b 833 0 878 272 833 0 b 46 0 833 0 46 0 b 46 3 46 0 46 3 b 124 172 110 39 124 81 b 124 800 124 172 124 800 b 46 969 124 892 110 933 b 46 972 46 969 46 972 "},"Ì":{"ha":456,"x_min":0,"x_max":0,"o":"m 235 1285 b 307 1029 242 1196 257 1110 b 300 1029 307 1029 300 1029 b 25 1285 169 1101 81 1185 b 235 1285 25 1285 235 1285 m 332 172 b 410 3 332 81 346 39 b 410 0 410 3 410 0 b 46 0 410 0 46 0 b 46 3 46 0 46 3 b 124 172 110 39 124 81 b 124 800 124 172 124 800 b 46 969 124 892 110 933 b 46 972 46 969 46 972 b 410 972 46 972 410 972 b 410 969 410 972 410 969 b 332 800 346 933 332 892 b 332 172 332 800 332 172 "},"Í":{"ha":456,"x_min":0,"x_max":0,"o":"m 204 1285 b 414 1285 204 1285 414 1285 b 138 1029 357 1185 269 1101 b 132 1029 138 1029 132 1029 b 204 1285 181 1110 197 1196 m 332 172 b 410 3 332 81 346 39 b 410 0 410 3 410 0 b 46 0 410 0 46 0 b 46 3 46 0 46 3 b 124 172 110 39 124 81 b 124 800 124 172 124 800 b 46 969 124 892 110 933 b 46 972 46 969 46 972 b 410 972 46 972 410 972 b 410 969 410 972 410 969 b 332 800 346 933 332 892 b 332 172 332 800 332 172 "},"Î":{"ha":456,"x_min":0,"x_max":0,"o":"m 450 1018 b 228 1133 365 1049 283 1175 b 6 1018 172 1092 90 1049 b -8 1018 6 1018 -8 1018 b 225 1318 81 1103 182 1226 b 231 1318 225 1318 231 1318 b 464 1018 274 1226 375 1103 b 450 1018 464 1018 450 1018 m 332 172 b 410 3 332 81 346 39 b 410 0 410 3 410 0 b 46 0 410 0 46 0 b 46 3 46 0 46 3 b 124 172 110 39 124 81 b 124 800 124 172 124 800 b 46 969 124 892 110 933 b 46 972 46 969 46 972 b 410 972 46 972 410 972 b 410 969 410 972 410 969 b 332 800 346 933 332 892 b 332 172 332 800 332 172 "},"Ï":{"ha":456,"x_min":0,"x_max":0,"o":"m 89 1049 b -17 1156 29 1049 -17 1097 b 89 1264 -17 1214 29 1264 b 196 1156 149 1264 196 1214 b 89 1049 196 1097 149 1049 m 365 1049 b 258 1156 307 1049 258 1097 b 365 1264 258 1214 307 1264 b 472 1156 425 1264 472 1214 b 365 1049 472 1097 425 1049 m 332 172 b 410 3 332 81 346 39 b 410 0 410 3 410 0 b 46 0 410 0 46 0 b 46 3 46 0 46 3 b 124 172 110 39 124 81 b 124 800 124 172 124 800 b 46 969 124 892 110 933 b 46 972 46 969 46 972 b 410 972 46 972 410 972 b 410 969 410 972 410 969 b 332 800 346 933 332 892 b 332 172 332 800 332 172 "},"Ð":{"ha":1056,"x_min":0,"x_max":0,"o":"m 451 0 b 46 0 451 0 46 0 b 46 3 46 0 46 3 b 124 172 110 39 124 81 b 124 479 124 172 124 479 b 46 479 124 479 46 479 b 46 519 46 479 46 519 b 124 519 46 519 124 519 b 124 800 124 519 124 800 b 46 969 124 892 110 933 b 46 972 46 969 46 972 b 432 972 46 972 432 972 b 1014 493 772 972 1014 814 b 451 0 1014 157 767 0 m 332 36 b 432 36 332 36 432 36 b 789 493 644 36 789 182 b 419 936 789 776 646 936 b 332 936 419 936 332 936 b 332 519 332 936 332 519 b 508 519 332 519 508 519 b 508 479 508 519 508 479 b 332 479 508 479 332 479 b 332 36 332 479 332 36 "},"Ñ":{"ha":1011,"x_min":0,"x_max":0,"o":"m 779 1279 b 618 1060 758 1143 700 1060 b 397 1138 532 1060 469 1138 b 278 1050 343 1138 303 1107 b 268 1050 278 1050 268 1050 b 429 1269 289 1186 347 1269 b 650 1192 515 1269 578 1192 b 769 1279 704 1192 744 1222 b 779 1279 769 1279 779 1279 m 999 969 b 894 767 928 933 894 871 b 894 -7 894 767 894 -7 b 856 -7 894 -7 856 -7 b 165 856 856 -7 165 856 b 165 211 165 856 165 211 b 276 3 165 101 200 36 b 276 0 276 3 276 0 b 19 0 276 0 19 0 b 19 3 19 0 19 3 b 124 206 89 39 124 101 b 124 800 124 206 124 800 b 46 969 124 892 110 933 b 46 972 46 969 46 972 b 344 972 46 972 344 972 b 853 332 344 972 853 332 b 853 761 853 332 853 761 b 742 969 853 871 818 936 b 742 972 742 969 742 972 b 999 972 742 972 999 972 b 999 969 999 972 999 969 "},"Ò":{"ha":1064,"x_min":0,"x_max":0,"o":"m 539 1285 b 611 1029 546 1196 561 1110 b 604 1029 611 1029 604 1029 b 329 1285 474 1101 385 1185 b 539 1285 329 1285 539 1285 m 1022 486 b 532 -14 1022 194 808 -14 b 42 486 256 -14 42 194 b 532 986 42 778 256 986 b 1022 486 808 986 1022 778 m 792 486 b 532 957 792 776 714 957 b 272 486 350 957 272 776 b 532 15 272 196 350 15 b 792 486 714 15 792 196 "},"Ó":{"ha":1064,"x_min":0,"x_max":0,"o":"m 508 1285 b 718 1285 508 1285 718 1285 b 442 1029 661 1185 574 1101 b 436 1029 442 1029 436 1029 b 508 1285 485 1110 501 1196 m 1022 486 b 532 -14 1022 194 808 -14 b 42 486 256 -14 42 194 b 532 986 42 778 256 986 b 1022 486 808 986 1022 778 m 792 486 b 532 957 792 776 714 957 b 272 486 350 957 272 776 b 532 15 272 196 350 15 b 792 486 714 15 792 196 "},"Ô":{"ha":1064,"x_min":0,"x_max":0,"o":"m 754 1018 b 532 1133 669 1049 588 1175 b 310 1018 476 1092 394 1049 b 296 1018 310 1018 296 1018 b 529 1318 385 1103 486 1226 b 535 1318 529 1318 535 1318 b 768 1018 578 1226 679 1103 b 754 1018 768 1018 754 1018 m 1022 486 b 532 -14 1022 194 808 -14 b 42 486 256 -14 42 194 b 532 986 42 778 256 986 b 1022 486 808 986 1022 778 m 792 486 b 532 957 792 776 714 957 b 272 486 350 957 272 776 b 532 15 272 196 350 15 b 792 486 714 15 792 196 "},"Õ":{"ha":1064,"x_min":0,"x_max":0,"o":"m 793 1279 b 632 1060 772 1143 714 1060 b 411 1138 546 1060 483 1138 b 292 1050 357 1138 317 1107 b 282 1050 292 1050 282 1050 b 443 1269 303 1186 361 1269 b 664 1192 529 1269 592 1192 b 783 1279 718 1192 758 1222 b 793 1279 783 1279 793 1279 m 1022 486 b 532 -14 1022 194 808 -14 b 42 486 256 -14 42 194 b 532 986 42 778 256 986 b 1022 486 808 986 1022 778 m 792 486 b 532 957 792 776 714 957 b 272 486 350 957 272 776 b 532 15 272 196 350 15 b 792 486 714 15 792 196 "},"Ö":{"ha":1064,"x_min":0,"x_max":0,"o":"m 393 1049 b 288 1156 333 1049 288 1097 b 393 1264 288 1214 333 1264 b 500 1156 453 1264 500 1214 b 393 1049 500 1097 453 1049 m 669 1049 b 563 1156 611 1049 563 1097 b 669 1264 563 1214 611 1264 b 776 1156 729 1264 776 1214 b 669 1049 776 1097 729 1049 m 1022 486 b 532 -14 1022 194 808 -14 b 42 486 256 -14 42 194 b 532 986 42 778 256 986 b 1022 486 808 986 1022 778 m 792 486 b 532 957 792 776 714 957 b 272 486 350 957 272 776 b 532 15 272 196 350 15 b 792 486 714 15 792 196 "},"×":{"ha":553,"x_min":0,"x_max":0,"o":"m 250 447 b 65 633 250 447 65 633 b 93 661 65 633 93 661 b 276 475 93 661 276 475 b 460 661 276 475 460 661 b 488 633 460 661 488 633 b 303 447 488 633 303 447 b 488 261 303 447 488 261 b 460 235 488 261 460 235 b 276 421 460 235 276 421 b 93 235 276 421 93 235 b 65 261 93 235 65 261 b 250 447 65 261 250 447 "},"Ø":{"ha":1064,"x_min":0,"x_max":0,"o":"m 272 486 b 294 253 272 397 279 319 b 761 753 294 253 761 753 b 532 957 722 882 649 957 b 272 486 350 957 272 776 m 532 15 b 792 486 714 15 792 196 b 771 714 792 572 785 649 b 306 214 771 714 306 214 b 532 15 343 88 417 15 m 532 -14 b 204 107 404 -14 290 31 b 90 -17 204 107 90 -17 b 64 6 90 -17 64 6 b 181 131 64 6 181 131 b 42 486 94 218 42 342 b 532 986 42 778 256 986 b 863 863 661 986 776 940 b 971 978 863 863 971 978 b 997 957 971 978 997 957 b 888 839 997 957 888 839 b 1022 486 971 751 1022 628 b 532 -14 1022 194 808 -14 "},"Ù":{"ha":1014,"x_min":0,"x_max":0,"o":"m 557 1285 b 629 1029 564 1196 579 1110 b 622 1029 629 1029 622 1029 b 347 1285 492 1101 403 1185 b 557 1285 347 1285 557 1285 m 899 767 b 899 375 899 767 899 375 b 519 -14 899 119 744 -14 b 107 378 269 -14 107 118 b 107 800 107 378 107 800 b 29 969 107 892 93 933 b 29 972 29 969 29 972 b 394 972 29 972 394 972 b 394 969 394 972 394 969 b 317 800 331 933 317 892 b 317 385 317 800 317 385 b 574 61 317 181 399 61 b 857 381 736 61 857 174 b 857 761 857 381 857 761 b 746 969 857 871 822 936 b 746 972 746 969 746 972 b 1003 972 746 972 1003 972 b 1003 969 1003 972 1003 969 b 899 767 932 933 899 871 "},"Ú":{"ha":1014,"x_min":0,"x_max":0,"o":"m 525 1285 b 735 1285 525 1285 735 1285 b 458 1029 678 1185 590 1101 b 453 1029 458 1029 453 1029 b 525 1285 501 1110 518 1196 m 899 767 b 899 375 899 767 899 375 b 519 -14 899 119 744 -14 b 107 378 269 -14 107 118 b 107 800 107 378 107 800 b 29 969 107 892 93 933 b 29 972 29 969 29 972 b 394 972 29 972 394 972 b 394 969 394 972 394 969 b 317 800 331 933 317 892 b 317 385 317 800 317 385 b 574 61 317 181 399 61 b 857 381 736 61 857 174 b 857 761 857 381 857 761 b 746 969 857 871 822 936 b 746 972 746 969 746 972 b 1003 972 746 972 1003 972 b 1003 969 1003 972 1003 969 b 899 767 932 933 899 871 "},"Û":{"ha":1014,"x_min":0,"x_max":0,"o":"m 771 1018 b 549 1133 686 1049 604 1175 b 326 1018 493 1092 411 1049 b 313 1018 326 1018 313 1018 b 546 1318 401 1103 503 1226 b 551 1318 546 1318 551 1318 b 785 1018 594 1226 696 1103 b 771 1018 785 1018 771 1018 m 899 767 b 899 375 899 767 899 375 b 519 -14 899 119 744 -14 b 107 378 269 -14 107 118 b 107 800 107 378 107 800 b 29 969 107 892 93 933 b 29 972 29 969 29 972 b 394 972 29 972 394 972 b 394 969 394 972 394 969 b 317 800 331 933 317 892 b 317 385 317 800 317 385 b 574 61 317 181 399 61 b 857 381 736 61 857 174 b 857 761 857 381 857 761 b 746 969 857 871 822 936 b 746 972 746 969 746 972 b 1003 972 746 972 1003 972 b 1003 969 1003 972 1003 969 b 899 767 932 933 899 871 "},"Ü":{"ha":1014,"x_min":0,"x_max":0,"o":"m 410 1049 b 304 1156 350 1049 304 1097 b 410 1264 304 1214 350 1264 b 517 1156 469 1264 517 1214 b 410 1049 517 1097 469 1049 m 686 1049 b 579 1156 628 1049 579 1097 b 686 1264 579 1214 628 1264 b 793 1156 746 1264 793 1214 b 686 1049 793 1097 746 1049 m 899 767 b 899 375 899 767 899 375 b 519 -14 899 119 744 -14 b 107 378 269 -14 107 118 b 107 800 107 378 107 800 b 29 969 107 892 93 933 b 29 972 29 969 29 972 b 394 972 29 972 394 972 b 394 969 394 972 394 969 b 317 800 331 933 317 892 b 317 385 317 800 317 385 b 574 61 317 181 399 61 b 857 381 736 61 857 174 b 857 761 857 381 857 761 b 746 969 857 871 822 936 b 746 972 746 969 746 972 b 1003 972 746 972 1003 972 b 1003 969 1003 972 1003 969 b 899 767 932 933 899 871 "},"Ý":{"ha":951,"x_min":0,"x_max":0,"o":"m 483 1285 b 693 1285 483 1285 693 1285 b 417 1029 636 1185 549 1101 b 411 1029 417 1029 411 1029 b 483 1285 460 1110 476 1196 m 560 460 b 772 810 560 460 772 810 b 793 878 786 833 793 856 b 731 969 793 914 774 947 b 731 972 731 969 731 972 b 957 972 731 972 957 972 b 957 969 957 972 957 969 b 824 817 900 931 864 883 b 574 407 824 817 574 407 b 574 165 574 407 574 165 b 654 3 574 74 590 39 b 654 0 654 3 654 0 b 292 0 654 0 292 0 b 292 3 292 0 292 3 b 374 165 356 39 374 74 b 374 407 374 165 374 407 b 118 825 374 407 118 825 b -6 969 78 892 49 929 b -6 972 -6 969 -6 972 b 374 972 -6 972 374 972 b 374 969 374 972 374 969 b 322 890 339 946 322 925 b 343 826 322 872 328 851 b 560 460 343 826 560 460 "},"Þ":{"ha":913,"x_min":0,"x_max":0,"o":"m 332 800 b 332 779 332 800 332 779 b 518 779 332 779 518 779 b 893 494 743 779 893 681 b 519 210 893 308 743 210 b 332 210 519 210 332 210 b 332 165 332 210 332 165 b 442 3 332 76 351 42 b 442 0 442 3 442 0 b 46 0 442 0 46 0 b 46 3 46 0 46 3 b 124 172 110 39 124 81 b 124 800 124 172 124 800 b 46 969 124 892 110 933 b 46 972 46 969 46 972 b 410 972 46 972 410 972 b 410 969 410 972 410 969 b 332 800 346 933 332 892 m 332 247 b 453 247 332 247 453 247 b 686 494 613 247 686 347 b 453 743 686 642 613 743 b 332 743 453 743 332 743 b 332 247 332 743 332 247 "},"ß":{"ha":933,"x_min":0,"x_max":0,"o":"m 306 781 b 306 0 306 781 306 0 b 36 0 306 0 36 0 b 36 3 36 0 36 3 b 106 151 99 38 106 60 b 106 647 106 151 106 647 b 19 647 106 647 19 647 b 19 660 19 647 19 660 b 106 690 19 660 106 690 b 106 724 106 690 106 724 b 483 1049 106 956 275 1049 b 760 875 649 1049 760 985 b 592 689 760 779 678 733 b 508 593 535 654 508 632 b 703 451 508 543 554 517 b 907 207 843 389 907 321 b 647 -14 907 75 799 -14 b 475 18 551 -14 522 18 b 408 -14 443 18 426 3 b 393 240 408 -14 393 240 b 396 240 393 240 396 240 b 647 11 475 79 549 11 b 767 124 719 11 767 58 b 610 276 767 196 715 231 b 413 490 458 338 413 394 b 544 692 413 575 467 628 b 646 874 607 746 646 793 b 483 1026 646 963 590 1026 b 306 781 371 1026 306 938 "},"à":{"ha":760,"x_min":0,"x_max":0,"o":"m 374 1040 b 451 765 379 946 401 853 b 444 765 451 765 444 765 b 171 1040 314 844 226 935 b 374 1040 171 1040 374 1040 m 782 53 b 782 50 782 53 782 50 b 631 -12 751 14 693 -12 b 471 111 532 -12 482 36 b 468 158 471 117 468 149 b 242 -10 449 64 358 -10 b 39 164 132 -10 39 46 b 361 379 39 317 194 349 b 467 399 361 379 467 399 b 467 513 467 399 467 513 b 339 671 467 596 432 671 b 224 563 260 671 224 622 b 289 482 224 511 249 482 b 313 486 297 482 304 483 b 192 411 293 436 249 411 b 71 522 124 411 71 454 b 343 697 71 622 182 697 b 667 457 553 697 667 628 b 664 176 667 357 664 269 b 747 44 664 90 682 44 b 782 53 758 44 772 47 m 467 374 b 394 358 467 374 394 358 b 239 192 286 336 239 285 b 333 72 239 113 275 72 b 464 239 407 72 463 140 b 467 374 464 239 467 374 "},"á":{"ha":760,"x_min":0,"x_max":0,"o":"m 353 1040 b 557 1040 353 1040 557 1040 b 282 765 501 935 413 844 b 276 765 282 765 276 765 b 353 1040 325 853 347 946 m 782 53 b 782 50 782 53 782 50 b 631 -12 751 14 693 -12 b 471 111 532 -12 482 36 b 468 158 471 117 468 149 b 242 -10 449 64 358 -10 b 39 164 132 -10 39 46 b 361 379 39 317 194 349 b 467 399 361 379 467 399 b 467 513 467 399 467 513 b 339 671 467 596 432 671 b 224 563 260 671 224 622 b 289 482 224 511 249 482 b 313 486 297 482 304 483 b 192 411 293 436 249 411 b 71 522 124 411 71 454 b 343 697 71 622 182 697 b 667 457 553 697 667 628 b 664 176 667 357 664 269 b 747 44 664 90 682 44 b 782 53 758 44 772 47 m 467 374 b 394 358 467 374 394 358 b 239 192 286 336 239 285 b 333 72 239 113 275 72 b 464 239 407 72 463 140 b 467 374 464 239 467 374 "},"â":{"ha":760,"x_min":0,"x_max":0,"o":"m 597 751 b 375 876 513 783 431 921 b 153 751 319 832 238 783 b 139 751 153 751 139 751 b 372 1064 228 839 329 968 b 378 1064 372 1064 378 1064 b 611 751 421 968 522 839 b 597 751 611 751 597 751 m 782 53 b 782 50 782 53 782 50 b 631 -12 751 14 693 -12 b 471 111 532 -12 482 36 b 468 158 471 117 468 149 b 242 -10 449 64 358 -10 b 39 164 132 -10 39 46 b 361 379 39 317 194 349 b 467 399 361 379 467 399 b 467 513 467 399 467 513 b 339 671 467 596 432 671 b 224 563 260 671 224 622 b 289 482 224 511 249 482 b 313 486 297 482 304 483 b 192 411 293 436 249 411 b 71 522 124 411 71 454 b 343 697 71 622 182 697 b 667 457 553 697 667 628 b 664 176 667 357 664 269 b 747 44 664 90 682 44 b 782 53 758 44 772 47 m 467 374 b 394 358 467 374 394 358 b 239 192 286 336 239 285 b 333 72 239 113 275 72 b 464 239 407 72 463 140 b 467 374 464 239 467 374 "},"ã":{"ha":760,"x_min":0,"x_max":0,"o":"m 635 1015 b 474 796 614 879 556 796 b 253 874 388 796 325 874 b 133 786 199 874 158 843 b 124 786 133 786 124 786 b 285 1006 144 922 203 1006 b 506 928 371 1006 433 928 b 625 1015 560 928 600 958 b 635 1015 625 1015 635 1015 m 782 53 b 782 50 782 53 782 50 b 631 -12 751 14 693 -12 b 471 111 532 -12 482 36 b 468 158 471 117 468 149 b 242 -10 449 64 358 -10 b 39 164 132 -10 39 46 b 361 379 39 317 194 349 b 467 399 361 379 467 399 b 467 513 467 399 467 513 b 339 671 467 596 432 671 b 224 563 260 671 224 622 b 289 482 224 511 249 482 b 313 486 297 482 304 483 b 192 411 293 436 249 411 b 71 522 124 411 71 454 b 343 697 71 622 182 697 b 667 457 553 697 667 628 b 664 176 667 357 664 269 b 747 44 664 90 682 44 b 782 53 758 44 772 47 m 467 374 b 394 358 467 374 394 358 b 239 192 286 336 239 285 b 333 72 239 113 275 72 b 464 239 407 72 463 140 b 467 374 464 239 467 374 "},"ä":{"ha":760,"x_min":0,"x_max":0,"o":"m 236 783 b 131 890 176 783 131 832 b 236 999 131 949 176 999 b 343 890 296 999 343 949 b 236 783 343 832 296 783 m 513 783 b 406 890 454 783 406 832 b 513 999 406 949 454 999 b 619 890 572 999 619 949 b 513 783 619 832 572 783 m 782 53 b 782 50 782 53 782 50 b 631 -12 751 14 693 -12 b 471 111 532 -12 482 36 b 468 158 471 117 468 149 b 242 -10 449 64 358 -10 b 39 164 132 -10 39 46 b 361 379 39 317 194 349 b 467 399 361 379 467 399 b 467 513 467 399 467 513 b 339 671 467 596 432 671 b 224 563 260 671 224 622 b 289 482 224 511 249 482 b 313 486 297 482 304 483 b 192 411 293 436 249 411 b 71 522 124 411 71 454 b 343 697 71 622 182 697 b 667 457 553 697 667 628 b 664 176 667 357 664 269 b 747 44 664 90 682 44 b 782 53 758 44 772 47 m 467 374 b 394 358 467 374 394 358 b 239 192 286 336 239 285 b 333 72 239 113 275 72 b 464 239 407 72 463 140 b 467 374 464 239 467 374 "},"å":{"ha":760,"x_min":0,"x_max":0,"o":"m 375 1054 b 519 913 453 1054 519 989 b 375 769 519 833 453 769 b 231 913 297 769 231 833 b 375 1054 231 989 297 1054 m 375 808 b 481 913 432 808 481 854 b 375 1015 481 968 432 1015 b 271 913 318 1015 271 968 b 375 808 271 854 318 808 m 782 53 b 782 50 782 53 782 50 b 631 -12 751 14 693 -12 b 471 111 532 -12 482 36 b 468 158 471 117 468 149 b 242 -10 449 64 358 -10 b 39 164 132 -10 39 46 b 361 379 39 317 194 349 b 467 399 361 379 467 399 b 467 513 467 399 467 513 b 339 671 467 596 432 671 b 224 563 260 671 224 622 b 289 482 224 511 249 482 b 313 486 297 482 304 483 b 192 411 293 436 249 411 b 71 522 124 411 71 454 b 343 697 71 622 182 697 b 667 457 553 697 667 628 b 664 176 667 357 664 269 b 747 44 664 90 682 44 b 782 53 758 44 772 47 m 467 374 b 394 358 467 374 394 358 b 239 192 286 336 239 285 b 333 72 239 113 275 72 b 464 239 407 72 463 140 b 467 374 464 239 467 374 "},"æ":{"ha":1154,"x_min":0,"x_max":0,"o":"m 1119 218 b 810 -14 1085 71 965 -14 b 496 178 672 -14 551 54 b 242 -10 467 86 382 -10 b 39 164 132 -10 39 46 b 361 375 39 317 194 344 b 467 394 361 375 467 394 b 467 513 467 394 467 513 b 339 671 467 596 432 671 b 224 563 260 671 224 622 b 289 482 224 511 249 482 b 313 486 297 482 304 483 b 192 411 293 436 249 411 b 71 522 124 411 71 454 b 343 697 71 622 182 697 b 569 593 458 697 532 658 b 810 697 631 657 717 697 b 1122 371 1024 697 1122 557 b 664 371 1122 371 664 371 b 897 81 664 194 754 81 b 1110 222 989 81 1068 125 b 1119 218 1110 222 1119 218 m 665 400 b 925 400 665 400 925 400 b 808 671 925 550 907 671 b 665 400 726 671 669 564 m 467 369 b 394 354 467 369 394 354 b 239 192 286 332 239 285 b 333 72 239 113 275 72 b 467 247 413 72 467 140 b 467 369 467 247 467 369 "},"ç":{"ha":699,"x_min":0,"x_max":0,"o":"m 375 -310 b 210 -214 290 -310 229 -264 b 221 -203 210 -214 221 -203 b 324 -262 246 -243 282 -262 b 397 -186 368 -262 397 -233 b 285 -106 397 -126 354 -108 b 339 -12 285 -106 339 -12 b 33 328 175 6 33 128 b 414 697 33 560 204 697 b 669 521 564 697 669 625 b 549 403 669 444 613 403 b 442 478 486 403 444 439 b 468 472 450 474 461 472 b 536 561 514 472 536 510 b 415 671 536 625 499 671 b 244 374 306 671 244 543 b 465 81 244 185 335 81 b 675 222 556 81 633 125 b 683 218 675 222 683 218 b 378 -14 650 71 531 -14 b 363 -14 378 -14 363 -14 b 328 -78 363 -14 328 -78 b 535 -192 446 -74 535 -111 b 375 -310 535 -268 460 -310 "},"è":{"ha":728,"x_min":0,"x_max":0,"o":"m 388 1040 b 465 765 393 946 415 853 b 458 765 465 765 458 765 b 185 1040 328 844 240 935 b 388 1040 185 1040 388 1040 m 382 697 b 694 371 596 697 694 557 b 236 371 694 371 236 371 b 469 81 236 194 328 81 b 683 222 561 81 642 125 b 692 218 683 222 692 218 b 383 -14 657 71 539 -14 b 33 340 192 -14 33 115 b 382 697 33 556 193 697 m 238 400 b 497 400 238 400 497 400 b 381 671 497 550 481 671 b 238 400 299 671 243 564 "},"é":{"ha":728,"x_min":0,"x_max":0,"o":"m 367 1040 b 571 1040 367 1040 571 1040 b 296 765 515 935 426 844 b 290 765 296 765 290 765 b 367 1040 339 853 361 946 m 382 697 b 694 371 596 697 694 557 b 236 371 694 371 236 371 b 469 81 236 194 328 81 b 683 222 561 81 642 125 b 692 218 683 222 692 218 b 383 -14 657 71 539 -14 b 33 340 192 -14 33 115 b 382 697 33 556 193 697 m 238 400 b 497 400 238 400 497 400 b 381 671 497 550 481 671 b 238 400 299 671 243 564 "},"ê":{"ha":728,"x_min":0,"x_max":0,"o":"m 611 751 b 389 876 526 783 444 921 b 167 751 333 832 251 783 b 153 751 167 751 153 751 b 386 1064 242 839 343 968 b 392 1064 386 1064 392 1064 b 625 751 435 968 536 839 b 611 751 625 751 611 751 m 382 697 b 694 371 596 697 694 557 b 236 371 694 371 236 371 b 469 81 236 194 328 81 b 683 222 561 81 642 125 b 692 218 683 222 692 218 b 383 -14 657 71 539 -14 b 33 340 192 -14 33 115 b 382 697 33 556 193 697 m 238 400 b 497 400 238 400 497 400 b 381 671 497 550 481 671 b 238 400 299 671 243 564 "},"ë":{"ha":728,"x_min":0,"x_max":0,"o":"m 250 783 b 144 890 190 783 144 832 b 250 999 144 949 190 999 b 357 890 310 999 357 949 b 250 783 357 832 310 783 m 526 783 b 419 890 468 783 419 832 b 526 999 419 949 468 999 b 633 890 586 999 633 949 b 526 783 633 832 586 783 m 382 697 b 694 371 596 697 694 557 b 236 371 694 371 236 371 b 469 81 236 194 328 81 b 683 222 561 81 642 125 b 692 218 683 222 692 218 b 383 -14 657 71 539 -14 b 33 340 192 -14 33 115 b 382 697 33 556 193 697 m 238 400 b 497 400 238 400 497 400 b 381 671 497 550 481 671 b 238 400 299 671 243 564 "},"ì":{"ha":403,"x_min":0,"x_max":0,"o":"m 199 1040 b 276 765 204 946 226 853 b 269 765 276 765 269 765 b -4 1040 139 844 51 935 b 199 1040 -4 1040 199 1040 m 306 683 b 306 151 306 683 306 151 b 376 3 306 60 314 38 b 376 0 376 3 376 0 b 36 0 376 0 36 0 b 36 3 36 0 36 3 b 106 151 99 38 106 60 b 106 529 106 151 106 529 b 28 681 106 618 93 646 b 28 683 28 681 28 683 b 306 683 28 683 306 683 "},"í":{"ha":403,"x_min":0,"x_max":0,"o":"m 178 1040 b 382 1040 178 1040 382 1040 b 107 765 326 935 238 844 b 101 765 107 765 101 765 b 178 1040 150 853 172 946 m 306 683 b 306 151 306 683 306 151 b 376 3 306 60 314 38 b 376 0 376 3 376 0 b 36 0 376 0 36 0 b 36 3 36 0 36 3 b 106 151 99 38 106 60 b 106 529 106 151 106 529 b 28 681 106 618 93 646 b 28 683 28 681 28 683 b 306 683 28 683 306 683 "},"î":{"ha":403,"x_min":0,"x_max":0,"o":"m 424 751 b 201 876 339 783 257 921 b -21 751 146 832 64 783 b -35 751 -21 751 -35 751 b 199 1064 54 839 156 968 b 204 1064 199 1064 204 1064 b 438 751 247 968 349 839 b 424 751 438 751 424 751 m 306 683 b 306 151 306 683 306 151 b 376 3 306 60 314 38 b 376 0 376 3 376 0 b 36 0 376 0 36 0 b 36 3 36 0 36 3 b 106 151 99 38 106 60 b 106 529 106 151 106 529 b 28 681 106 618 93 646 b 28 683 28 681 28 683 b 306 683 28 683 306 683 "},"ï":{"ha":403,"x_min":0,"x_max":0,"o":"m 63 783 b -43 890 3 783 -43 832 b 63 999 -43 949 3 999 b 169 890 122 999 169 949 b 63 783 169 832 122 783 m 339 783 b 232 890 281 783 232 832 b 339 999 232 949 281 999 b 446 890 399 999 446 949 b 339 783 446 832 399 783 m 306 683 b 306 151 306 683 306 151 b 376 3 306 60 314 38 b 376 0 376 3 376 0 b 36 0 376 0 36 0 b 36 3 36 0 36 3 b 106 151 99 38 106 60 b 106 529 106 151 106 529 b 28 681 106 618 93 646 b 28 683 28 681 28 683 b 306 683 28 683 306 683 "},"ð":{"ha":797,"x_min":0,"x_max":0,"o":"m 399 -14 b 33 342 196 -14 33 129 b 397 697 33 554 196 697 b 533 642 443 697 504 678 b 424 876 524 717 486 803 b 221 792 424 876 221 792 b 207 825 221 792 207 825 b 397 904 207 825 397 904 b 160 1040 338 965 258 1015 b 161 1054 160 1040 161 1054 b 479 939 281 1039 389 1000 b 629 1001 479 939 629 1001 b 643 968 629 1001 643 968 b 514 914 643 968 514 914 b 764 390 668 799 764 618 b 399 -14 764 132 601 -14 m 399 11 b 549 342 500 11 549 138 b 399 671 549 546 500 671 b 247 342 296 671 247 546 b 399 11 247 138 296 11 "},"ñ":{"ha":863,"x_min":0,"x_max":0,"o":"m 703 1015 b 542 796 682 879 624 796 b 321 874 456 796 393 874 b 201 786 267 874 226 843 b 192 786 201 786 192 786 b 353 1006 213 922 271 1006 b 574 928 439 1006 501 928 b 693 1015 628 928 668 958 b 703 1015 693 1015 703 1015 m 28 683 b 306 683 28 683 306 683 b 306 497 306 683 306 497 b 549 697 342 624 431 697 b 767 456 690 697 767 600 b 767 151 767 456 767 151 b 838 3 767 60 775 38 b 838 0 838 3 838 0 b 497 0 838 0 497 0 b 497 3 497 0 497 3 b 567 151 560 38 567 60 b 567 456 567 151 567 456 b 453 597 567 533 535 597 b 306 383 367 597 306 521 b 306 151 306 383 306 151 b 376 3 306 60 314 38 b 376 0 376 3 376 0 b 36 0 376 0 36 0 b 36 3 36 0 36 3 b 106 151 99 38 106 60 b 106 529 106 151 106 529 b 28 681 106 618 93 646 b 28 683 28 681 28 683 "},"ò":{"ha":799,"x_min":0,"x_max":0,"o":"m 397 1040 b 475 765 403 946 425 853 b 468 765 475 765 468 765 b 194 1040 338 844 250 935 b 397 1040 194 1040 397 1040 m 399 -14 b 33 342 194 -14 33 131 b 399 697 33 553 194 697 b 765 342 604 697 765 553 b 399 -14 765 131 604 -14 m 399 11 b 550 342 501 11 550 138 b 399 671 550 546 501 671 b 249 342 297 671 249 546 b 399 11 249 138 297 11 "},"ó":{"ha":799,"x_min":0,"x_max":0,"o":"m 376 1040 b 581 1040 376 1040 581 1040 b 306 765 525 935 436 844 b 300 765 306 765 300 765 b 376 1040 349 853 371 946 m 399 -14 b 33 342 194 -14 33 131 b 399 697 33 553 194 697 b 765 342 604 697 765 553 b 399 -14 765 131 604 -14 m 399 11 b 550 342 501 11 550 138 b 399 671 550 546 501 671 b 249 342 297 671 249 546 b 399 11 249 138 297 11 "},"ô":{"ha":799,"x_min":0,"x_max":0,"o":"m 621 751 b 399 876 536 783 454 921 b 176 751 343 832 261 783 b 163 751 176 751 163 751 b 396 1064 251 839 353 968 b 401 1064 396 1064 401 1064 b 635 751 444 968 546 839 b 621 751 635 751 621 751 m 399 -14 b 33 342 194 -14 33 131 b 399 697 33 553 194 697 b 765 342 604 697 765 553 b 399 -14 765 131 604 -14 m 399 11 b 550 342 501 11 550 138 b 399 671 550 546 501 671 b 249 342 297 671 249 546 b 399 11 249 138 297 11 "},"õ":{"ha":799,"x_min":0,"x_max":0,"o":"m 660 1015 b 499 796 639 879 581 796 b 278 874 413 796 350 874 b 158 786 224 874 183 843 b 149 786 158 786 149 786 b 310 1006 169 922 228 1006 b 531 928 396 1006 458 928 b 650 1015 585 928 625 958 b 660 1015 650 1015 660 1015 m 399 -14 b 33 342 194 -14 33 131 b 399 697 33 553 194 697 b 765 342 604 697 765 553 b 399 -14 765 131 604 -14 m 399 11 b 550 342 501 11 550 138 b 399 671 550 546 501 671 b 249 342 297 671 249 546 b 399 11 249 138 297 11 "},"ö":{"ha":799,"x_min":0,"x_max":0,"o":"m 260 783 b 154 890 200 783 154 832 b 260 999 154 949 200 999 b 367 890 319 999 367 949 b 260 783 367 832 319 783 m 536 783 b 429 890 478 783 429 832 b 536 999 429 949 478 999 b 643 890 596 999 643 949 b 536 783 643 832 596 783 m 399 -14 b 33 342 194 -14 33 131 b 399 697 33 553 194 697 b 765 342 604 697 765 553 b 399 -14 765 131 604 -14 m 399 11 b 550 342 501 11 550 138 b 399 671 550 546 501 671 b 249 342 297 671 249 546 b 399 11 249 138 297 11 "},"÷":{"ha":665,"x_min":0,"x_max":0,"o":"m 288 676 b 332 721 288 701 307 721 b 378 676 357 721 378 701 b 332 631 378 651 357 631 b 288 676 307 631 288 651 m 61 428 b 61 467 61 428 61 467 b 604 467 61 467 604 467 b 604 428 604 467 604 428 b 61 428 604 428 61 428 m 288 218 b 332 264 288 244 307 264 b 378 218 357 264 378 244 b 332 174 378 194 357 174 b 288 218 307 174 288 194 "},"ø":{"ha":799,"x_min":0,"x_max":0,"o":"m 249 342 b 257 207 249 292 251 247 b 536 504 257 207 536 504 b 399 671 515 610 471 671 b 249 342 297 671 249 546 m 399 11 b 550 342 501 11 550 138 b 543 461 550 386 547 425 b 265 165 543 461 265 165 b 399 11 286 68 331 11 m 399 -14 b 167 61 310 -14 229 14 b 92 -18 167 61 92 -18 b 65 4 92 -18 65 4 b 140 83 65 4 140 83 b 33 342 74 146 33 236 b 399 697 33 553 194 697 b 642 614 493 697 576 667 b 717 694 642 614 717 694 b 742 672 717 694 742 672 b 665 592 742 672 665 592 b 765 342 728 529 765 443 b 399 -14 765 131 604 -14 "},"ù":{"ha":844,"x_min":0,"x_max":0,"o":"m 419 1040 b 497 765 425 946 447 853 b 490 765 497 765 490 765 b 217 1040 360 844 272 935 b 419 1040 217 1040 419 1040 m 549 300 b 549 529 549 300 549 529 b 469 681 549 618 535 646 b 469 683 469 681 469 683 b 749 683 469 683 749 683 b 749 143 749 683 749 143 b 831 3 749 54 769 33 b 831 0 831 3 831 0 b 549 0 831 0 549 0 b 549 190 549 0 549 190 b 304 -14 515 60 424 -14 b 88 228 165 -14 88 83 b 88 529 88 228 88 529 b 10 681 88 618 75 646 b 10 683 10 681 10 683 b 288 683 10 683 288 683 b 288 229 288 683 288 229 b 400 88 288 156 321 88 b 549 300 483 88 549 163 "},"ú":{"ha":844,"x_min":0,"x_max":0,"o":"m 399 1040 b 603 1040 399 1040 603 1040 b 328 765 547 935 458 844 b 322 765 328 765 322 765 b 399 1040 371 853 393 946 m 549 300 b 549 529 549 300 549 529 b 469 681 549 618 535 646 b 469 683 469 681 469 683 b 749 683 469 683 749 683 b 749 143 749 683 749 143 b 831 3 749 54 769 33 b 831 0 831 3 831 0 b 549 0 831 0 549 0 b 549 190 549 0 549 190 b 304 -14 515 60 424 -14 b 88 228 165 -14 88 83 b 88 529 88 228 88 529 b 10 681 88 618 75 646 b 10 683 10 681 10 683 b 288 683 10 683 288 683 b 288 229 288 683 288 229 b 400 88 288 156 321 88 b 549 300 483 88 549 163 "},"û":{"ha":844,"x_min":0,"x_max":0,"o":"m 644 751 b 422 876 560 783 478 921 b 200 751 367 832 285 783 b 186 751 200 751 186 751 b 419 1064 275 839 376 968 b 425 1064 419 1064 425 1064 b 658 751 468 968 569 839 b 644 751 658 751 644 751 m 549 300 b 549 529 549 300 549 529 b 469 681 549 618 535 646 b 469 683 469 681 469 683 b 749 683 469 683 749 683 b 749 143 749 683 749 143 b 831 3 749 54 769 33 b 831 0 831 3 831 0 b 549 0 831 0 549 0 b 549 190 549 0 549 190 b 304 -14 515 60 424 -14 b 88 228 165 -14 88 83 b 88 529 88 228 88 529 b 10 681 88 618 75 646 b 10 683 10 681 10 683 b 288 683 10 683 288 683 b 288 229 288 683 288 229 b 400 88 288 156 321 88 b 549 300 483 88 549 163 "},"ü":{"ha":844,"x_min":0,"x_max":0,"o":"m 283 783 b 178 890 224 783 178 832 b 283 999 178 949 224 999 b 390 890 343 999 390 949 b 283 783 390 832 343 783 m 560 783 b 453 890 501 783 453 832 b 560 999 453 949 501 999 b 667 890 619 999 667 949 b 560 783 667 832 619 783 m 549 300 b 549 529 549 300 549 529 b 469 681 549 618 535 646 b 469 683 469 681 469 683 b 749 683 469 683 749 683 b 749 143 749 683 749 143 b 831 3 749 54 769 33 b 831 0 831 3 831 0 b 549 0 831 0 549 0 b 549 190 549 0 549 190 b 304 -14 515 60 424 -14 b 88 228 165 -14 88 83 b 88 529 88 228 88 529 b 10 681 88 618 75 646 b 10 683 10 681 10 683 b 288 683 10 683 288 683 b 288 229 288 683 288 229 b 400 88 288 156 321 88 b 549 300 483 88 549 163 "},"ý":{"ha":736,"x_min":0,"x_max":0,"o":"m 376 1040 b 581 1040 376 1040 581 1040 b 306 765 525 935 436 844 b 300 765 306 765 300 765 b 376 1040 349 853 371 946 m 329 -118 b 371 -24 329 -118 371 -24 b 94 533 371 -24 94 533 b -10 681 50 622 36 642 b -10 683 -10 681 -10 683 b 321 683 -10 683 321 683 b 321 681 321 683 321 681 b 281 618 289 663 281 646 b 303 536 281 596 289 565 b 461 203 303 536 461 203 b 596 524 461 203 596 524 b 610 590 606 547 610 569 b 546 681 610 632 588 664 b 546 683 546 681 546 683 b 746 683 546 683 746 683 b 746 681 746 683 746 681 b 638 524 697 644 676 615 b 354 -143 638 524 354 -143 b 156 -321 303 -262 246 -321 b 18 -200 76 -321 18 -276 b 128 -89 18 -129 68 -89 b 172 -97 144 -89 157 -92 b 132 -162 144 -110 132 -131 b 207 -236 132 -206 163 -236 b 329 -118 260 -236 293 -199 "},"þ":{"ha":869,"x_min":0,"x_max":0,"o":"m 458 613 b 297 407 376 613 297 532 b 297 271 297 407 297 271 b 461 51 297 135 378 51 b 624 349 565 51 624 160 b 458 613 624 515 563 613 m 14 1040 b 297 1040 14 1040 297 1040 b 297 504 297 1040 297 504 b 538 697 325 610 411 697 b 836 349 703 697 836 564 b 526 -14 836 129 697 -14 b 297 160 406 -14 325 61 b 297 -156 297 160 297 -156 b 368 -304 297 -247 304 -269 b 368 -307 368 -304 368 -307 b 26 -307 368 -307 26 -307 b 26 -304 26 -307 26 -304 b 97 -156 90 -269 97 -247 b 97 888 97 -156 97 888 b 14 1038 97 975 81 1006 b 14 1040 14 1038 14 1040 "},"ÿ":{"ha":736,"x_min":0,"x_max":0,"o":"m 260 783 b 154 890 200 783 154 832 b 260 999 154 949 200 999 b 367 890 319 999 367 949 b 260 783 367 832 319 783 m 536 783 b 429 890 478 783 429 832 b 536 999 429 949 478 999 b 643 890 596 999 643 949 b 536 783 643 832 596 783 m 329 -118 b 371 -24 329 -118 371 -24 b 94 533 371 -24 94 533 b -10 681 50 622 36 642 b -10 683 -10 681 -10 683 b 321 683 -10 683 321 683 b 321 681 321 683 321 681 b 281 618 289 663 281 646 b 303 536 281 596 289 565 b 461 203 303 536 461 203 b 596 524 461 203 596 524 b 610 590 606 547 610 569 b 546 681 610 632 588 664 b 546 683 546 681 546 683 b 746 683 546 683 746 683 b 746 681 746 683 746 681 b 638 524 697 644 676 615 b 354 -143 638 524 354 -143 b 156 -321 303 -262 246 -321 b 18 -200 76 -321 18 -276 b 128 -89 18 -129 68 -89 b 172 -97 144 -89 157 -92 b 132 -162 144 -110 132 -131 b 207 -236 132 -206 163 -236 b 329 -118 260 -236 293 -199 "},"Ā":{"ha":1010,"x_min":0,"x_max":0,"o":"m 704 1086 b 293 1086 704 1086 293 1086 b 293 1138 293 1086 293 1138 b 704 1138 293 1138 704 1138 b 704 1086 704 1138 704 1086 m 413 715 b 249 340 413 715 249 340 b 585 340 249 340 585 340 b 413 715 585 340 413 715 m 232 3 b 232 0 232 3 232 0 b -1 0 232 0 -1 0 b -1 3 -1 0 -1 3 b 129 176 51 33 89 89 b 499 986 129 176 499 986 b 504 986 499 986 504 986 b 897 156 504 986 897 156 b 1010 3 939 68 960 33 b 1010 0 1010 3 1010 0 b 629 0 1010 0 629 0 b 629 3 629 0 629 3 b 690 79 669 24 690 46 b 668 160 690 104 682 129 b 603 301 668 160 603 301 b 231 301 603 301 231 301 b 181 186 231 301 181 186 b 160 103 168 160 160 132 b 232 3 160 60 186 24 "},"ā":{"ha":760,"x_min":0,"x_max":0,"o":"m 581 831 b 169 831 581 831 169 831 b 169 882 169 831 169 882 b 581 882 169 882 581 882 b 581 831 581 882 581 831 m 782 53 b 782 50 782 53 782 50 b 631 -12 751 14 693 -12 b 471 111 532 -12 482 36 b 468 158 471 117 468 149 b 242 -10 449 64 358 -10 b 39 164 132 -10 39 46 b 361 379 39 317 194 349 b 467 399 361 379 467 399 b 467 513 467 399 467 513 b 339 671 467 596 432 671 b 224 563 260 671 224 622 b 289 482 224 511 249 482 b 313 486 297 482 304 483 b 192 411 293 436 249 411 b 71 522 124 411 71 454 b 343 697 71 622 182 697 b 667 457 553 697 667 628 b 664 176 667 357 664 269 b 747 44 664 90 682 44 b 782 53 758 44 772 47 m 467 374 b 394 358 467 374 394 358 b 239 192 286 336 239 285 b 333 72 239 113 275 72 b 464 239 407 72 463 140 b 467 374 464 239 467 374 "},"Ă":{"ha":1010,"x_min":0,"x_max":0,"o":"m 710 1289 b 500 1035 708 1135 625 1035 b 289 1289 374 1035 289 1135 b 297 1289 289 1289 297 1289 b 500 1168 310 1204 414 1168 b 701 1289 583 1168 688 1204 b 710 1289 701 1289 710 1289 m 413 715 b 249 340 413 715 249 340 b 585 340 249 340 585 340 b 413 715 585 340 413 715 m 232 3 b 232 0 232 3 232 0 b -1 0 232 0 -1 0 b -1 3 -1 0 -1 3 b 129 176 51 33 89 89 b 499 986 129 176 499 986 b 504 986 499 986 504 986 b 897 156 504 986 897 156 b 1010 3 939 68 960 33 b 1010 0 1010 3 1010 0 b 629 0 1010 0 629 0 b 629 3 629 0 629 3 b 690 79 669 24 690 46 b 668 160 690 104 682 129 b 603 301 668 160 603 301 b 231 301 603 301 231 301 b 181 186 231 301 181 186 b 160 103 168 160 160 132 b 232 3 160 60 186 24 "},"ă":{"ha":760,"x_min":0,"x_max":0,"o":"m 585 1044 b 375 778 585 883 500 778 b 165 1044 250 778 165 883 b 174 1044 165 1044 174 1044 b 375 913 186 950 290 913 b 576 1044 460 913 564 950 b 585 1044 576 1044 585 1044 m 782 53 b 782 50 782 53 782 50 b 631 -12 751 14 693 -12 b 471 111 532 -12 482 36 b 468 158 471 117 468 149 b 242 -10 449 64 358 -10 b 39 164 132 -10 39 46 b 361 379 39 317 194 349 b 467 399 361 379 467 399 b 467 513 467 399 467 513 b 339 671 467 596 432 671 b 224 563 260 671 224 622 b 289 482 224 511 249 482 b 313 486 297 482 304 483 b 192 411 293 436 249 411 b 71 522 124 411 71 454 b 343 697 71 622 182 697 b 667 457 553 697 667 628 b 664 176 667 357 664 269 b 747 44 664 90 682 44 b 782 53 758 44 772 47 m 467 374 b 394 358 467 374 394 358 b 239 192 286 336 239 285 b 333 72 239 113 275 72 b 464 239 407 72 463 140 b 467 374 464 239 467 374 "},"Ą":{"ha":1010,"x_min":0,"x_max":0,"o":"m 771 -185 b 571 -332 739 -267 682 -332 b 429 -207 494 -332 429 -285 b 647 14 429 -101 546 -43 b 690 79 681 32 690 56 b 668 160 690 104 682 129 b 604 301 668 160 604 301 b 231 301 604 301 231 301 b 181 186 231 301 181 186 b 160 103 168 160 160 132 b 232 3 160 60 186 24 b 232 0 232 3 232 0 b -1 0 232 0 -1 0 b -1 3 -1 0 -1 3 b 129 176 51 33 89 89 b 499 986 129 176 499 986 b 504 986 499 986 504 986 b 897 156 504 986 897 156 b 1010 3 939 68 960 33 b 1010 0 1010 3 1010 0 b 656 0 1010 0 656 0 b 554 -164 582 -58 554 -112 b 639 -253 554 -222 588 -253 b 767 -182 690 -253 731 -233 b 771 -185 767 -182 771 -185 m 413 715 b 247 340 413 715 247 340 b 585 340 247 340 585 340 b 413 715 585 340 413 715 "},"ą":{"ha":760,"x_min":0,"x_max":0,"o":"m 583 -332 b 442 -207 507 -332 442 -285 b 658 -10 442 -114 549 -56 b 631 -12 647 -11 639 -12 b 471 111 532 -12 482 36 b 468 158 471 117 468 149 b 242 -10 449 64 358 -10 b 39 164 132 -10 39 46 b 361 379 39 317 194 349 b 467 399 361 379 467 399 b 467 513 467 399 467 513 b 339 671 467 596 432 671 b 224 563 260 671 224 622 b 289 482 224 511 249 482 b 313 486 297 482 304 483 b 192 411 293 436 249 411 b 71 522 124 411 71 454 b 343 697 71 622 182 697 b 667 457 553 697 667 628 b 664 176 667 357 664 269 b 747 44 664 90 682 44 b 782 53 758 44 772 47 b 782 50 782 53 782 50 b 567 -164 725 -8 567 -43 b 651 -253 567 -222 600 -253 b 779 -182 703 -253 743 -233 b 783 -185 779 -182 783 -185 b 583 -332 751 -267 694 -332 m 467 374 b 394 358 467 374 394 358 b 239 192 286 336 239 285 b 333 72 239 113 275 72 b 464 239 407 72 463 140 b 467 374 464 239 467 374 "},"Ć":{"ha":949,"x_min":0,"x_max":0,"o":"m 521 1285 b 731 1285 521 1285 731 1285 b 454 1029 674 1185 586 1101 b 449 1029 454 1029 449 1029 b 521 1285 497 1110 514 1196 m 881 986 b 890 665 881 986 890 665 b 888 665 890 665 888 665 b 571 954 824 835 715 954 b 269 515 378 954 269 761 b 607 93 269 247 424 93 b 908 286 740 93 843 142 b 917 283 908 286 917 283 b 518 -14 875 101 731 -14 b 42 478 246 -14 42 182 b 554 986 42 775 272 986 b 790 942 675 986 746 942 b 881 986 832 942 856 963 "},"ć":{"ha":699,"x_min":0,"x_max":0,"o":"m 390 1040 b 594 1040 390 1040 594 1040 b 319 765 539 935 450 844 b 314 765 319 765 314 765 b 390 1040 363 853 385 946 m 415 671 b 244 374 306 671 244 543 b 465 81 244 185 335 81 b 675 222 556 81 633 125 b 683 218 675 222 683 218 b 378 -14 650 71 531 -14 b 33 328 199 -14 33 111 b 414 697 33 560 204 697 b 669 521 564 697 669 625 b 549 403 669 444 613 403 b 442 478 486 403 444 439 b 468 472 450 474 461 472 b 536 561 514 472 536 510 b 415 671 536 625 499 671 "},"Ĉ":{"ha":949,"x_min":0,"x_max":0,"o":"m 768 1018 b 546 1133 683 1049 601 1175 b 324 1018 490 1092 408 1049 b 310 1018 324 1018 310 1018 b 543 1318 399 1103 500 1226 b 549 1318 543 1318 549 1318 b 782 1018 592 1226 693 1103 b 768 1018 782 1018 768 1018 m 881 986 b 890 665 881 986 890 665 b 888 665 890 665 888 665 b 571 954 824 835 715 954 b 269 515 378 954 269 761 b 607 93 269 247 424 93 b 908 286 740 93 843 142 b 917 283 908 286 917 283 b 518 -14 875 101 731 -14 b 42 478 246 -14 42 182 b 554 986 42 775 272 986 b 790 942 675 986 746 942 b 881 986 832 942 856 963 "},"ĉ":{"ha":699,"x_min":0,"x_max":0,"o":"m 635 751 b 413 876 550 783 468 921 b 190 751 357 832 275 783 b 176 751 190 751 176 751 b 410 1064 265 839 367 968 b 415 1064 410 1064 415 1064 b 649 751 458 968 560 839 b 635 751 649 751 635 751 m 415 671 b 244 374 306 671 244 543 b 465 81 244 185 335 81 b 675 222 556 81 633 125 b 683 218 675 222 683 218 b 378 -14 650 71 531 -14 b 33 328 199 -14 33 111 b 414 697 33 560 204 697 b 669 521 564 697 669 625 b 549 403 669 444 613 403 b 442 478 486 403 444 439 b 468 472 450 474 461 472 b 536 561 514 472 536 510 b 415 671 536 625 499 671 "},"Ċ":{"ha":949,"x_min":0,"x_max":0,"o":"m 426 1164 b 546 1281 426 1229 478 1281 b 665 1164 613 1281 665 1229 b 546 1049 665 1100 613 1049 b 426 1164 478 1049 426 1100 m 881 986 b 890 665 881 986 890 665 b 888 665 890 665 888 665 b 571 954 824 835 715 954 b 269 515 378 954 269 761 b 607 93 269 247 424 93 b 908 286 740 93 843 142 b 917 283 908 286 917 283 b 518 -14 875 101 731 -14 b 42 478 246 -14 42 182 b 554 986 42 775 272 986 b 790 942 675 986 746 942 b 881 986 832 942 856 963 "},"ċ":{"ha":699,"x_min":0,"x_max":0,"o":"m 293 906 b 413 1022 293 971 344 1022 b 532 906 479 1022 532 971 b 413 792 532 842 479 792 b 293 906 344 792 293 842 m 415 671 b 244 374 306 671 244 543 b 465 81 244 185 335 81 b 675 222 556 81 633 125 b 683 218 675 222 683 218 b 378 -14 650 71 531 -14 b 33 328 199 -14 33 111 b 414 697 33 560 204 697 b 669 521 564 697 669 625 b 549 403 669 444 613 403 b 442 478 486 403 444 439 b 468 472 450 474 461 472 b 536 561 514 472 536 510 b 415 671 536 625 499 671 "},"Č":{"ha":949,"x_min":0,"x_max":0,"o":"m 324 1321 b 546 1206 408 1290 490 1164 b 768 1321 601 1247 683 1290 b 782 1321 768 1321 782 1321 b 549 1021 693 1236 592 1113 b 543 1021 549 1021 543 1021 b 310 1321 500 1113 399 1236 b 324 1321 310 1321 324 1321 m 881 986 b 890 665 881 986 890 665 b 888 665 890 665 888 665 b 571 954 824 835 715 954 b 269 515 378 954 269 761 b 607 93 269 247 424 93 b 908 286 740 93 843 142 b 917 283 908 286 917 283 b 518 -14 875 101 731 -14 b 42 478 246 -14 42 182 b 554 986 42 775 272 986 b 790 942 675 986 746 942 b 881 986 832 942 856 963 "},"č":{"ha":699,"x_min":0,"x_max":0,"o":"m 190 1064 b 413 940 275 1033 357 897 b 635 1064 468 983 550 1033 b 649 1064 635 1064 649 1064 b 415 751 560 976 458 849 b 410 751 415 751 410 751 b 176 1064 367 849 265 976 b 190 1064 176 1064 190 1064 m 415 671 b 244 374 306 671 244 543 b 465 81 244 185 335 81 b 675 222 556 81 633 125 b 683 218 675 222 683 218 b 378 -14 650 71 531 -14 b 33 328 199 -14 33 111 b 414 697 33 560 204 697 b 669 521 564 697 669 625 b 549 403 669 444 613 403 b 442 478 486 403 444 439 b 468 472 450 474 461 472 b 536 561 514 472 536 510 b 415 671 536 625 499 671 "},"Ď":{"ha":1056,"x_min":0,"x_max":0,"o":"m 263 1321 b 485 1206 347 1290 429 1164 b 707 1321 540 1247 622 1290 b 721 1321 707 1321 721 1321 b 488 1021 632 1236 531 1113 b 482 1021 488 1021 482 1021 b 249 1321 439 1113 338 1236 b 263 1321 249 1321 263 1321 m 46 0 b 46 3 46 0 46 3 b 124 172 110 39 124 81 b 124 800 124 172 124 800 b 46 969 124 892 110 933 b 46 972 46 969 46 972 b 432 972 46 972 432 972 b 1014 493 772 972 1014 814 b 451 0 1014 157 767 0 b 46 0 451 0 46 0 m 332 36 b 432 36 332 36 432 36 b 789 493 644 36 789 182 b 419 936 789 776 646 936 b 332 936 419 936 332 936 b 332 36 332 936 332 36 "},"ď":{"ha":874,"x_min":0,"x_max":0,"o":"m 1047 1040 b 860 739 1022 936 950 811 b 854 739 860 739 854 739 b 876 1040 874 824 883 935 b 1047 1040 876 1040 1047 1040 m 411 69 b 572 276 493 69 572 150 b 572 413 572 276 572 413 b 410 632 572 547 492 632 b 247 335 304 632 247 524 b 411 69 247 167 307 69 m 572 524 b 572 888 572 524 572 888 b 489 1038 572 975 554 1007 b 489 1040 489 1038 489 1040 b 772 1040 489 1040 772 1040 b 772 151 772 1040 772 151 b 847 3 772 67 785 38 b 847 0 847 3 847 0 b 572 0 847 0 572 0 b 572 178 572 0 572 178 b 333 -14 544 72 458 -14 b 33 335 168 -14 33 119 b 343 697 33 554 172 697 b 572 524 464 697 544 621 "},"Đ":{"ha":1056,"x_min":0,"x_max":0,"o":"m 451 0 b 46 0 451 0 46 0 b 46 3 46 0 46 3 b 124 172 110 39 124 81 b 124 479 124 172 124 479 b 46 479 124 479 46 479 b 46 519 46 479 46 519 b 124 519 46 519 124 519 b 124 800 124 519 124 800 b 46 969 124 892 110 933 b 46 972 46 969 46 972 b 432 972 46 972 432 972 b 1014 493 772 972 1014 814 b 451 0 1014 157 767 0 m 332 36 b 432 36 332 36 432 36 b 789 493 644 36 789 182 b 419 936 789 776 646 936 b 332 936 419 936 332 936 b 332 519 332 936 332 519 b 508 519 332 519 508 519 b 508 479 508 519 508 479 b 332 479 508 479 332 479 b 332 36 332 479 332 36 "},"đ":{"ha":876,"x_min":0,"x_max":0,"o":"m 411 69 b 572 276 493 69 572 150 b 572 413 572 276 572 413 b 410 632 572 547 492 632 b 247 335 304 632 247 524 b 411 69 247 167 307 69 m 572 178 b 333 -14 544 72 458 -14 b 33 335 168 -14 33 119 b 343 697 33 554 172 697 b 572 524 464 697 544 621 b 572 804 572 524 572 804 b 411 804 572 804 411 804 b 411 839 411 804 411 839 b 572 839 411 839 572 839 b 572 888 572 839 572 888 b 489 1038 572 975 554 1007 b 489 1040 489 1038 489 1040 b 772 1040 489 1040 772 1040 b 772 839 772 1040 772 839 b 853 839 772 839 853 839 b 853 804 853 839 853 804 b 772 804 853 804 772 804 b 772 151 772 804 772 151 b 847 3 772 67 785 38 b 847 0 847 3 847 0 b 572 0 847 0 572 0 b 572 178 572 0 572 178 "},"Ē":{"ha":908,"x_min":0,"x_max":0,"o":"m 669 1086 b 258 1086 669 1086 258 1086 b 258 1138 258 1086 258 1138 b 669 1138 258 1138 669 1138 b 669 1086 669 1138 669 1086 m 46 972 b 707 972 46 972 707 972 b 793 983 746 972 775 975 b 840 725 793 983 840 725 b 838 725 840 725 838 725 b 519 936 760 861 686 936 b 332 936 519 936 332 936 b 332 518 332 936 332 518 b 486 518 332 518 486 518 b 685 675 599 518 639 546 b 688 675 685 675 688 675 b 688 335 688 675 688 335 b 685 335 688 335 685 335 b 486 479 639 463 599 479 b 332 479 486 479 332 479 b 332 36 332 479 332 36 b 543 36 332 36 543 36 b 875 272 717 36 797 131 b 878 272 875 272 878 272 b 833 0 878 272 833 0 b 46 0 833 0 46 0 b 46 3 46 0 46 3 b 124 172 110 39 124 81 b 124 800 124 172 124 800 b 46 969 124 892 110 933 b 46 972 46 969 46 972 "},"ē":{"ha":728,"x_min":0,"x_max":0,"o":"m 594 831 b 183 831 594 831 183 831 b 183 882 183 831 183 882 b 594 882 183 882 594 882 b 594 831 594 882 594 831 m 382 697 b 694 371 596 697 694 557 b 236 371 694 371 236 371 b 469 81 236 194 328 81 b 683 222 561 81 642 125 b 692 218 683 222 692 218 b 383 -14 657 71 539 -14 b 33 340 192 -14 33 115 b 382 697 33 556 193 697 m 238 400 b 497 400 238 400 497 400 b 381 671 497 550 481 671 b 238 400 299 671 243 564 "},"Ĕ":{"ha":908,"x_min":0,"x_max":0,"o":"m 675 1289 b 465 1035 674 1135 590 1035 b 254 1289 339 1035 254 1135 b 263 1289 254 1289 263 1289 b 465 1168 275 1204 379 1168 b 667 1289 549 1168 653 1204 b 675 1289 667 1289 675 1289 m 46 972 b 707 972 46 972 707 972 b 793 983 746 972 775 975 b 840 725 793 983 840 725 b 838 725 840 725 838 725 b 519 936 760 861 686 936 b 332 936 519 936 332 936 b 332 518 332 936 332 518 b 486 518 332 518 486 518 b 685 675 599 518 639 546 b 688 675 685 675 688 675 b 688 335 688 675 688 335 b 685 335 688 335 685 335 b 486 479 639 463 599 479 b 332 479 486 479 332 479 b 332 36 332 479 332 36 b 543 36 332 36 543 36 b 875 272 717 36 797 131 b 878 272 875 272 878 272 b 833 0 878 272 833 0 b 46 0 833 0 46 0 b 46 3 46 0 46 3 b 124 172 110 39 124 81 b 124 800 124 172 124 800 b 46 969 124 892 110 933 b 46 972 46 969 46 972 "},"ĕ":{"ha":728,"x_min":0,"x_max":0,"o":"m 599 1044 b 389 778 599 883 514 778 b 179 1044 264 778 179 883 b 188 1044 179 1044 188 1044 b 389 913 200 950 304 913 b 590 1044 474 913 578 950 b 599 1044 590 1044 599 1044 m 382 697 b 694 371 596 697 694 557 b 236 371 694 371 236 371 b 469 81 236 194 328 81 b 683 222 561 81 642 125 b 692 218 683 222 692 218 b 383 -14 657 71 539 -14 b 33 340 192 -14 33 115 b 382 697 33 556 193 697 m 238 400 b 497 400 238 400 497 400 b 381 671 497 550 481 671 b 238 400 299 671 243 564 "},"Ė":{"ha":908,"x_min":0,"x_max":0,"o":"m 347 1160 b 467 1276 347 1225 399 1276 b 586 1160 533 1276 586 1225 b 467 1044 586 1096 533 1044 b 347 1160 399 1044 347 1096 m 46 972 b 707 972 46 972 707 972 b 793 983 746 972 775 975 b 840 725 793 983 840 725 b 838 725 840 725 838 725 b 519 936 760 861 686 936 b 332 936 519 936 332 936 b 332 518 332 936 332 518 b 486 518 332 518 486 518 b 685 675 599 518 639 546 b 688 675 685 675 688 675 b 688 335 688 675 688 335 b 685 335 688 335 685 335 b 486 479 639 463 599 479 b 332 479 486 479 332 479 b 332 36 332 479 332 36 b 543 36 332 36 543 36 b 875 272 717 36 797 131 b 878 272 875 272 878 272 b 833 0 878 272 833 0 b 46 0 833 0 46 0 b 46 3 46 0 46 3 b 124 172 110 39 124 81 b 124 800 124 172 124 800 b 46 969 124 892 110 933 b 46 972 46 969 46 972 "},"ė":{"ha":728,"x_min":0,"x_max":0,"o":"m 269 906 b 389 1022 269 971 321 1022 b 508 906 456 1022 508 971 b 389 792 508 842 456 792 b 269 906 321 792 269 842 m 382 697 b 694 371 596 697 694 557 b 236 371 694 371 236 371 b 469 81 236 194 328 81 b 683 222 561 81 642 125 b 692 218 683 222 692 218 b 383 -14 657 71 539 -14 b 33 340 192 -14 33 115 b 382 697 33 556 193 697 m 238 400 b 497 400 238 400 497 400 b 381 671 497 550 481 671 b 238 400 299 671 243 564 "},"Ę":{"ha":908,"x_min":0,"x_max":0,"o":"m 803 -185 b 603 -332 771 -267 714 -332 b 461 -207 526 -332 461 -285 b 654 0 461 -114 553 -56 b 46 0 654 0 46 0 b 46 3 46 0 46 3 b 124 172 110 39 124 81 b 124 800 124 172 124 800 b 46 969 124 892 110 933 b 46 972 46 969 46 972 b 707 972 46 972 707 972 b 793 983 746 972 775 975 b 840 725 793 983 840 725 b 838 725 840 725 838 725 b 519 936 760 861 686 936 b 332 936 519 936 332 936 b 332 518 332 936 332 518 b 486 518 332 518 486 518 b 685 675 599 518 639 546 b 688 675 685 675 688 675 b 688 335 688 675 688 335 b 685 335 688 335 685 335 b 486 479 639 463 599 479 b 332 479 486 479 332 479 b 332 36 332 479 332 36 b 543 36 332 36 543 36 b 875 272 717 36 797 131 b 878 272 875 272 878 272 b 833 0 878 272 833 0 b 686 0 833 0 686 0 b 586 -164 615 -58 586 -112 b 671 -253 586 -222 619 -253 b 799 -182 722 -253 763 -233 b 803 -185 799 -182 803 -185 "},"ę":{"ha":728,"x_min":0,"x_max":0,"o":"m 424 -332 b 282 -207 347 -332 282 -285 b 472 -4 282 -117 375 -58 b 383 -14 447 -11 411 -14 b 33 340 192 -14 33 115 b 382 697 33 556 193 697 b 694 371 596 697 694 557 b 236 371 694 371 236 371 b 469 81 236 194 328 81 b 683 222 561 81 642 125 b 692 218 683 222 692 218 b 528 10 669 121 608 63 b 406 -164 443 -47 406 -101 b 492 -253 406 -222 440 -253 b 619 -182 543 -253 582 -233 b 624 -185 619 -182 624 -185 b 424 -332 592 -267 535 -332 m 238 400 b 497 400 238 400 497 400 b 381 671 497 550 481 671 b 238 400 299 671 243 564 "},"Ě":{"ha":908,"x_min":0,"x_max":0,"o":"m 242 1321 b 464 1206 326 1290 408 1164 b 686 1321 519 1247 601 1290 b 700 1321 686 1321 700 1321 b 467 1021 611 1236 510 1113 b 461 1021 467 1021 461 1021 b 228 1321 418 1113 317 1236 b 242 1321 228 1321 242 1321 m 46 972 b 707 972 46 972 707 972 b 793 983 746 972 775 975 b 840 725 793 983 840 725 b 838 725 840 725 838 725 b 519 936 760 861 686 936 b 332 936 519 936 332 936 b 332 518 332 936 332 518 b 486 518 332 518 486 518 b 685 675 599 518 639 546 b 688 675 685 675 688 675 b 688 335 688 675 688 335 b 685 335 688 335 685 335 b 486 479 639 463 599 479 b 332 479 486 479 332 479 b 332 36 332 479 332 36 b 543 36 332 36 543 36 b 875 272 717 36 797 131 b 878 272 875 272 878 272 b 833 0 878 272 833 0 b 46 0 833 0 46 0 b 46 3 46 0 46 3 b 124 172 110 39 124 81 b 124 800 124 172 124 800 b 46 969 124 892 110 933 b 46 972 46 969 46 972 "},"ě":{"ha":728,"x_min":0,"x_max":0,"o":"m 167 1064 b 389 940 251 1033 333 897 b 611 1064 444 983 526 1033 b 625 1064 611 1064 625 1064 b 392 751 536 976 435 849 b 386 751 392 751 386 751 b 153 1064 343 849 242 976 b 167 1064 153 1064 167 1064 m 382 697 b 694 371 596 697 694 557 b 236 371 694 371 236 371 b 469 81 236 194 328 81 b 683 222 561 81 642 125 b 692 218 683 222 692 218 b 383 -14 657 71 539 -14 b 33 340 192 -14 33 115 b 382 697 33 556 193 697 m 238 400 b 497 400 238 400 497 400 b 381 671 497 550 481 671 b 238 400 299 671 243 564 "},"Ĝ":{"ha":1054,"x_min":0,"x_max":0,"o":"m 776 1018 b 554 1133 692 1049 610 1175 b 332 1018 499 1092 417 1049 b 318 1018 332 1018 318 1018 b 551 1318 407 1103 508 1226 b 557 1318 551 1318 557 1318 b 790 1018 600 1226 701 1103 b 776 1018 790 1018 776 1018 m 575 956 b 272 476 381 956 272 764 b 547 28 272 215 378 28 b 751 233 671 28 751 103 b 751 285 751 233 751 285 b 674 454 751 376 738 418 b 674 457 674 454 674 457 b 1032 457 674 457 1032 457 b 1032 454 1032 457 1032 454 b 954 285 968 418 954 376 b 954 -14 954 285 954 -14 b 951 -14 954 -14 951 -14 b 835 140 951 -14 835 140 b 538 -14 783 58 674 -14 b 42 476 247 -14 42 186 b 560 986 42 781 276 986 b 801 942 683 986 756 942 b 892 986 842 942 867 963 b 901 665 892 986 901 665 b 899 665 901 665 899 665 b 575 956 832 833 719 956 "},"ĝ":{"ha":792,"x_min":0,"x_max":0,"o":"m 576 751 b 354 876 492 783 410 921 b 132 751 299 832 217 783 b 118 751 132 751 118 751 b 351 1064 207 839 308 968 b 357 1064 351 1064 357 1064 b 590 751 400 968 501 839 b 576 751 590 751 576 751 m 361 674 b 260 469 290 674 260 594 b 361 265 260 344 290 265 b 464 469 433 265 464 344 b 361 674 464 594 433 674 m 765 -57 b 346 -321 765 -232 568 -321 b 6 -162 188 -321 6 -281 b 190 -37 6 -94 75 -46 b 42 115 110 -24 42 28 b 190 276 42 197 113 254 b 63 469 107 317 63 388 b 361 697 63 599 169 697 b 583 625 456 697 533 671 b 719 735 611 671 650 735 b 826 640 788 735 826 697 b 704 538 826 563 760 538 b 704 540 704 538 704 540 b 724 589 718 553 724 568 b 663 649 724 622 704 649 b 594 614 633 649 611 632 b 661 469 638 576 661 526 b 361 242 661 340 554 242 b 211 267 301 242 253 250 b 146 199 176 254 146 232 b 229 142 146 161 175 142 b 499 142 229 142 499 142 b 765 -57 664 142 765 72 m 346 -296 b 618 -149 503 -296 618 -242 b 475 -42 618 -74 568 -42 b 275 -42 475 -42 275 -42 b 129 -157 186 -42 129 -79 b 346 -296 129 -247 225 -296 "},"Ğ":{"ha":1054,"x_min":0,"x_max":0,"o":"m 765 1292 b 556 1038 764 1138 681 1038 b 344 1292 429 1038 344 1138 b 353 1292 344 1292 353 1292 b 556 1171 365 1207 469 1171 b 757 1292 639 1171 743 1207 b 765 1292 757 1292 765 1292 m 575 956 b 272 476 381 956 272 764 b 547 28 272 215 378 28 b 751 233 671 28 751 103 b 751 285 751 233 751 285 b 674 454 751 376 738 418 b 674 457 674 454 674 457 b 1032 457 674 457 1032 457 b 1032 454 1032 457 1032 454 b 954 285 968 418 954 376 b 954 -14 954 285 954 -14 b 951 -14 954 -14 951 -14 b 835 140 951 -14 835 140 b 538 -14 783 58 674 -14 b 42 476 247 -14 42 186 b 560 986 42 781 276 986 b 801 942 683 986 756 942 b 892 986 842 942 867 963 b 901 665 892 986 901 665 b 899 665 901 665 899 665 b 575 956 832 833 719 956 "},"ğ":{"ha":792,"x_min":0,"x_max":0,"o":"m 574 1044 b 364 778 574 883 489 778 b 154 1044 239 778 154 883 b 163 1044 154 1044 163 1044 b 364 913 175 950 279 913 b 565 1044 449 913 553 950 b 574 1044 565 1044 574 1044 m 361 674 b 260 469 290 674 260 594 b 361 265 260 344 290 265 b 464 469 433 265 464 344 b 361 674 464 594 433 674 m 765 -57 b 346 -321 765 -232 568 -321 b 6 -162 188 -321 6 -281 b 190 -37 6 -94 75 -46 b 42 115 110 -24 42 28 b 190 276 42 197 113 254 b 63 469 107 317 63 388 b 361 697 63 599 169 697 b 583 625 456 697 533 671 b 719 735 611 671 650 735 b 826 640 788 735 826 697 b 704 538 826 563 760 538 b 704 540 704 538 704 540 b 724 589 718 553 724 568 b 663 649 724 622 704 649 b 594 614 633 649 611 632 b 661 469 638 576 661 526 b 361 242 661 340 554 242 b 211 267 301 242 253 250 b 146 199 176 254 146 232 b 229 142 146 161 175 142 b 499 142 229 142 499 142 b 765 -57 664 142 765 72 m 346 -296 b 618 -149 503 -296 618 -242 b 475 -42 618 -74 568 -42 b 275 -42 475 -42 275 -42 b 129 -157 186 -42 129 -79 b 346 -296 129 -247 225 -296 "},"Ġ":{"ha":1054,"x_min":0,"x_max":0,"o":"m 435 1164 b 554 1281 435 1229 486 1281 b 674 1164 621 1281 674 1229 b 554 1049 674 1100 621 1049 b 435 1164 486 1049 435 1100 m 575 956 b 272 476 381 956 272 764 b 547 28 272 215 378 28 b 751 233 671 28 751 103 b 751 285 751 233 751 285 b 674 454 751 376 738 418 b 674 457 674 454 674 457 b 1032 457 674 457 1032 457 b 1032 454 1032 457 1032 454 b 954 285 968 418 954 376 b 954 -14 954 285 954 -14 b 951 -14 954 -14 951 -14 b 835 140 951 -14 835 140 b 538 -14 783 58 674 -14 b 42 476 247 -14 42 186 b 560 986 42 781 276 986 b 801 942 683 986 756 942 b 892 986 842 942 867 963 b 901 665 892 986 901 665 b 899 665 901 665 899 665 b 575 956 832 833 719 956 "},"ġ":{"ha":792,"x_min":0,"x_max":0,"o":"m 244 906 b 364 1022 244 971 296 1022 b 483 906 431 1022 483 971 b 364 792 483 842 431 792 b 244 906 296 792 244 842 m 361 674 b 260 469 290 674 260 594 b 361 265 260 344 290 265 b 464 469 433 265 464 344 b 361 674 464 594 433 674 m 765 -57 b 346 -321 765 -232 568 -321 b 6 -162 188 -321 6 -281 b 190 -37 6 -94 75 -46 b 42 115 110 -24 42 28 b 190 276 42 197 113 254 b 63 469 107 317 63 388 b 361 697 63 599 169 697 b 583 625 456 697 533 671 b 719 735 611 671 650 735 b 826 640 788 735 826 697 b 704 538 826 563 760 538 b 704 540 704 538 704 540 b 724 589 718 553 724 568 b 663 649 724 622 704 649 b 594 614 633 649 611 632 b 661 469 638 576 661 526 b 361 242 661 340 554 242 b 211 267 301 242 253 250 b 146 199 176 254 146 232 b 229 142 146 161 175 142 b 499 142 229 142 499 142 b 765 -57 664 142 765 72 m 346 -296 b 618 -149 503 -296 618 -242 b 475 -42 618 -74 568 -42 b 275 -42 475 -42 275 -42 b 129 -157 186 -42 129 -79 b 346 -296 129 -247 225 -296 "},"Ģ":{"ha":1054,"x_min":0,"x_max":0,"o":"m 575 956 b 272 476 381 956 272 764 b 547 28 272 215 378 28 b 751 233 671 28 751 103 b 751 285 751 233 751 285 b 674 454 751 376 738 418 b 674 457 674 454 674 457 b 1032 457 674 457 1032 457 b 1032 454 1032 457 1032 454 b 954 285 968 418 954 376 b 954 -14 954 285 954 -14 b 951 -14 954 -14 951 -14 b 835 140 951 -14 835 140 b 538 -14 783 58 674 -14 b 42 476 247 -14 42 186 b 560 986 42 781 276 986 b 801 942 683 986 756 942 b 892 986 842 942 867 963 b 901 665 892 986 901 665 b 899 665 901 665 899 665 b 575 956 832 833 719 956 m 674 -192 b 444 -371 674 -300 585 -368 b 444 -350 444 -371 444 -350 b 603 -235 549 -340 599 -301 b 535 -256 589 -247 563 -256 b 443 -161 482 -256 443 -212 b 549 -61 443 -104 489 -61 b 674 -192 622 -61 674 -114 "},"ģ":{"ha":792,"x_min":0,"x_max":0,"o":"m 244 899 b 474 1076 244 1006 333 1075 b 474 1056 474 1076 474 1056 b 315 942 369 1046 319 1007 b 383 963 329 953 356 963 b 475 868 436 963 475 918 b 369 768 475 810 429 768 b 244 899 296 768 244 819 m 361 674 b 260 469 290 674 260 594 b 361 265 260 344 290 265 b 464 469 433 265 464 344 b 361 674 464 594 433 674 m 765 -57 b 346 -321 765 -232 568 -321 b 6 -162 188 -321 6 -281 b 190 -37 6 -94 75 -46 b 42 115 110 -24 42 28 b 190 276 42 197 113 254 b 63 469 107 317 63 388 b 361 697 63 599 169 697 b 583 625 456 697 533 671 b 719 735 611 671 650 735 b 826 640 788 735 826 697 b 704 538 826 563 760 538 b 704 540 704 538 704 540 b 724 589 718 553 724 568 b 663 649 724 622 704 649 b 594 614 633 649 611 632 b 661 469 638 576 661 526 b 361 242 661 340 554 242 b 211 267 301 242 253 250 b 146 199 176 254 146 232 b 229 142 146 161 175 142 b 499 142 229 142 499 142 b 765 -57 664 142 765 72 m 346 -296 b 618 -149 503 -296 618 -242 b 475 -42 618 -74 568 -42 b 275 -42 475 -42 275 -42 b 129 -157 186 -42 129 -79 b 346 -296 129 -247 225 -296 "},"Ĥ":{"ha":1129,"x_min":0,"x_max":0,"o":"m 786 1018 b 564 1133 701 1049 619 1175 b 342 1018 508 1092 426 1049 b 328 1018 342 1018 328 1018 b 561 1318 417 1103 518 1226 b 567 1318 561 1318 567 1318 b 800 1018 610 1226 711 1103 b 786 1018 800 1018 786 1018 m 124 172 b 124 800 124 172 124 800 b 46 969 124 892 110 933 b 46 972 46 969 46 972 b 410 972 46 972 410 972 b 410 969 410 972 410 969 b 332 800 346 933 332 892 b 332 519 332 800 332 519 b 797 519 332 519 797 519 b 797 800 797 519 797 800 b 719 969 797 892 783 933 b 719 972 719 969 719 972 b 1083 972 719 972 1083 972 b 1083 969 1083 972 1083 969 b 1006 800 1019 933 1006 892 b 1006 172 1006 800 1006 172 b 1083 3 1006 81 1019 39 b 1083 0 1083 3 1083 0 b 719 0 1083 0 719 0 b 719 3 719 0 719 3 b 797 172 783 39 797 81 b 797 479 797 172 797 479 b 332 479 797 479 332 479 b 332 172 332 479 332 172 b 410 3 332 81 346 39 b 410 0 410 3 410 0 b 46 0 410 0 46 0 b 46 3 46 0 46 3 b 124 172 110 39 124 81 "},"ĥ":{"ha":857,"x_min":0,"x_max":0,"o":"m 653 1079 b 431 1194 568 1110 486 1236 b 208 1079 375 1153 293 1110 b 194 1079 208 1079 194 1079 b 428 1379 283 1164 385 1288 b 433 1379 428 1379 433 1379 b 667 1079 476 1288 578 1164 b 653 1079 667 1079 653 1079 m 18 1040 b 301 1040 18 1040 301 1040 b 301 497 301 1040 301 497 b 543 697 336 624 425 697 b 763 456 685 697 763 600 b 763 151 763 456 763 151 b 833 3 763 60 769 38 b 833 0 833 3 833 0 b 492 0 833 0 492 0 b 492 3 492 0 492 3 b 563 151 556 38 563 60 b 563 456 563 151 563 456 b 449 597 563 533 531 597 b 301 383 363 597 301 521 b 301 151 301 383 301 151 b 372 3 301 60 308 38 b 372 0 372 3 372 0 b 31 0 372 0 31 0 b 31 3 31 0 31 3 b 101 151 94 38 101 60 b 101 888 101 151 101 888 b 18 1038 101 975 83 1007 b 18 1040 18 1038 18 1040 "},"Ħ":{"ha":1129,"x_min":0,"x_max":0,"o":"m 797 481 b 797 649 797 481 797 649 b 332 649 797 649 332 649 b 332 481 332 649 332 481 b 797 481 332 481 797 481 m 410 0 b 46 0 410 0 46 0 b 46 3 46 0 46 3 b 124 172 110 39 124 81 b 124 649 124 172 124 649 b 46 649 124 649 46 649 b 46 689 46 649 46 689 b 124 689 46 689 124 689 b 124 800 124 689 124 800 b 46 969 124 892 110 933 b 46 972 46 969 46 972 b 410 972 46 972 410 972 b 410 969 410 972 410 969 b 332 800 346 933 332 892 b 332 689 332 800 332 689 b 797 689 332 689 797 689 b 797 800 797 689 797 800 b 719 969 797 892 783 933 b 719 972 719 969 719 972 b 1083 972 719 972 1083 972 b 1083 969 1083 972 1083 969 b 1006 800 1019 933 1006 892 b 1006 689 1006 800 1006 689 b 1083 689 1006 689 1083 689 b 1083 649 1083 689 1083 649 b 1006 649 1083 649 1006 649 b 1006 172 1006 649 1006 172 b 1083 3 1006 81 1019 39 b 1083 0 1083 3 1083 0 b 719 0 1083 0 719 0 b 719 3 719 0 719 3 b 797 172 783 39 797 81 b 797 440 797 172 797 440 b 332 440 797 440 332 440 b 332 172 332 440 332 172 b 410 3 332 81 346 39 b 410 0 410 3 410 0 "},"ħ":{"ha":860,"x_min":0,"x_max":0,"o":"m 375 3 b 375 0 375 3 375 0 b 33 0 375 0 33 0 b 33 3 33 0 33 3 b 104 151 97 38 104 60 b 104 804 104 151 104 804 b 24 804 104 804 24 804 b 24 839 24 804 24 839 b 104 839 24 839 104 839 b 104 888 104 839 104 888 b 21 1038 104 975 86 1007 b 21 1040 21 1038 21 1040 b 304 1040 21 1040 304 1040 b 304 839 304 1040 304 839 b 464 839 304 839 464 839 b 464 804 464 839 464 804 b 304 804 464 804 304 804 b 304 497 304 804 304 497 b 546 697 339 624 428 697 b 765 456 688 697 765 600 b 765 151 765 456 765 151 b 836 3 765 60 772 38 b 836 0 836 3 836 0 b 494 0 836 0 494 0 b 494 3 494 0 494 3 b 565 151 558 38 565 60 b 565 456 565 151 565 456 b 451 597 565 533 533 597 b 304 383 365 597 304 521 b 304 151 304 383 304 151 b 375 3 304 60 311 38 "},"Ĩ":{"ha":456,"x_min":0,"x_max":0,"o":"m 483 1279 b 322 1060 463 1143 404 1060 b 101 1138 236 1060 174 1138 b -18 1050 47 1138 7 1107 b -28 1050 -18 1050 -28 1050 b 133 1269 -7 1186 51 1269 b 354 1192 219 1269 282 1192 b 474 1279 408 1192 449 1222 b 483 1279 474 1279 483 1279 m 332 172 b 410 3 332 81 346 39 b 410 0 410 3 410 0 b 46 0 410 0 46 0 b 46 3 46 0 46 3 b 124 172 110 39 124 81 b 124 800 124 172 124 800 b 46 969 124 892 110 933 b 46 972 46 969 46 972 b 410 972 46 972 410 972 b 410 969 410 972 410 969 b 332 800 346 933 332 892 b 332 172 332 800 332 172 "},"ĩ":{"ha":403,"x_min":0,"x_max":0,"o":"m 429 1015 b 285 796 415 879 360 796 b 88 871 207 796 153 871 b -17 786 40 871 3 843 b -26 786 -17 786 -26 786 b 118 1006 -12 922 44 1006 b 315 931 196 1006 250 931 b 419 1015 363 931 400 958 b 429 1015 419 1015 429 1015 m 306 683 b 306 151 306 683 306 151 b 376 3 306 60 314 38 b 376 0 376 3 376 0 b 36 0 376 0 36 0 b 36 3 36 0 36 3 b 106 151 99 38 106 60 b 106 529 106 151 106 529 b 28 681 106 618 93 646 b 28 683 28 681 28 683 b 306 683 28 683 306 683 "},"Ī":{"ha":456,"x_min":0,"x_max":0,"o":"m 433 1086 b 22 1086 433 1086 22 1086 b 22 1138 22 1086 22 1138 b 433 1138 22 1138 433 1138 b 433 1086 433 1138 433 1086 m 332 172 b 410 3 332 81 346 39 b 410 0 410 3 410 0 b 46 0 410 0 46 0 b 46 3 46 0 46 3 b 124 172 110 39 124 81 b 124 800 124 172 124 800 b 46 969 124 892 110 933 b 46 972 46 969 46 972 b 410 972 46 972 410 972 b 410 969 410 972 410 969 b 332 800 346 933 332 892 b 332 172 332 800 332 172 "},"ī":{"ha":403,"x_min":0,"x_max":0,"o":"m 368 831 b 18 831 368 831 18 831 b 18 882 18 831 18 882 b 368 882 18 882 368 882 b 368 831 368 882 368 831 m 306 683 b 306 151 306 683 306 151 b 376 3 306 60 314 38 b 376 0 376 3 376 0 b 36 0 376 0 36 0 b 36 3 36 0 36 3 b 106 151 99 38 106 60 b 106 529 106 151 106 529 b 28 681 106 618 93 646 b 28 683 28 681 28 683 b 306 683 28 683 306 683 "},"Ĭ":{"ha":456,"x_min":0,"x_max":0,"o":"m 439 1289 b 229 1035 438 1135 354 1035 b 18 1289 103 1035 18 1135 b 26 1289 18 1289 26 1289 b 229 1168 39 1204 143 1168 b 431 1289 313 1168 417 1204 b 439 1289 431 1289 439 1289 m 332 172 b 410 3 332 81 346 39 b 410 0 410 3 410 0 b 46 0 410 0 46 0 b 46 3 46 0 46 3 b 124 172 110 39 124 81 b 124 800 124 172 124 800 b 46 969 124 892 110 933 b 46 972 46 969 46 972 b 410 972 46 972 410 972 b 410 969 410 972 410 969 b 332 800 346 933 332 892 b 332 172 332 800 332 172 "},"ĭ":{"ha":403,"x_min":0,"x_max":0,"o":"m 386 1044 b 199 778 386 871 311 778 b 13 1044 88 778 14 871 b 19 1044 13 1044 19 1044 b 199 913 32 950 124 913 b 378 1044 275 913 368 950 b 386 1044 378 1044 386 1044 m 306 683 b 306 151 306 683 306 151 b 376 3 306 60 314 38 b 376 0 376 3 376 0 b 36 0 376 0 36 0 b 36 3 36 0 36 3 b 106 151 99 38 106 60 b 106 529 106 151 106 529 b 28 681 106 618 93 646 b 28 683 28 681 28 683 b 306 683 28 683 306 683 "},"Į":{"ha":456,"x_min":0,"x_max":0,"o":"m 397 -185 b 197 -332 365 -267 308 -332 b 56 -207 121 -332 56 -285 b 249 0 56 -114 147 -56 b 46 0 249 0 46 0 b 46 3 46 0 46 3 b 124 172 110 39 124 81 b 124 800 124 172 124 800 b 46 969 124 892 110 933 b 46 972 46 969 46 972 b 410 972 46 972 410 972 b 410 969 410 972 410 969 b 332 800 346 933 332 892 b 332 172 332 800 332 172 b 410 3 332 81 346 39 b 410 0 410 3 410 0 b 281 0 410 0 281 0 b 181 -164 210 -58 181 -112 b 265 -253 181 -222 214 -253 b 393 -182 317 -253 357 -233 b 397 -185 393 -182 397 -185 "},"į":{"ha":403,"x_min":0,"x_max":0,"o":"m 82 907 b 201 1022 82 972 133 1022 b 321 907 269 1022 321 972 b 201 792 321 842 269 792 b 82 907 133 792 82 842 m 371 -185 b 171 -332 339 -267 282 -332 b 29 -207 94 -332 29 -285 b 222 0 29 -114 121 -56 b 36 0 222 0 36 0 b 36 3 36 0 36 3 b 106 151 99 38 106 60 b 106 529 106 151 106 529 b 28 681 106 618 93 646 b 28 683 28 681 28 683 b 306 683 28 683 306 683 b 306 151 306 683 306 151 b 376 3 306 60 314 38 b 376 0 376 3 376 0 b 254 0 376 0 254 0 b 154 -164 183 -58 154 -112 b 239 -253 154 -222 188 -253 b 367 -182 290 -253 331 -233 b 371 -185 367 -182 371 -185 "},"İ":{"ha":456,"x_min":0,"x_max":0,"o":"m 108 1160 b 228 1276 108 1225 160 1276 b 347 1160 294 1276 347 1225 b 228 1044 347 1096 294 1044 b 108 1160 160 1044 108 1096 m 332 172 b 410 3 332 81 346 39 b 410 0 410 3 410 0 b 46 0 410 0 46 0 b 46 3 46 0 46 3 b 124 172 110 39 124 81 b 124 800 124 172 124 800 b 46 969 124 892 110 933 b 46 972 46 969 46 972 b 410 972 46 972 410 972 b 410 969 410 972 410 969 b 332 800 346 933 332 892 b 332 172 332 800 332 172 "},"ı":{"ha":403,"x_min":0,"x_max":0,"o":"m 306 683 b 306 151 306 683 306 151 b 376 3 306 60 314 38 b 376 0 376 3 376 0 b 36 0 376 0 36 0 b 36 3 36 0 36 3 b 106 151 99 38 106 60 b 106 529 106 151 106 529 b 28 681 106 618 93 646 b 28 683 28 681 28 683 b 306 683 28 683 306 683 "},"Ĵ":{"ha":803,"x_min":0,"x_max":0,"o":"m 811 1018 b 589 1133 726 1049 644 1175 b 367 1018 533 1092 451 1049 b 353 1018 367 1018 353 1018 b 586 1318 442 1103 543 1226 b 592 1318 586 1318 592 1318 b 825 1018 635 1226 736 1103 b 811 1018 825 1018 811 1018 m 488 231 b 488 800 488 231 488 800 b 411 969 488 892 475 933 b 411 972 411 969 411 972 b 775 972 411 972 775 972 b 775 969 775 972 775 969 b 697 800 711 933 697 892 b 697 289 697 800 697 289 b 338 -14 697 76 533 -14 b 14 210 167 -14 14 67 b 174 357 14 303 82 357 b 289 313 221 357 264 340 b 193 185 224 310 193 256 b 338 13 193 89 243 13 b 488 231 446 13 488 97 "},"ĵ":{"ha":375,"x_min":0,"x_max":0,"o":"m 407 751 b 185 876 322 783 240 921 b -37 751 129 832 47 783 b -51 751 -37 751 -51 751 b 182 1064 38 839 139 968 b 188 1064 182 1064 188 1064 b 421 751 231 968 332 839 b 407 751 421 751 407 751 m 293 -50 b -4 -321 293 -242 160 -321 b -221 -185 -125 -321 -221 -275 b -106 -87 -221 -126 -171 -87 b -19 -114 -71 -87 -37 -99 b -83 -204 -57 -124 -83 -153 b 0 -299 -83 -262 -56 -299 b 93 -132 68 -299 93 -240 b 93 529 93 -132 93 529 b 15 681 93 618 81 646 b 15 683 15 681 15 683 b 293 683 15 683 293 683 b 293 -50 293 683 293 -50 "},"Ķ":{"ha":1028,"x_min":0,"x_max":0,"o":"m 410 0 b 46 0 410 0 46 0 b 46 3 46 0 46 3 b 124 172 110 39 124 81 b 124 800 124 172 124 800 b 46 969 124 892 110 933 b 46 972 46 969 46 972 b 410 972 46 972 410 972 b 410 969 410 972 410 969 b 332 800 346 933 332 892 b 332 458 332 800 332 458 b 726 832 332 458 726 832 b 764 901 750 854 764 879 b 710 969 764 929 744 954 b 710 972 710 969 710 972 b 990 972 710 972 990 972 b 990 969 990 972 990 969 b 771 824 896 932 836 885 b 560 624 771 824 560 624 b 879 154 560 624 879 154 b 1039 3 929 85 982 32 b 1039 0 1039 3 1039 0 b 646 0 1039 0 646 0 b 646 3 646 0 646 3 b 682 56 672 17 682 29 b 644 147 682 82 669 107 b 407 483 644 147 407 483 b 332 413 407 483 332 413 b 332 172 332 413 332 172 b 410 3 332 81 346 39 b 410 0 410 3 410 0 m 614 -192 b 385 -371 614 -300 525 -368 b 385 -350 385 -371 385 -350 b 543 -235 489 -340 539 -301 b 475 -256 529 -247 503 -256 b 383 -161 422 -256 383 -212 b 489 -61 383 -104 429 -61 b 614 -192 563 -61 614 -114 "},"ķ":{"ha":822,"x_min":0,"x_max":0,"o":"m 301 389 b 333 389 301 389 333 389 b 438 432 374 389 399 394 b 557 553 438 432 557 553 b 594 624 583 578 594 601 b 549 681 594 649 578 669 b 549 683 549 681 549 683 b 814 683 549 683 814 683 b 814 681 814 683 814 681 b 617 565 725 656 675 621 b 513 458 617 565 513 458 b 697 156 513 458 697 156 b 853 3 740 86 788 32 b 853 0 853 3 853 0 b 544 0 853 0 544 0 b 508 99 544 28 531 63 b 372 326 508 99 372 326 b 322 360 358 351 346 360 b 301 360 322 360 301 360 b 301 151 301 360 301 151 b 372 3 301 60 308 38 b 372 0 372 3 372 0 b 31 0 372 0 31 0 b 31 3 31 0 31 3 b 101 151 94 38 101 60 b 101 888 101 151 101 888 b 18 1038 101 975 83 1007 b 18 1040 18 1038 18 1040 b 301 1040 18 1040 301 1040 b 301 389 301 1040 301 389 m 540 -192 b 311 -371 540 -300 451 -368 b 311 -350 311 -371 311 -350 b 469 -235 415 -340 465 -301 b 401 -256 456 -247 429 -256 b 310 -161 349 -256 310 -212 b 415 -61 310 -104 356 -61 b 540 -192 489 -61 540 -114 "},"ĸ":{"ha":833,"x_min":0,"x_max":0,"o":"m 311 389 b 344 389 311 389 344 389 b 447 432 383 389 410 394 b 568 553 447 432 568 553 b 604 624 593 578 606 601 b 558 681 604 649 588 669 b 558 683 558 681 558 683 b 824 683 558 683 824 683 b 824 681 824 683 824 681 b 626 565 736 656 686 621 b 524 458 626 565 524 458 b 708 156 524 458 708 156 b 863 3 750 86 797 32 b 863 0 863 3 863 0 b 556 0 863 0 556 0 b 519 99 554 28 542 63 b 382 326 519 99 382 326 b 332 360 368 351 357 360 b 311 360 332 360 311 360 b 311 151 311 360 311 151 b 382 3 311 60 319 38 b 382 0 382 3 382 0 b 42 0 382 0 42 0 b 42 3 42 0 42 3 b 111 151 104 38 111 60 b 111 529 111 151 111 529 b 28 681 111 618 93 650 b 28 683 28 681 28 683 b 311 683 28 683 311 683 b 311 389 311 683 311 389 "},"Ĺ":{"ha":874,"x_min":0,"x_max":0,"o":"m 265 1285 b 475 1285 265 1285 475 1285 b 199 1029 418 1185 331 1101 b 193 1029 199 1029 193 1029 b 265 1285 242 1110 258 1196 m 46 972 b 410 972 46 972 410 972 b 410 969 410 972 410 969 b 332 800 346 933 332 892 b 332 36 332 800 332 36 b 517 36 332 36 517 36 b 851 297 690 36 761 129 b 854 297 851 297 854 297 b 806 0 854 297 806 0 b 46 0 806 0 46 0 b 46 3 46 0 46 3 b 124 172 110 39 124 81 b 124 800 124 172 124 800 b 46 969 124 892 110 933 b 46 972 46 969 46 972 "},"ĺ":{"ha":399,"x_min":0,"x_max":0,"o":"m 169 1336 b 379 1336 169 1336 379 1336 b 103 1081 322 1236 235 1153 b 97 1081 103 1081 97 1081 b 169 1336 146 1161 163 1247 m 301 1040 b 301 151 301 1040 301 151 b 372 3 301 60 308 38 b 372 0 372 3 372 0 b 31 0 372 0 31 0 b 31 3 31 0 31 3 b 101 151 94 38 101 60 b 101 888 101 151 101 888 b 18 1038 101 975 83 1007 b 18 1040 18 1038 18 1040 b 301 1040 18 1040 301 1040 "},"Ļ":{"ha":874,"x_min":0,"x_max":0,"o":"m 46 972 b 410 972 46 972 410 972 b 410 969 410 972 410 969 b 332 800 346 933 332 892 b 332 36 332 800 332 36 b 517 36 332 36 517 36 b 851 297 690 36 761 129 b 854 297 851 297 854 297 b 806 0 854 297 806 0 b 46 0 806 0 46 0 b 46 3 46 0 46 3 b 124 172 110 39 124 81 b 124 800 124 172 124 800 b 46 969 124 892 110 933 b 46 972 46 969 46 972 m 565 -192 b 336 -371 565 -300 476 -368 b 336 -350 336 -371 336 -350 b 494 -235 440 -340 490 -301 b 426 -256 481 -247 454 -256 b 335 -161 374 -256 335 -212 b 440 -61 335 -104 381 -61 b 565 -192 514 -61 565 -114 "},"ļ":{"ha":399,"x_min":0,"x_max":0,"o":"m 301 1040 b 301 151 301 1040 301 151 b 372 3 301 60 308 38 b 372 0 372 3 372 0 b 31 0 372 0 31 0 b 31 3 31 0 31 3 b 101 151 94 38 101 60 b 101 888 101 151 101 888 b 18 1038 101 975 83 1007 b 18 1040 18 1038 18 1040 b 301 1040 18 1040 301 1040 m 314 -192 b 85 -371 314 -300 225 -368 b 85 -350 85 -371 85 -350 b 243 -235 189 -340 239 -301 b 175 -256 229 -247 203 -256 b 83 -161 122 -256 83 -212 b 189 -61 83 -104 129 -61 b 314 -192 263 -61 314 -114 "},"Ľ":{"ha":874,"x_min":0,"x_max":0,"o":"m 46 972 b 410 972 46 972 410 972 b 410 969 410 972 410 969 b 332 800 346 933 332 892 b 332 36 332 800 332 36 b 517 36 332 36 517 36 b 851 297 690 36 761 129 b 854 297 851 297 854 297 b 806 0 854 297 806 0 b 46 0 806 0 46 0 b 46 3 46 0 46 3 b 124 172 110 39 124 81 b 124 800 124 172 124 800 b 46 969 124 892 110 933 b 46 972 46 969 46 972 m 771 972 b 583 671 746 868 674 743 b 578 671 583 671 578 671 b 600 972 597 756 607 867 b 771 972 600 972 771 972 "},"ľ":{"ha":399,"x_min":0,"x_max":0,"o":"m 301 1040 b 301 151 301 1040 301 151 b 372 3 301 60 308 38 b 372 0 372 3 372 0 b 31 0 372 0 31 0 b 31 3 31 0 31 3 b 101 151 94 38 101 60 b 101 888 101 151 101 888 b 18 1038 101 975 83 1007 b 18 1040 18 1038 18 1040 b 301 1040 18 1040 301 1040 m 572 1040 b 385 739 547 936 475 811 b 379 739 385 739 379 739 b 401 1040 399 824 408 935 b 572 1040 401 1040 572 1040 "},"Ŀ":{"ha":874,"x_min":0,"x_max":0,"o":"m 46 972 b 410 972 46 972 410 972 b 410 969 410 972 410 969 b 332 800 346 933 332 892 b 332 36 332 800 332 36 b 517 36 332 36 517 36 b 851 297 690 36 761 129 b 854 297 851 297 854 297 b 806 0 854 297 806 0 b 46 0 806 0 46 0 b 46 3 46 0 46 3 b 124 172 110 39 124 81 b 124 800 124 172 124 800 b 46 969 124 892 110 933 b 46 972 46 969 46 972 m 613 538 b 732 654 613 603 664 654 b 851 538 799 654 851 603 b 732 424 851 474 799 424 b 613 538 664 424 613 474 "},"ŀ":{"ha":601,"x_min":0,"x_max":0,"o":"m 301 1040 b 301 151 301 1040 301 151 b 372 3 301 60 308 38 b 372 0 372 3 372 0 b 31 0 372 0 31 0 b 31 3 31 0 31 3 b 101 151 94 38 101 60 b 101 888 101 151 101 888 b 18 1038 101 975 83 1007 b 18 1040 18 1038 18 1040 b 301 1040 18 1040 301 1040 m 381 518 b 500 635 381 583 432 635 b 619 518 567 635 619 583 b 500 404 619 454 567 404 b 381 518 432 404 381 454 "},"Ł":{"ha":874,"x_min":0,"x_max":0,"o":"m 806 0 b 46 0 806 0 46 0 b 46 3 46 0 46 3 b 124 172 110 39 124 81 b 124 421 124 172 124 421 b 46 390 124 421 46 390 b 46 432 46 390 46 432 b 124 463 46 432 124 463 b 124 800 124 463 124 800 b 46 969 124 892 110 933 b 46 972 46 969 46 972 b 410 972 46 972 410 972 b 410 969 410 972 410 969 b 332 800 346 933 332 892 b 332 532 332 800 332 532 b 536 614 332 532 536 614 b 536 572 536 614 536 572 b 332 492 536 572 332 492 b 332 36 332 492 332 36 b 517 36 332 36 517 36 b 851 297 690 36 761 129 b 854 297 851 297 854 297 b 806 0 854 297 806 0 "},"ł":{"ha":417,"x_min":0,"x_max":0,"o":"m 379 0 b 38 0 379 0 38 0 b 38 3 38 0 38 3 b 108 151 101 38 108 60 b 108 528 108 151 108 528 b 13 478 108 528 13 478 b 13 519 13 478 13 519 b 108 571 13 519 108 571 b 108 888 108 571 108 888 b 25 1038 108 975 90 1007 b 25 1040 25 1038 25 1040 b 308 1040 25 1040 308 1040 b 308 653 308 1040 308 653 b 406 704 308 653 406 704 b 406 663 406 704 406 663 b 308 611 406 663 308 611 b 308 151 308 611 308 151 b 379 3 308 60 315 38 b 379 0 379 3 379 0 "},"Ń":{"ha":1011,"x_min":0,"x_max":0,"o":"m 499 1285 b 708 1285 499 1285 708 1285 b 432 1029 651 1185 564 1101 b 426 1029 432 1029 426 1029 b 499 1285 475 1110 492 1196 m 999 969 b 894 767 928 933 894 871 b 894 -7 894 767 894 -7 b 856 -7 894 -7 856 -7 b 165 856 856 -7 165 856 b 165 211 165 856 165 211 b 276 3 165 101 200 36 b 276 0 276 3 276 0 b 19 0 276 0 19 0 b 19 3 19 0 19 3 b 124 206 89 39 124 101 b 124 800 124 206 124 800 b 46 969 124 892 110 933 b 46 972 46 969 46 972 b 344 972 46 972 344 972 b 853 332 344 972 853 332 b 853 761 853 332 853 761 b 742 969 853 871 818 936 b 742 972 742 969 742 972 b 999 972 742 972 999 972 b 999 969 999 972 999 969 "},"ń":{"ha":863,"x_min":0,"x_max":0,"o":"m 424 1040 b 628 1040 424 1040 628 1040 b 353 765 572 935 483 844 b 347 765 353 765 347 765 b 424 1040 396 853 418 946 m 28 683 b 306 683 28 683 306 683 b 306 497 306 683 306 497 b 549 697 342 624 431 697 b 767 456 690 697 767 600 b 767 151 767 456 767 151 b 838 3 767 60 775 38 b 838 0 838 3 838 0 b 497 0 838 0 497 0 b 497 3 497 0 497 3 b 567 151 560 38 567 60 b 567 456 567 151 567 456 b 453 597 567 533 535 597 b 306 383 367 597 306 521 b 306 151 306 383 306 151 b 376 3 306 60 314 38 b 376 0 376 3 376 0 b 36 0 376 0 36 0 b 36 3 36 0 36 3 b 106 151 99 38 106 60 b 106 529 106 151 106 529 b 28 681 106 618 93 646 b 28 683 28 681 28 683 "},"Ņ":{"ha":1011,"x_min":0,"x_max":0,"o":"m 999 969 b 894 767 928 933 894 871 b 894 -7 894 767 894 -7 b 856 -7 894 -7 856 -7 b 165 856 856 -7 165 856 b 165 211 165 856 165 211 b 276 3 165 101 200 36 b 276 0 276 3 276 0 b 19 0 276 0 19 0 b 19 3 19 0 19 3 b 124 206 89 39 124 101 b 124 800 124 206 124 800 b 46 969 124 892 110 933 b 46 972 46 969 46 972 b 344 972 46 972 344 972 b 853 332 344 972 853 332 b 853 761 853 332 853 761 b 742 969 853 871 818 936 b 742 972 742 969 742 972 b 999 972 742 972 999 972 b 999 969 999 972 999 969 m 632 -192 b 403 -371 632 -300 543 -368 b 403 -350 403 -371 403 -350 b 561 -235 507 -340 557 -301 b 493 -256 547 -247 521 -256 b 401 -161 440 -256 401 -212 b 507 -61 401 -104 447 -61 b 632 -192 581 -61 632 -114 "},"ņ":{"ha":863,"x_min":0,"x_max":0,"o":"m 28 683 b 306 683 28 683 306 683 b 306 497 306 683 306 497 b 549 697 342 624 431 697 b 767 456 690 697 767 600 b 767 151 767 456 767 151 b 838 3 767 60 775 38 b 838 0 838 3 838 0 b 497 0 838 0 497 0 b 497 3 497 0 497 3 b 567 151 560 38 567 60 b 567 456 567 151 567 456 b 453 597 567 533 535 597 b 306 383 367 597 306 521 b 306 151 306 383 306 151 b 376 3 306 60 314 38 b 376 0 376 3 376 0 b 36 0 376 0 36 0 b 36 3 36 0 36 3 b 106 151 99 38 106 60 b 106 529 106 151 106 529 b 28 681 106 618 93 646 b 28 683 28 681 28 683 m 561 -192 b 332 -371 561 -300 472 -368 b 332 -350 332 -371 332 -350 b 490 -235 436 -340 486 -301 b 422 -256 476 -247 450 -256 b 331 -161 369 -256 331 -212 b 436 -61 331 -104 376 -61 b 561 -192 510 -61 561 -114 "},"Ň":{"ha":1011,"x_min":0,"x_max":0,"o":"m 301 1321 b 524 1206 386 1290 468 1164 b 746 1321 579 1247 661 1290 b 760 1321 746 1321 760 1321 b 526 1021 671 1236 569 1113 b 521 1021 526 1021 521 1021 b 288 1321 478 1113 376 1236 b 301 1321 288 1321 301 1321 m 999 969 b 894 767 928 933 894 871 b 894 -7 894 767 894 -7 b 856 -7 894 -7 856 -7 b 165 856 856 -7 165 856 b 165 211 165 856 165 211 b 276 3 165 101 200 36 b 276 0 276 3 276 0 b 19 0 276 0 19 0 b 19 3 19 0 19 3 b 124 206 89 39 124 101 b 124 800 124 206 124 800 b 46 969 124 892 110 933 b 46 972 46 969 46 972 b 344 972 46 972 344 972 b 853 332 344 972 853 332 b 853 761 853 332 853 761 b 742 969 853 871 818 936 b 742 972 742 969 742 972 b 999 972 742 972 999 972 b 999 969 999 972 999 969 "},"ň":{"ha":863,"x_min":0,"x_max":0,"o":"m 225 1064 b 447 940 310 1033 392 897 b 669 1064 503 983 585 1033 b 683 1064 669 1064 683 1064 b 450 751 594 976 493 849 b 444 751 450 751 444 751 b 211 1064 401 849 300 976 b 225 1064 211 1064 225 1064 m 28 683 b 306 683 28 683 306 683 b 306 497 306 683 306 497 b 549 697 342 624 431 697 b 767 456 690 697 767 600 b 767 151 767 456 767 151 b 838 3 767 60 775 38 b 838 0 838 3 838 0 b 497 0 838 0 497 0 b 497 3 497 0 497 3 b 567 151 560 38 567 60 b 567 456 567 151 567 456 b 453 597 567 533 535 597 b 306 383 367 597 306 521 b 306 151 306 383 306 151 b 376 3 306 60 314 38 b 376 0 376 3 376 0 b 36 0 376 0 36 0 b 36 3 36 0 36 3 b 106 151 99 38 106 60 b 106 529 106 151 106 529 b 28 681 106 618 93 646 b 28 683 28 681 28 683 "},"Ŋ":{"ha":1011,"x_min":0,"x_max":0,"o":"m 853 -79 b 853 -3 853 -79 853 -3 b 165 856 853 -3 165 856 b 165 211 165 856 165 211 b 276 3 165 101 200 36 b 276 0 276 3 276 0 b 19 0 276 0 19 0 b 19 3 19 0 19 3 b 124 206 89 39 124 101 b 124 800 124 206 124 800 b 46 969 124 892 110 933 b 46 972 46 969 46 972 b 344 972 46 972 344 972 b 853 332 344 972 853 332 b 853 761 853 332 853 761 b 742 969 853 871 818 936 b 742 972 742 969 742 972 b 999 972 742 972 999 972 b 999 969 999 972 999 969 b 894 767 928 933 894 871 b 894 -72 894 767 894 -72 b 706 -321 894 -233 832 -321 b 503 -176 588 -321 503 -265 b 618 -75 503 -118 553 -75 b 704 -103 653 -75 686 -86 b 642 -190 667 -111 642 -140 b 722 -283 642 -247 671 -283 b 853 -79 804 -283 853 -221 "},"ŋ":{"ha":860,"x_min":0,"x_max":0,"o":"m 469 -321 b 254 -185 350 -321 254 -275 b 368 -87 254 -126 303 -87 b 454 -114 403 -87 436 -99 b 392 -204 417 -124 392 -153 b 474 -299 392 -262 418 -299 b 567 -132 543 -299 567 -240 b 567 456 567 -132 567 456 b 453 597 567 533 535 597 b 306 383 367 597 306 521 b 306 151 306 383 306 151 b 376 3 306 60 314 38 b 376 0 376 3 376 0 b 36 0 376 0 36 0 b 36 3 36 0 36 3 b 106 151 99 38 106 60 b 106 529 106 151 106 529 b 28 681 106 618 93 646 b 28 683 28 681 28 683 b 306 683 28 683 306 683 b 306 497 306 683 306 497 b 549 697 342 624 431 697 b 767 456 690 697 767 600 b 767 -50 767 456 767 -50 b 469 -321 767 -242 635 -321 "},"Ō":{"ha":1064,"x_min":0,"x_max":0,"o":"m 738 1086 b 326 1086 738 1086 326 1086 b 326 1138 326 1086 326 1138 b 738 1138 326 1138 738 1138 b 738 1086 738 1138 738 1086 m 1022 486 b 532 -14 1022 194 808 -14 b 42 486 256 -14 42 194 b 532 986 42 778 256 986 b 1022 486 808 986 1022 778 m 792 486 b 532 957 792 776 714 957 b 272 486 350 957 272 776 b 532 15 272 196 350 15 b 792 486 714 15 792 196 "},"ō":{"ha":799,"x_min":0,"x_max":0,"o":"m 604 831 b 193 831 604 831 193 831 b 193 882 193 831 193 882 b 604 882 193 882 604 882 b 604 831 604 882 604 831 m 399 -14 b 33 342 194 -14 33 131 b 399 697 33 553 194 697 b 765 342 604 697 765 553 b 399 -14 765 131 604 -14 m 399 11 b 550 342 501 11 550 138 b 399 671 550 546 501 671 b 249 342 297 671 249 546 b 399 11 249 138 297 11 "},"Ŏ":{"ha":1064,"x_min":0,"x_max":0,"o":"m 743 1289 b 533 1035 742 1135 658 1035 b 322 1289 407 1035 322 1135 b 331 1289 322 1289 331 1289 b 533 1168 343 1204 447 1168 b 735 1289 617 1168 721 1204 b 743 1289 735 1289 743 1289 m 1022 486 b 532 -14 1022 194 808 -14 b 42 486 256 -14 42 194 b 532 986 42 778 256 986 b 1022 486 808 986 1022 778 m 792 486 b 532 957 792 776 714 957 b 272 486 350 957 272 776 b 532 15 272 196 350 15 b 792 486 714 15 792 196 "},"ŏ":{"ha":799,"x_min":0,"x_max":0,"o":"m 608 1044 b 399 778 608 883 524 778 b 189 1044 274 778 189 883 b 197 1044 189 1044 197 1044 b 399 913 210 950 314 913 b 600 1044 483 913 588 950 b 608 1044 600 1044 608 1044 m 399 -14 b 33 342 194 -14 33 131 b 399 697 33 553 194 697 b 765 342 604 697 765 553 b 399 -14 765 131 604 -14 m 399 11 b 550 342 501 11 550 138 b 399 671 550 546 501 671 b 249 342 297 671 249 546 b 399 11 249 138 297 11 "},"Ő":{"ha":1064,"x_min":0,"x_max":0,"o":"m 451 1285 b 650 1285 451 1285 650 1285 b 385 1029 593 1185 517 1101 b 378 1029 385 1029 378 1029 b 451 1285 428 1110 444 1196 m 697 1285 b 896 1285 697 1285 896 1285 b 631 1029 839 1185 763 1101 b 625 1029 631 1029 625 1029 b 697 1285 674 1110 690 1196 m 1022 486 b 532 -14 1022 194 808 -14 b 42 486 256 -14 42 194 b 532 986 42 778 256 986 b 1022 486 808 986 1022 778 m 792 486 b 532 957 792 776 714 957 b 272 486 350 957 272 776 b 532 15 272 196 350 15 b 792 486 714 15 792 196 "},"ő":{"ha":799,"x_min":0,"x_max":0,"o":"m 315 1040 b 506 1040 315 1040 506 1040 b 242 765 450 935 372 844 b 235 765 242 765 235 765 b 315 1040 285 853 310 946 m 547 1040 b 738 1040 547 1040 738 1040 b 474 765 682 935 604 844 b 467 765 474 765 467 765 b 547 1040 517 853 542 946 m 399 -14 b 33 342 194 -14 33 131 b 399 697 33 553 194 697 b 765 342 604 697 765 553 b 399 -14 765 131 604 -14 m 399 11 b 550 342 501 11 550 138 b 399 671 550 546 501 671 b 249 342 297 671 249 546 b 399 11 249 138 297 11 "},"Œ":{"ha":1504,"x_min":0,"x_max":0,"o":"m 719 36 b 719 936 719 36 719 936 b 621 936 719 936 621 936 b 263 479 407 936 263 790 b 633 36 263 196 407 36 b 719 36 633 36 719 36 m 1472 272 b 1428 0 1472 272 1428 0 b 621 0 1428 0 621 0 b 38 479 279 0 38 158 b 600 972 38 815 285 972 b 1303 972 600 972 1303 972 b 1389 983 1342 972 1371 975 b 1436 725 1389 983 1436 725 b 1433 725 1436 725 1433 725 b 1114 936 1356 861 1282 936 b 929 936 1114 936 929 936 b 929 518 929 936 929 518 b 1081 518 929 518 1081 518 b 1279 675 1193 518 1235 546 b 1282 675 1279 675 1282 675 b 1282 335 1282 675 1282 335 b 1279 335 1282 335 1279 335 b 1081 479 1235 463 1193 479 b 929 479 1081 479 929 479 b 929 36 929 479 929 36 b 1139 36 929 36 1139 36 b 1469 272 1313 36 1393 131 b 1472 272 1469 272 1472 272 "},"œ":{"ha":1239,"x_min":0,"x_max":0,"o":"m 1203 218 b 894 -14 1168 71 1050 -14 b 650 99 799 -14 707 31 b 399 -14 590 32 500 -14 b 33 342 194 -14 33 131 b 399 697 33 553 194 697 b 653 581 501 697 594 650 b 893 697 713 650 800 697 b 1206 371 1108 697 1206 557 b 747 371 1206 371 747 371 b 981 81 747 194 839 81 b 1194 222 1074 81 1153 125 b 1203 218 1194 222 1203 218 m 550 342 b 399 671 550 546 501 671 b 249 342 297 671 249 546 b 399 11 249 138 297 11 b 550 342 501 11 550 138 m 749 400 b 1008 400 749 400 1008 400 b 893 671 1008 550 992 671 b 749 400 811 671 754 564 "},"Ŕ":{"ha":1017,"x_min":0,"x_max":0,"o":"m 472 1285 b 682 1285 472 1285 682 1285 b 406 1029 625 1185 538 1101 b 400 1029 406 1029 400 1029 b 472 1285 449 1110 465 1196 m 332 936 b 332 490 332 936 332 490 b 469 490 332 490 469 490 b 688 710 604 490 688 560 b 469 936 688 853 611 936 b 332 936 469 936 332 936 m 46 972 b 546 972 46 972 546 972 b 910 714 751 972 910 901 b 590 465 910 544 751 468 b 847 285 736 456 810 394 b 883 174 847 285 883 174 b 1033 3 917 74 951 39 b 1033 0 1033 3 1033 0 b 740 0 1033 0 740 0 b 667 150 710 32 688 86 b 621 303 667 150 621 303 b 446 453 593 388 556 453 b 332 453 446 453 332 453 b 332 172 332 453 332 172 b 410 3 332 81 346 39 b 410 0 410 3 410 0 b 46 0 410 0 46 0 b 46 3 46 0 46 3 b 124 172 110 39 124 81 b 124 800 124 172 124 800 b 46 969 124 892 110 933 b 46 972 46 969 46 972 "},"ŕ":{"ha":678,"x_min":0,"x_max":0,"o":"m 339 1040 b 543 1040 339 1040 543 1040 b 268 765 488 935 399 844 b 263 765 268 765 263 765 b 339 1040 311 853 333 946 m 494 442 b 538 507 521 451 538 476 b 456 581 538 553 508 581 b 306 344 376 581 306 483 b 306 151 306 344 306 151 b 418 3 306 60 342 32 b 418 0 418 3 418 0 b 36 0 418 0 36 0 b 36 3 36 0 36 3 b 106 151 99 38 106 60 b 106 529 106 151 106 529 b 28 681 106 618 93 646 b 28 683 28 681 28 683 b 306 683 28 683 306 683 b 306 456 306 683 306 456 b 528 697 339 583 404 697 b 669 565 613 697 669 642 b 543 426 669 474 606 426 b 494 442 521 426 503 433 "},"Ŗ":{"ha":1017,"x_min":0,"x_max":0,"o":"m 332 936 b 332 490 332 936 332 490 b 469 490 332 490 469 490 b 688 710 604 490 688 560 b 469 936 688 853 611 936 b 332 936 469 936 332 936 m 46 972 b 546 972 46 972 546 972 b 910 714 751 972 910 901 b 590 465 910 544 751 468 b 847 285 736 456 810 394 b 883 174 847 285 883 174 b 1033 3 917 74 951 39 b 1033 0 1033 3 1033 0 b 740 0 1033 0 740 0 b 667 150 710 32 688 86 b 621 303 667 150 621 303 b 446 453 593 388 556 453 b 332 453 446 453 332 453 b 332 172 332 453 332 172 b 410 3 332 81 346 39 b 410 0 410 3 410 0 b 46 0 410 0 46 0 b 46 3 46 0 46 3 b 124 172 110 39 124 81 b 124 800 124 172 124 800 b 46 969 124 892 110 933 b 46 972 46 969 46 972 m 617 -192 b 388 -371 617 -300 528 -368 b 388 -350 388 -371 388 -350 b 546 -235 492 -340 542 -301 b 478 -256 532 -247 506 -256 b 386 -161 425 -256 386 -212 b 492 -61 386 -104 432 -61 b 617 -192 565 -61 617 -114 "},"ŗ":{"ha":678,"x_min":0,"x_max":0,"o":"m 494 442 b 538 507 521 451 538 476 b 456 581 538 553 508 581 b 306 344 376 581 306 483 b 306 151 306 344 306 151 b 418 3 306 60 342 32 b 418 0 418 3 418 0 b 36 0 418 0 36 0 b 36 3 36 0 36 3 b 106 151 99 38 106 60 b 106 529 106 151 106 529 b 28 681 106 618 93 646 b 28 683 28 681 28 683 b 306 683 28 683 306 683 b 306 456 306 683 306 456 b 528 697 339 583 404 697 b 669 565 613 697 669 642 b 543 426 669 474 606 426 b 494 442 521 426 503 433 m 322 -192 b 93 -371 322 -300 233 -368 b 93 -350 93 -371 93 -350 b 251 -235 197 -340 247 -301 b 183 -256 238 -247 211 -256 b 92 -161 131 -256 92 -212 b 197 -61 92 -104 138 -61 b 322 -192 271 -61 322 -114 "},"Ř":{"ha":1017,"x_min":0,"x_max":0,"o":"m 275 1321 b 497 1206 360 1290 442 1164 b 719 1321 553 1247 635 1290 b 733 1321 719 1321 733 1321 b 500 1021 644 1236 543 1113 b 494 1021 500 1021 494 1021 b 261 1321 451 1113 350 1236 b 275 1321 261 1321 275 1321 m 332 936 b 332 490 332 936 332 490 b 469 490 332 490 469 490 b 688 710 604 490 688 560 b 469 936 688 853 611 936 b 332 936 469 936 332 936 m 46 972 b 546 972 46 972 546 972 b 910 714 751 972 910 901 b 590 465 910 544 751 468 b 847 285 736 456 810 394 b 883 174 847 285 883 174 b 1033 3 917 74 951 39 b 1033 0 1033 3 1033 0 b 740 0 1033 0 740 0 b 667 150 710 32 688 86 b 621 303 667 150 621 303 b 446 453 593 388 556 453 b 332 453 446 453 332 453 b 332 172 332 453 332 172 b 410 3 332 81 346 39 b 410 0 410 3 410 0 b 46 0 410 0 46 0 b 46 3 46 0 46 3 b 124 172 110 39 124 81 b 124 800 124 172 124 800 b 46 969 124 892 110 933 b 46 972 46 969 46 972 "},"ř":{"ha":678,"x_min":0,"x_max":0,"o":"m 140 1064 b 363 940 225 1033 307 897 b 585 1064 418 983 500 1033 b 599 1064 585 1064 599 1064 b 365 751 510 976 408 849 b 360 751 365 751 360 751 b 126 1064 317 849 215 976 b 140 1064 126 1064 140 1064 m 494 442 b 538 507 521 451 538 476 b 456 581 538 553 508 581 b 306 344 376 581 306 483 b 306 151 306 344 306 151 b 418 3 306 60 342 32 b 418 0 418 3 418 0 b 36 0 418 0 36 0 b 36 3 36 0 36 3 b 106 151 99 38 106 60 b 106 529 106 151 106 529 b 28 681 106 618 93 646 b 28 683 28 681 28 683 b 306 683 28 683 306 683 b 306 456 306 683 306 456 b 528 697 339 583 404 697 b 669 565 613 697 669 642 b 543 426 669 474 606 426 b 494 442 521 426 503 433 "},"Ś":{"ha":808,"x_min":0,"x_max":0,"o":"m 376 1285 b 586 1285 376 1285 586 1285 b 310 1029 529 1185 442 1101 b 304 1029 310 1029 304 1029 b 376 1285 353 1110 369 1196 m 390 957 b 211 789 293 957 211 899 b 429 596 211 671 313 631 b 764 279 585 550 764 503 b 407 -14 764 85 594 -14 b 160 31 294 -14 217 31 b 65 -14 121 31 94 11 b 44 301 65 -14 44 301 b 47 301 44 301 47 301 b 406 15 133 125 268 15 b 607 197 524 15 607 81 b 338 410 607 333 474 367 b 54 701 197 453 54 508 b 390 986 54 875 197 986 b 621 943 497 986 569 943 b 703 986 660 943 682 967 b 708 706 703 986 708 706 b 706 706 708 706 706 706 b 390 957 629 850 536 957 "},"ś":{"ha":650,"x_min":0,"x_max":0,"o":"m 303 1040 b 507 1040 303 1040 507 1040 b 232 765 451 935 363 844 b 226 765 232 765 226 765 b 303 1040 275 853 297 946 m 296 671 b 182 572 224 671 182 629 b 351 446 182 507 218 483 b 604 207 533 394 604 332 b 335 -14 604 67 486 -14 b 129 18 239 -14 176 18 b 63 -14 97 18 81 3 b 47 243 63 -14 47 243 b 50 243 47 243 50 243 b 335 11 121 96 210 11 b 465 126 408 11 465 51 b 288 254 465 201 399 224 b 54 492 122 301 54 369 b 296 697 54 618 163 697 b 481 663 382 697 432 663 b 556 697 510 663 531 676 b 556 471 556 697 556 471 b 553 471 556 471 553 471 b 296 671 496 588 399 671 "},"Ŝ":{"ha":808,"x_min":0,"x_max":0,"o":"m 624 1018 b 401 1133 539 1049 457 1175 b 179 1018 346 1092 264 1049 b 165 1018 179 1018 165 1018 b 399 1318 254 1103 356 1226 b 404 1318 399 1318 404 1318 b 638 1018 447 1226 549 1103 b 624 1018 638 1018 624 1018 m 390 957 b 211 789 293 957 211 899 b 429 596 211 671 313 631 b 764 279 585 550 764 503 b 407 -14 764 85 594 -14 b 160 31 294 -14 217 31 b 65 -14 121 31 94 11 b 44 301 65 -14 44 301 b 47 301 44 301 47 301 b 406 15 133 125 268 15 b 607 197 524 15 607 81 b 338 410 607 333 474 367 b 54 701 197 453 54 508 b 390 986 54 875 197 986 b 621 943 497 986 569 943 b 703 986 660 943 682 967 b 708 706 703 986 708 706 b 706 706 708 706 706 706 b 390 957 629 850 536 957 "},"ŝ":{"ha":650,"x_min":0,"x_max":0,"o":"m 549 751 b 326 876 464 783 382 921 b 104 751 271 832 189 783 b 90 751 104 751 90 751 b 324 1064 179 839 281 968 b 329 1064 324 1064 329 1064 b 563 751 372 968 474 839 b 549 751 563 751 549 751 m 296 671 b 182 572 224 671 182 629 b 351 446 182 507 218 483 b 604 207 533 394 604 332 b 335 -14 604 67 486 -14 b 129 18 239 -14 176 18 b 63 -14 97 18 81 3 b 47 243 63 -14 47 243 b 50 243 47 243 50 243 b 335 11 121 96 210 11 b 465 126 408 11 465 51 b 288 254 465 201 399 224 b 54 492 122 301 54 369 b 296 697 54 618 163 697 b 481 663 382 697 432 663 b 556 697 510 663 531 676 b 556 471 556 697 556 471 b 553 471 556 471 553 471 b 296 671 496 588 399 671 "},"Ş":{"ha":808,"x_min":0,"x_max":0,"o":"m 363 -310 b 197 -214 278 -310 217 -264 b 208 -203 197 -214 208 -203 b 311 -262 233 -243 269 -262 b 385 -186 356 -262 385 -233 b 272 -106 385 -126 342 -108 b 329 -7 272 -106 329 -7 b 160 31 257 6 203 31 b 65 -14 121 31 94 11 b 44 301 65 -14 44 301 b 47 301 44 301 47 301 b 406 15 133 125 268 15 b 607 197 524 15 607 81 b 338 410 607 333 474 367 b 54 701 197 453 54 508 b 390 986 54 875 197 986 b 621 943 497 986 569 943 b 703 986 660 943 682 967 b 708 706 703 986 708 706 b 706 706 708 706 706 706 b 390 957 629 850 536 957 b 211 789 293 957 211 899 b 429 596 211 671 313 631 b 764 279 585 550 764 503 b 407 -14 764 85 594 -14 b 353 -10 388 -14 369 -12 b 315 -78 353 -10 315 -78 b 522 -192 433 -74 522 -111 b 363 -310 522 -268 447 -310 "},"ş":{"ha":650,"x_min":0,"x_max":0,"o":"m 288 -310 b 122 -214 203 -310 142 -264 b 133 -203 122 -214 133 -203 b 236 -262 158 -243 194 -262 b 310 -186 281 -262 310 -233 b 197 -106 310 -126 267 -108 b 254 -7 197 -106 254 -7 b 129 18 201 3 161 18 b 63 -14 97 18 81 3 b 47 243 63 -14 47 243 b 50 243 47 243 50 243 b 335 11 121 96 210 11 b 465 126 408 11 465 51 b 288 254 465 201 399 224 b 54 492 122 301 54 369 b 296 697 54 618 163 697 b 481 663 382 697 432 663 b 556 697 510 663 531 676 b 556 471 556 697 556 471 b 553 471 556 471 553 471 b 296 671 496 588 399 671 b 182 572 224 671 182 629 b 351 446 182 507 218 483 b 604 207 533 394 604 332 b 335 -14 604 67 486 -14 b 278 -10 314 -14 294 -12 b 240 -78 278 -10 240 -78 b 447 -192 358 -74 447 -111 b 288 -310 447 -268 372 -310 "},"Š":{"ha":808,"x_min":0,"x_max":0,"o":"m 179 1321 b 401 1206 264 1290 346 1164 b 624 1321 457 1247 539 1290 b 638 1321 624 1321 638 1321 b 404 1021 549 1236 447 1113 b 399 1021 404 1021 399 1021 b 165 1321 356 1113 254 1236 b 179 1321 165 1321 179 1321 m 390 957 b 211 789 293 957 211 899 b 429 596 211 671 313 631 b 764 279 585 550 764 503 b 407 -14 764 85 594 -14 b 160 31 294 -14 217 31 b 65 -14 121 31 94 11 b 44 301 65 -14 44 301 b 47 301 44 301 47 301 b 406 15 133 125 268 15 b 607 197 524 15 607 81 b 338 410 607 333 474 367 b 54 701 197 453 54 508 b 390 986 54 875 197 986 b 621 943 497 986 569 943 b 703 986 660 943 682 967 b 708 706 703 986 708 706 b 706 706 708 706 706 706 b 390 957 629 850 536 957 "},"š":{"ha":650,"x_min":0,"x_max":0,"o":"m 104 1064 b 326 940 189 1033 271 897 b 549 1064 382 983 464 1033 b 563 1064 549 1064 563 1064 b 329 751 474 976 372 849 b 324 751 329 751 324 751 b 90 1064 281 849 179 976 b 104 1064 90 1064 104 1064 m 296 671 b 182 572 224 671 182 629 b 351 446 182 507 218 483 b 604 207 533 394 604 332 b 335 -14 604 67 486 -14 b 129 18 239 -14 176 18 b 63 -14 97 18 81 3 b 47 243 63 -14 47 243 b 50 243 47 243 50 243 b 335 11 121 96 210 11 b 465 126 408 11 465 51 b 288 254 465 201 399 224 b 54 492 122 301 54 369 b 296 697 54 618 163 697 b 481 663 382 697 432 663 b 556 697 510 663 531 676 b 556 471 556 697 556 471 b 553 471 556 471 553 471 b 296 671 496 588 399 671 "},"Ţ":{"ha":1036,"x_min":0,"x_max":0,"o":"m 533 -310 b 368 -214 449 -310 388 -264 b 379 -203 368 -214 379 -203 b 482 -262 404 -243 440 -262 b 556 -186 526 -262 556 -233 b 443 -106 556 -126 513 -108 b 503 0 443 -106 503 0 b 332 0 503 0 332 0 b 332 3 332 0 332 3 b 413 165 396 39 413 74 b 413 936 413 165 413 936 b 332 936 413 936 332 936 b 22 672 181 936 129 849 b 19 672 22 672 19 672 b 67 983 19 672 67 983 b 151 972 85 975 114 972 b 883 972 151 972 883 972 b 969 983 922 972 951 975 b 1017 672 969 983 1017 672 b 1014 672 1017 672 1014 672 b 703 936 907 849 854 936 b 622 936 703 936 622 936 b 622 165 622 936 622 165 b 704 3 622 74 640 39 b 704 0 704 3 704 0 b 529 0 704 0 529 0 b 486 -78 529 0 486 -78 b 693 -192 604 -74 693 -111 b 533 -310 693 -268 618 -310 "},"ţ":{"ha":539,"x_min":0,"x_max":0,"o":"m 303 -310 b 138 -214 218 -310 157 -264 b 149 -203 138 -214 149 -203 b 251 -262 174 -243 210 -262 b 325 -186 296 -262 325 -233 b 213 -106 325 -126 282 -108 b 265 -12 213 -106 265 -12 b 92 208 161 -1 90 71 b 93 647 92 208 93 647 b 10 647 93 647 10 647 b 10 660 10 647 10 660 b 278 924 142 688 240 785 b 292 924 278 924 292 924 b 292 683 292 924 292 683 b 503 683 292 683 503 683 b 496 647 503 683 496 647 b 292 647 496 647 292 647 b 292 207 292 647 292 207 b 379 86 292 128 321 86 b 507 242 444 86 489 142 b 521 238 507 242 521 238 b 296 -14 506 104 447 -14 b 290 -14 296 -14 290 -14 b 256 -78 290 -14 256 -78 b 463 -192 374 -74 463 -111 b 303 -310 463 -268 388 -310 "},"Ť":{"ha":1036,"x_min":0,"x_max":0,"o":"m 296 1321 b 518 1206 381 1290 463 1164 b 740 1321 574 1247 656 1290 b 754 1321 740 1321 754 1321 b 521 1021 665 1236 564 1113 b 515 1021 521 1021 515 1021 b 282 1321 472 1113 371 1236 b 296 1321 282 1321 296 1321 m 151 972 b 883 972 151 972 883 972 b 969 983 922 972 951 975 b 1017 672 969 983 1017 672 b 1014 672 1017 672 1014 672 b 703 936 907 849 854 936 b 622 936 703 936 622 936 b 622 165 622 936 622 165 b 704 3 622 74 640 39 b 704 0 704 3 704 0 b 332 0 704 0 332 0 b 332 3 332 0 332 3 b 413 165 396 39 413 74 b 413 936 413 165 413 936 b 332 936 413 936 332 936 b 22 672 181 936 129 849 b 19 672 22 672 19 672 b 67 983 19 672 67 983 b 151 972 85 975 114 972 "},"ť":{"ha":539,"x_min":0,"x_max":0,"o":"m 563 1051 b 375 750 538 947 465 822 b 369 750 375 750 369 750 b 392 1051 389 835 399 946 b 563 1051 392 1051 563 1051 m 507 242 b 521 238 507 242 521 238 b 296 -14 506 104 447 -14 b 92 208 175 -14 90 58 b 93 647 92 208 93 647 b 10 647 93 647 10 647 b 10 660 10 647 10 660 b 278 924 142 688 240 785 b 292 924 278 924 292 924 b 292 683 292 924 292 683 b 503 683 292 683 503 683 b 496 647 503 683 496 647 b 292 647 496 647 292 647 b 292 207 292 647 292 207 b 379 86 292 128 321 86 b 507 242 444 86 489 142 "},"Ŧ":{"ha":1036,"x_min":0,"x_max":0,"o":"m 704 3 b 704 0 704 3 704 0 b 332 0 704 0 332 0 b 332 3 332 0 332 3 b 413 165 396 39 413 74 b 413 479 413 165 413 479 b 247 479 413 479 247 479 b 247 519 247 479 247 519 b 413 519 247 519 413 519 b 413 936 413 519 413 936 b 332 936 413 936 332 936 b 22 672 181 936 129 849 b 19 672 22 672 19 672 b 67 983 19 672 67 983 b 151 972 85 975 114 972 b 883 972 151 972 883 972 b 969 983 922 972 951 975 b 1017 672 969 983 1017 672 b 1014 672 1017 672 1014 672 b 703 936 907 849 854 936 b 622 936 703 936 622 936 b 622 519 622 936 622 519 b 788 519 622 519 788 519 b 788 479 788 519 788 479 b 622 479 788 479 622 479 b 622 165 622 479 622 165 b 704 3 622 74 640 39 "},"ŧ":{"ha":553,"x_min":0,"x_max":0,"o":"m 539 238 b 313 -14 524 104 464 -14 b 108 208 192 -14 108 58 b 110 442 108 208 110 442 b 26 442 110 442 26 442 b 26 478 26 442 26 478 b 110 478 26 478 110 478 b 110 647 110 478 110 647 b 26 647 110 647 26 647 b 26 660 26 647 26 660 b 296 924 160 688 257 785 b 308 924 296 924 308 924 b 308 683 308 924 308 683 b 519 683 308 683 519 683 b 513 647 519 683 513 647 b 308 647 513 647 308 647 b 308 478 308 647 308 478 b 506 478 308 478 506 478 b 506 442 506 478 506 442 b 308 442 506 442 308 442 b 308 207 308 442 308 207 b 397 86 308 128 339 86 b 524 242 461 86 506 142 b 539 238 524 242 539 238 "},"Ũ":{"ha":1014,"x_min":0,"x_max":0,"o":"m 804 1279 b 643 1060 783 1143 725 1060 b 422 1138 557 1060 494 1138 b 303 1050 368 1138 328 1107 b 293 1050 303 1050 293 1050 b 454 1269 314 1186 372 1269 b 675 1192 540 1269 603 1192 b 794 1279 729 1192 769 1222 b 804 1279 794 1279 804 1279 m 899 767 b 899 375 899 767 899 375 b 519 -14 899 119 744 -14 b 107 378 269 -14 107 118 b 107 800 107 378 107 800 b 29 969 107 892 93 933 b 29 972 29 969 29 972 b 394 972 29 972 394 972 b 394 969 394 972 394 969 b 317 800 331 933 317 892 b 317 385 317 800 317 385 b 574 61 317 181 399 61 b 857 381 736 61 857 174 b 857 761 857 381 857 761 b 746 969 857 871 822 936 b 746 972 746 969 746 972 b 1003 972 746 972 1003 972 b 1003 969 1003 972 1003 969 b 899 767 932 933 899 871 "},"ũ":{"ha":844,"x_min":0,"x_max":0,"o":"m 678 1015 b 517 796 657 879 599 796 b 296 874 431 796 368 874 b 176 786 242 874 201 843 b 167 786 176 786 167 786 b 328 1006 188 922 246 1006 b 549 928 414 1006 476 928 b 668 1015 603 928 643 958 b 678 1015 668 1015 678 1015 m 549 300 b 549 529 549 300 549 529 b 469 681 549 618 535 646 b 469 683 469 681 469 683 b 749 683 469 683 749 683 b 749 143 749 683 749 143 b 831 3 749 54 769 33 b 831 0 831 3 831 0 b 549 0 831 0 549 0 b 549 190 549 0 549 190 b 304 -14 515 60 424 -14 b 88 228 165 -14 88 83 b 88 529 88 228 88 529 b 10 681 88 618 75 646 b 10 683 10 681 10 683 b 288 683 10 683 288 683 b 288 229 288 683 288 229 b 400 88 288 156 321 88 b 549 300 483 88 549 163 "},"Ū":{"ha":1014,"x_min":0,"x_max":0,"o":"m 754 1086 b 343 1086 754 1086 343 1086 b 343 1138 343 1086 343 1138 b 754 1138 343 1138 754 1138 b 754 1086 754 1138 754 1086 m 899 767 b 899 375 899 767 899 375 b 519 -14 899 119 744 -14 b 107 378 269 -14 107 118 b 107 800 107 378 107 800 b 29 969 107 892 93 933 b 29 972 29 969 29 972 b 394 972 29 972 394 972 b 394 969 394 972 394 969 b 317 800 331 933 317 892 b 317 385 317 800 317 385 b 574 61 317 181 399 61 b 857 381 736 61 857 174 b 857 761 857 381 857 761 b 746 969 857 871 822 936 b 746 972 746 969 746 972 b 1003 972 746 972 1003 972 b 1003 969 1003 972 1003 969 b 899 767 932 933 899 871 "},"ū":{"ha":844,"x_min":0,"x_max":0,"o":"m 628 831 b 217 831 628 831 217 831 b 217 882 217 831 217 882 b 628 882 217 882 628 882 b 628 831 628 882 628 831 m 549 300 b 549 529 549 300 549 529 b 469 681 549 618 535 646 b 469 683 469 681 469 683 b 749 683 469 683 749 683 b 749 143 749 683 749 143 b 831 3 749 54 769 33 b 831 0 831 3 831 0 b 549 0 831 0 549 0 b 549 190 549 0 549 190 b 304 -14 515 60 424 -14 b 88 228 165 -14 88 83 b 88 529 88 228 88 529 b 10 681 88 618 75 646 b 10 683 10 681 10 683 b 288 683 10 683 288 683 b 288 229 288 683 288 229 b 400 88 288 156 321 88 b 549 300 483 88 549 163 "},"Ŭ":{"ha":1014,"x_min":0,"x_max":0,"o":"m 760 1289 b 550 1035 758 1135 675 1035 b 339 1289 424 1035 339 1135 b 347 1289 339 1289 347 1289 b 550 1168 360 1204 464 1168 b 751 1289 633 1168 738 1204 b 760 1289 751 1289 760 1289 m 899 767 b 899 375 899 767 899 375 b 519 -14 899 119 744 -14 b 107 378 269 -14 107 118 b 107 800 107 378 107 800 b 29 969 107 892 93 933 b 29 972 29 969 29 972 b 394 972 29 972 394 972 b 394 969 394 972 394 969 b 317 800 331 933 317 892 b 317 385 317 800 317 385 b 574 61 317 181 399 61 b 857 381 736 61 857 174 b 857 761 857 381 857 761 b 746 969 857 871 822 936 b 746 972 746 969 746 972 b 1003 972 746 972 1003 972 b 1003 969 1003 972 1003 969 b 899 767 932 933 899 871 "},"ŭ":{"ha":844,"x_min":0,"x_max":0,"o":"m 632 1044 b 422 778 632 883 547 778 b 213 1044 297 778 213 883 b 221 1044 213 1044 221 1044 b 422 913 233 950 338 913 b 624 1044 507 913 611 950 b 632 1044 624 1044 632 1044 m 549 300 b 549 529 549 300 549 529 b 469 681 549 618 535 646 b 469 683 469 681 469 683 b 749 683 469 683 749 683 b 749 143 749 683 749 143 b 831 3 749 54 769 33 b 831 0 831 3 831 0 b 549 0 831 0 549 0 b 549 190 549 0 549 190 b 304 -14 515 60 424 -14 b 88 228 165 -14 88 83 b 88 529 88 228 88 529 b 10 681 88 618 75 646 b 10 683 10 681 10 683 b 288 683 10 683 288 683 b 288 229 288 683 288 229 b 400 88 288 156 321 88 b 549 300 483 88 549 163 "},"Ů":{"ha":1014,"x_min":0,"x_max":0,"o":"m 549 1318 b 693 1176 626 1318 693 1253 b 549 1033 693 1097 626 1033 b 404 1176 471 1033 404 1097 b 549 1318 404 1253 471 1318 m 549 1072 b 654 1176 606 1072 654 1118 b 549 1279 654 1232 606 1279 b 444 1176 492 1279 444 1232 b 549 1072 444 1118 492 1072 m 899 767 b 899 375 899 767 899 375 b 519 -14 899 119 744 -14 b 107 378 269 -14 107 118 b 107 800 107 378 107 800 b 29 969 107 892 93 933 b 29 972 29 969 29 972 b 394 972 29 972 394 972 b 394 969 394 972 394 969 b 317 800 331 933 317 892 b 317 385 317 800 317 385 b 574 61 317 181 399 61 b 857 381 736 61 857 174 b 857 761 857 381 857 761 b 746 969 857 871 822 936 b 746 972 746 969 746 972 b 1003 972 746 972 1003 972 b 1003 969 1003 972 1003 969 b 899 767 932 933 899 871 "},"ů":{"ha":844,"x_min":0,"x_max":0,"o":"m 422 1054 b 567 913 500 1054 567 989 b 422 769 567 833 500 769 b 278 913 344 769 278 833 b 422 1054 278 989 344 1054 m 422 808 b 528 913 479 808 528 854 b 422 1015 528 968 479 1015 b 318 913 365 1015 318 968 b 422 808 318 854 365 808 m 549 300 b 549 529 549 300 549 529 b 469 681 549 618 535 646 b 469 683 469 681 469 683 b 749 683 469 683 749 683 b 749 143 749 683 749 143 b 831 3 749 54 769 33 b 831 0 831 3 831 0 b 549 0 831 0 549 0 b 549 190 549 0 549 190 b 304 -14 515 60 424 -14 b 88 228 165 -14 88 83 b 88 529 88 228 88 529 b 10 681 88 618 75 646 b 10 683 10 681 10 683 b 288 683 10 683 288 683 b 288 229 288 683 288 229 b 400 88 288 156 321 88 b 549 300 483 88 549 163 "},"Ű":{"ha":1014,"x_min":0,"x_max":0,"o":"m 468 1285 b 667 1285 468 1285 667 1285 b 401 1029 610 1185 533 1101 b 394 1029 401 1029 394 1029 b 468 1285 444 1110 461 1196 m 714 1285 b 913 1285 714 1285 913 1285 b 647 1029 856 1185 779 1101 b 642 1029 647 1029 642 1029 b 714 1285 690 1110 707 1196 m 899 767 b 899 375 899 767 899 375 b 519 -14 899 119 744 -14 b 107 378 269 -14 107 118 b 107 800 107 378 107 800 b 29 969 107 892 93 933 b 29 972 29 969 29 972 b 394 972 29 972 394 972 b 394 969 394 972 394 969 b 317 800 331 933 317 892 b 317 385 317 800 317 385 b 574 61 317 181 399 61 b 857 381 736 61 857 174 b 857 761 857 381 857 761 b 746 969 857 871 822 936 b 746 972 746 969 746 972 b 1003 972 746 972 1003 972 b 1003 969 1003 972 1003 969 b 899 767 932 933 899 871 "},"ű":{"ha":844,"x_min":0,"x_max":0,"o":"m 322 1040 b 513 1040 322 1040 513 1040 b 249 765 457 935 379 844 b 242 765 249 765 242 765 b 322 1040 292 853 317 946 m 554 1040 b 744 1040 554 1040 744 1040 b 481 765 689 935 611 844 b 474 765 481 765 474 765 b 554 1040 524 853 549 946 m 549 300 b 549 529 549 300 549 529 b 469 681 549 618 535 646 b 469 683 469 681 469 683 b 749 683 469 683 749 683 b 749 143 749 683 749 143 b 831 3 749 54 769 33 b 831 0 831 3 831 0 b 549 0 831 0 549 0 b 549 190 549 0 549 190 b 304 -14 515 60 424 -14 b 88 228 165 -14 88 83 b 88 529 88 228 88 529 b 10 681 88 618 75 646 b 10 683 10 681 10 683 b 288 683 10 683 288 683 b 288 229 288 683 288 229 b 400 88 288 156 321 88 b 549 300 483 88 549 163 "},"Ų":{"ha":1014,"x_min":0,"x_max":0,"o":"m 579 -332 b 436 -207 503 -332 436 -285 b 625 -3 436 -115 526 -57 b 519 -14 592 -10 556 -14 b 107 378 269 -14 107 118 b 107 800 107 378 107 800 b 29 969 107 892 93 933 b 29 972 29 969 29 972 b 394 972 29 972 394 972 b 394 969 394 972 394 969 b 317 800 331 933 317 892 b 317 385 317 800 317 385 b 574 61 317 181 399 61 b 857 381 736 61 857 174 b 857 761 857 381 857 761 b 746 969 857 871 822 936 b 746 972 746 969 746 972 b 1003 972 746 972 1003 972 b 1003 969 1003 972 1003 969 b 899 768 932 933 899 871 b 899 375 899 768 899 375 b 689 15 899 188 824 83 b 561 -164 593 -33 561 -110 b 647 -253 561 -222 596 -253 b 775 -182 699 -253 738 -233 b 779 -185 775 -182 779 -185 b 579 -332 747 -267 689 -332 "},"ų":{"ha":844,"x_min":0,"x_max":0,"o":"m 694 -185 b 494 -332 663 -267 606 -332 b 353 -207 418 -332 353 -285 b 549 1 353 -112 446 -56 b 549 190 549 1 549 190 b 304 -14 515 60 424 -14 b 88 228 165 -14 88 83 b 88 529 88 228 88 529 b 10 681 88 618 75 646 b 10 683 10 681 10 683 b 288 683 10 683 288 683 b 288 229 288 683 288 229 b 400 88 288 156 321 88 b 549 300 483 88 549 163 b 549 529 549 300 549 529 b 469 681 549 618 535 646 b 469 683 469 681 469 683 b 749 683 469 683 749 683 b 749 143 749 683 749 143 b 831 3 749 54 769 33 b 831 0 831 3 831 0 b 578 0 831 0 578 0 b 478 -164 507 -58 478 -112 b 563 -253 478 -222 511 -253 b 690 -182 614 -253 654 -233 b 694 -185 690 -182 694 -185 "},"Ŵ":{"ha":1343,"x_min":0,"x_max":0,"o":"m 904 1018 b 682 1133 819 1049 738 1175 b 460 1018 626 1092 544 1049 b 446 1018 460 1018 446 1018 b 679 1318 535 1103 636 1226 b 685 1318 679 1318 685 1318 b 918 1018 728 1226 829 1103 b 904 1018 918 1018 904 1018 m 917 -14 b 678 625 917 -14 678 625 b 432 -14 678 625 432 -14 b 425 -14 432 -14 425 -14 b 96 817 425 -14 96 817 b -6 969 61 904 38 939 b -6 972 -6 969 -6 972 b 354 972 -6 972 354 972 b 354 969 354 972 354 969 b 297 892 318 950 297 926 b 315 813 297 868 303 843 b 514 297 315 813 514 297 b 657 681 514 297 657 681 b 606 817 657 681 606 817 b 504 969 571 904 547 939 b 504 972 504 969 504 972 b 858 972 504 972 858 972 b 858 969 858 972 858 969 b 801 892 824 950 801 926 b 819 813 801 868 808 843 b 1000 292 819 813 1000 292 b 1186 793 1000 292 1186 793 b 1197 856 1193 814 1197 836 b 1125 969 1197 903 1174 943 b 1125 972 1125 969 1125 972 b 1354 972 1125 972 1354 972 b 1354 969 1354 972 1354 969 b 1236 803 1307 938 1268 886 b 922 -14 1236 803 922 -14 b 917 -14 922 -14 917 -14 "},"ŵ":{"ha":1072,"x_min":0,"x_max":0,"o":"m 771 751 b 549 876 686 783 604 921 b 326 751 493 832 411 783 b 313 751 326 751 313 751 b 546 1064 401 839 503 968 b 551 1064 546 1064 551 1064 b 785 751 594 968 696 839 b 771 751 785 751 771 751 m 740 -14 b 550 443 740 -14 550 443 b 342 -14 550 443 342 -14 b 339 -14 342 -14 339 -14 b 92 533 339 -14 92 533 b -10 681 53 621 36 643 b -10 683 -10 681 -10 683 b 307 683 -10 683 307 683 b 307 681 307 683 307 681 b 272 618 279 663 272 647 b 293 538 272 594 282 565 b 424 242 293 538 424 242 b 533 485 424 242 533 485 b 513 533 533 485 513 533 b 411 681 472 622 457 643 b 411 683 411 681 411 683 b 728 683 411 683 728 683 b 728 681 728 683 728 681 b 686 617 696 663 686 644 b 707 536 686 596 697 567 b 817 247 707 536 817 247 b 932 529 817 247 932 529 b 944 590 940 550 944 571 b 879 681 944 631 924 664 b 879 683 879 681 879 683 b 1082 683 879 683 1082 683 b 1082 681 1082 683 1082 681 b 975 531 1035 643 1015 622 b 743 -14 975 531 743 -14 b 740 -14 743 -14 740 -14 "},"Ŷ":{"ha":951,"x_min":0,"x_max":0,"o":"m 729 1018 b 507 1133 644 1049 563 1175 b 285 1018 451 1092 369 1049 b 271 1018 285 1018 271 1018 b 504 1318 360 1103 461 1226 b 510 1318 504 1318 510 1318 b 743 1018 553 1226 654 1103 b 729 1018 743 1018 729 1018 m 560 460 b 772 810 560 460 772 810 b 793 878 786 833 793 856 b 731 969 793 914 774 947 b 731 972 731 969 731 972 b 957 972 731 972 957 972 b 957 969 957 972 957 969 b 824 817 900 931 864 883 b 574 407 824 817 574 407 b 574 165 574 407 574 165 b 654 3 574 74 590 39 b 654 0 654 3 654 0 b 292 0 654 0 292 0 b 292 3 292 0 292 3 b 374 165 356 39 374 74 b 374 407 374 165 374 407 b 118 825 374 407 118 825 b -6 969 78 892 49 929 b -6 972 -6 969 -6 972 b 374 972 -6 972 374 972 b 374 969 374 972 374 969 b 322 890 339 946 322 925 b 343 826 322 872 328 851 b 560 460 343 826 560 460 "},"ŷ":{"ha":736,"x_min":0,"x_max":0,"o":"m 621 751 b 399 876 536 783 454 921 b 176 751 343 832 261 783 b 163 751 176 751 163 751 b 396 1064 251 839 353 968 b 401 1064 396 1064 401 1064 b 635 751 444 968 546 839 b 621 751 635 751 621 751 m 329 -118 b 371 -24 329 -118 371 -24 b 94 533 371 -24 94 533 b -10 681 50 622 36 642 b -10 683 -10 681 -10 683 b 321 683 -10 683 321 683 b 321 681 321 683 321 681 b 281 618 289 663 281 646 b 303 536 281 596 289 565 b 461 203 303 536 461 203 b 596 524 461 203 596 524 b 610 590 606 547 610 569 b 546 681 610 632 588 664 b 546 683 546 681 546 683 b 746 683 546 683 746 683 b 746 681 746 683 746 681 b 638 524 697 644 676 615 b 354 -143 638 524 354 -143 b 156 -321 303 -262 246 -321 b 18 -200 76 -321 18 -276 b 128 -89 18 -129 68 -89 b 172 -97 144 -89 157 -92 b 132 -162 144 -110 132 -131 b 207 -236 132 -206 163 -236 b 329 -118 260 -236 293 -199 "},"Ÿ":{"ha":951,"x_min":0,"x_max":0,"o":"m 368 1049 b 263 1156 308 1049 263 1097 b 368 1264 263 1214 308 1264 b 475 1156 428 1264 475 1214 b 368 1049 475 1097 428 1049 m 644 1049 b 538 1156 586 1049 538 1097 b 644 1264 538 1214 586 1264 b 751 1156 704 1264 751 1214 b 644 1049 751 1097 704 1049 m 560 460 b 772 810 560 460 772 810 b 793 878 786 833 793 856 b 731 969 793 914 774 947 b 731 972 731 969 731 972 b 957 972 731 972 957 972 b 957 969 957 972 957 969 b 824 817 900 931 864 883 b 574 407 824 817 574 407 b 574 165 574 407 574 165 b 654 3 574 74 590 39 b 654 0 654 3 654 0 b 292 0 654 0 292 0 b 292 3 292 0 292 3 b 374 165 356 39 374 74 b 374 407 374 165 374 407 b 118 825 374 407 118 825 b -6 969 78 892 49 929 b -6 972 -6 969 -6 972 b 374 972 -6 972 374 972 b 374 969 374 972 374 969 b 322 890 339 946 322 925 b 343 826 322 872 328 851 b 560 460 343 826 560 460 "},"Ź":{"ha":943,"x_min":0,"x_max":0,"o":"m 453 1285 b 663 1285 453 1285 663 1285 b 386 1029 606 1185 518 1101 b 381 1029 386 1029 381 1029 b 453 1285 429 1110 446 1196 m 857 0 b 38 0 857 0 38 0 b 38 3 38 0 38 3 b 633 936 38 3 633 936 b 382 936 633 936 382 936 b 72 692 221 936 158 838 b 69 692 72 692 69 692 b 117 983 69 692 117 983 b 201 972 135 975 164 972 b 886 972 201 972 886 972 b 886 969 886 972 886 969 b 299 36 886 969 299 36 b 564 36 299 36 564 36 b 897 306 732 36 789 111 b 900 306 897 306 900 306 b 857 0 900 306 857 0 "},"ź":{"ha":717,"x_min":0,"x_max":0,"o":"m 343 1040 b 547 1040 343 1040 547 1040 b 272 765 492 935 403 844 b 267 765 272 765 267 765 b 343 1040 315 853 338 946 m 439 653 b 307 653 439 653 307 653 b 54 453 194 653 147 592 b 51 453 54 453 51 453 b 71 694 51 453 71 694 b 156 683 90 688 119 683 b 671 683 156 683 671 683 b 671 681 671 683 671 681 b 260 29 671 681 260 29 b 379 31 260 29 379 31 b 681 251 522 31 571 89 b 683 251 681 251 683 251 b 643 0 683 251 643 0 b 25 0 643 0 25 0 b 25 3 25 0 25 3 b 439 653 25 3 439 653 "},"Ż":{"ha":943,"x_min":0,"x_max":0,"o":"m 357 1160 b 476 1276 357 1225 408 1276 b 596 1160 543 1276 596 1225 b 476 1044 596 1096 543 1044 b 357 1160 408 1044 357 1096 m 857 0 b 38 0 857 0 38 0 b 38 3 38 0 38 3 b 633 936 38 3 633 936 b 382 936 633 936 382 936 b 72 692 221 936 158 838 b 69 692 72 692 69 692 b 117 983 69 692 117 983 b 201 972 135 975 164 972 b 886 972 201 972 886 972 b 886 969 886 972 886 969 b 299 36 886 969 299 36 b 564 36 299 36 564 36 b 897 306 732 36 789 111 b 900 306 897 306 900 306 b 857 0 900 306 857 0 "},"ż":{"ha":717,"x_min":0,"x_max":0,"o":"m 247 906 b 367 1022 247 971 299 1022 b 486 906 433 1022 486 971 b 367 792 486 842 433 792 b 247 906 299 792 247 842 m 439 653 b 307 653 439 653 307 653 b 54 453 194 653 147 592 b 51 453 54 453 51 453 b 71 694 51 453 71 694 b 156 683 90 688 119 683 b 671 683 156 683 671 683 b 671 681 671 683 671 681 b 260 29 671 681 260 29 b 379 31 260 29 379 31 b 681 251 522 31 571 89 b 683 251 681 251 683 251 b 643 0 683 251 643 0 b 25 0 643 0 25 0 b 25 3 25 0 25 3 b 439 653 25 3 439 653 "},"Ž":{"ha":943,"x_min":0,"x_max":0,"o":"m 254 1321 b 476 1206 339 1290 421 1164 b 699 1321 532 1247 614 1290 b 713 1321 699 1321 713 1321 b 479 1021 624 1236 522 1113 b 474 1021 479 1021 474 1021 b 240 1321 431 1113 329 1236 b 254 1321 240 1321 254 1321 m 857 0 b 38 0 857 0 38 0 b 38 3 38 0 38 3 b 633 936 38 3 633 936 b 382 936 633 936 382 936 b 72 692 221 936 158 838 b 69 692 72 692 69 692 b 117 983 69 692 117 983 b 201 972 135 975 164 972 b 886 972 201 972 886 972 b 886 969 886 972 886 969 b 299 36 886 969 299 36 b 564 36 299 36 564 36 b 897 306 732 36 789 111 b 900 306 897 306 900 306 b 857 0 900 306 857 0 "},"ž":{"ha":717,"x_min":0,"x_max":0,"o":"m 144 1064 b 367 940 229 1033 311 897 b 589 1064 422 983 504 1033 b 603 1064 589 1064 603 1064 b 369 751 514 976 413 849 b 364 751 369 751 364 751 b 131 1064 321 849 219 976 b 144 1064 131 1064 144 1064 m 439 653 b 307 653 439 653 307 653 b 54 453 194 653 147 592 b 51 453 54 453 51 453 b 71 694 51 453 71 694 b 156 683 90 688 119 683 b 671 683 156 683 671 683 b 671 681 671 683 671 681 b 260 29 671 681 260 29 b 379 31 260 29 379 31 b 681 251 522 31 571 89 b 683 251 681 251 683 251 b 643 0 683 251 643 0 b 25 0 643 0 25 0 b 25 3 25 0 25 3 b 439 653 25 3 439 653 "},"ƒ":{"ha":799,"x_min":0,"x_max":0,"o":"m 57 -279 b -154 -146 -64 -279 -154 -235 b -46 -49 -154 -87 -107 -49 b 42 -76 -11 -49 24 -61 b -25 -165 1 -81 -25 -110 b 57 -257 -25 -219 6 -257 b 154 -111 118 -257 143 -192 b 239 472 154 -111 239 472 b 111 472 239 472 111 472 b 117 501 111 472 117 501 b 243 501 117 501 243 501 b 272 704 243 501 272 704 b 578 986 297 874 400 986 b 792 851 699 986 792 943 b 681 753 792 792 743 753 b 590 781 644 753 610 764 b 658 874 632 785 658 817 b 578 964 658 929 629 964 b 481 819 517 964 492 901 b 435 501 481 819 435 501 b 596 501 435 501 596 501 b 590 472 596 501 590 472 b 431 472 590 472 431 472 b 367 31 431 472 367 31 b 57 -279 338 -167 235 -279 "},"Ǽ":{"ha":1482,"x_min":0,"x_max":0,"o":"m 946 1285 b 1156 1285 946 1285 1156 1285 b 879 1029 1099 1185 1011 1101 b 874 1029 879 1029 874 1029 b 946 1285 922 1110 939 1196 m 697 931 b 351 407 697 931 351 407 b 697 407 351 407 697 407 b 697 931 697 407 697 931 m 233 3 b 233 0 233 3 233 0 b 0 0 233 0 0 0 b 0 3 0 0 0 3 b 133 154 51 33 81 75 b 593 847 133 154 593 847 b 607 892 603 864 607 878 b 533 969 607 921 583 940 b 533 972 533 969 533 972 b 1282 972 533 972 1282 972 b 1367 983 1319 972 1349 975 b 1414 725 1367 983 1414 725 b 1411 725 1414 725 1411 725 b 1093 936 1335 861 1260 936 b 907 936 1093 936 907 936 b 907 518 907 936 907 518 b 1060 518 907 518 1060 518 b 1258 675 1172 518 1214 546 b 1261 675 1258 675 1261 675 b 1261 335 1261 675 1261 335 b 1258 335 1261 335 1258 335 b 1060 479 1214 463 1172 479 b 907 479 1060 479 907 479 b 907 36 907 479 907 36 b 1118 36 907 36 1118 36 b 1449 272 1290 36 1371 131 b 1451 272 1449 272 1451 272 b 1407 0 1451 272 1407 0 b 621 0 1407 0 621 0 b 621 3 621 0 621 3 b 697 172 685 39 697 81 b 697 368 697 172 697 368 b 325 368 697 368 325 368 b 199 176 325 368 199 176 b 168 89 178 144 168 117 b 233 3 168 50 189 21 "},"ǽ":{"ha":1154,"x_min":0,"x_max":0,"o":"m 592 1040 b 796 1040 592 1040 796 1040 b 521 765 740 935 651 844 b 515 765 521 765 515 765 b 592 1040 564 853 586 946 m 1119 218 b 810 -14 1085 71 965 -14 b 496 178 672 -14 551 54 b 242 -10 467 86 382 -10 b 39 164 132 -10 39 46 b 361 375 39 317 194 344 b 467 394 361 375 467 394 b 467 513 467 394 467 513 b 339 671 467 596 432 671 b 224 563 260 671 224 622 b 289 482 224 511 249 482 b 313 486 297 482 304 483 b 192 411 293 436 249 411 b 71 522 124 411 71 454 b 343 697 71 622 182 697 b 569 593 458 697 532 658 b 810 697 631 657 717 697 b 1122 371 1024 697 1122 557 b 664 371 1122 371 664 371 b 897 81 664 194 754 81 b 1110 222 989 81 1068 125 b 1119 218 1110 222 1119 218 m 665 400 b 925 400 665 400 925 400 b 808 671 925 550 907 671 b 665 400 726 671 669 564 m 467 369 b 394 354 467 369 394 354 b 239 192 286 332 239 285 b 333 72 239 113 275 72 b 467 247 413 72 467 140 b 467 369 467 247 467 369 "},"Ǿ":{"ha":1064,"x_min":0,"x_max":0,"o":"m 508 1285 b 718 1285 508 1285 718 1285 b 442 1029 661 1185 574 1101 b 436 1029 442 1029 436 1029 b 508 1285 485 1110 501 1196 m 272 486 b 294 253 272 397 279 319 b 761 753 294 253 761 753 b 532 957 722 882 649 957 b 272 486 350 957 272 776 m 532 15 b 792 486 714 15 792 196 b 771 714 792 572 785 649 b 306 214 771 714 306 214 b 532 15 343 88 417 15 m 532 -14 b 204 107 404 -14 290 31 b 90 -17 204 107 90 -17 b 64 6 90 -17 64 6 b 181 131 64 6 181 131 b 42 486 94 218 42 342 b 532 986 42 778 256 986 b 863 863 661 986 776 940 b 971 978 863 863 971 978 b 997 957 971 978 997 957 b 888 839 997 957 888 839 b 1022 486 971 751 1022 628 b 532 -14 1022 194 808 -14 "},"ǿ":{"ha":799,"x_min":0,"x_max":0,"o":"m 376 1040 b 581 1040 376 1040 581 1040 b 306 765 525 935 436 844 b 300 765 306 765 300 765 b 376 1040 349 853 371 946 m 249 342 b 257 207 249 292 251 247 b 536 504 257 207 536 504 b 399 671 515 610 471 671 b 249 342 297 671 249 546 m 399 11 b 550 342 501 11 550 138 b 543 461 550 386 547 425 b 265 165 543 461 265 165 b 399 11 286 68 331 11 m 399 -14 b 167 61 310 -14 229 14 b 92 -18 167 61 92 -18 b 65 4 92 -18 65 4 b 140 83 65 4 140 83 b 33 342 74 146 33 236 b 399 697 33 553 194 697 b 642 614 493 697 576 667 b 717 694 642 614 717 694 b 742 672 717 694 742 672 b 665 592 742 672 665 592 b 765 342 728 529 765 443 b 399 -14 765 131 604 -14 "},"Ș":{"ha":808,"x_min":0,"x_max":0,"o":"m 390 957 b 211 789 293 957 211 899 b 429 596 211 671 313 631 b 764 279 585 550 764 503 b 407 -14 764 85 594 -14 b 160 31 294 -14 217 31 b 65 -14 121 31 94 11 b 44 301 65 -14 44 301 b 47 301 44 301 47 301 b 406 15 133 125 268 15 b 607 197 524 15 607 81 b 338 410 607 333 474 367 b 54 701 197 453 54 508 b 390 986 54 875 197 986 b 621 943 497 986 569 943 b 703 986 660 943 682 967 b 708 706 703 986 708 706 b 706 706 708 706 706 706 b 390 957 629 850 536 957 m 521 -192 b 292 -371 521 -300 432 -368 b 292 -350 292 -371 292 -350 b 450 -235 396 -340 446 -301 b 382 -256 436 -247 410 -256 b 290 -161 329 -256 290 -212 b 396 -61 290 -104 336 -61 b 521 -192 469 -61 521 -114 "},"ș":{"ha":650,"x_min":0,"x_max":0,"o":"m 296 671 b 182 572 224 671 182 629 b 351 446 182 507 218 483 b 604 207 533 394 604 332 b 335 -14 604 67 486 -14 b 129 18 239 -14 176 18 b 63 -14 97 18 81 3 b 47 243 63 -14 47 243 b 50 243 47 243 50 243 b 335 11 121 96 210 11 b 465 126 408 11 465 51 b 288 254 465 201 399 224 b 54 492 122 301 54 369 b 296 697 54 618 163 697 b 481 663 382 697 432 663 b 556 697 510 663 531 676 b 556 471 556 697 556 471 b 553 471 556 471 553 471 b 296 671 496 588 399 671 m 446 -192 b 217 -371 446 -300 357 -368 b 217 -350 217 -371 217 -350 b 375 -235 321 -340 371 -301 b 307 -256 361 -247 335 -256 b 215 -161 254 -256 215 -212 b 321 -61 215 -104 261 -61 b 446 -192 394 -61 446 -114 "},"Ț":{"ha":1036,"x_min":0,"x_max":0,"o":"m 151 972 b 883 972 151 972 883 972 b 969 983 922 972 951 975 b 1017 672 969 983 1017 672 b 1014 672 1017 672 1014 672 b 703 936 907 849 854 936 b 622 936 703 936 622 936 b 622 165 622 936 622 165 b 704 3 622 74 640 39 b 704 0 704 3 704 0 b 332 0 704 0 332 0 b 332 3 332 0 332 3 b 413 165 396 39 413 74 b 413 936 413 165 413 936 b 332 936 413 936 332 936 b 22 672 181 936 129 849 b 19 672 22 672 19 672 b 67 983 19 672 67 983 b 151 972 85 975 114 972 m 638 -192 b 408 -371 638 -300 549 -368 b 408 -350 408 -371 408 -350 b 567 -235 513 -340 563 -301 b 499 -256 553 -247 526 -256 b 407 -161 446 -256 407 -212 b 513 -61 407 -104 453 -61 b 638 -192 586 -61 638 -114 "},"ț":{"ha":539,"x_min":0,"x_max":0,"o":"m 507 242 b 521 238 507 242 521 238 b 296 -14 506 104 447 -14 b 92 208 175 -14 90 58 b 93 647 92 208 93 647 b 10 647 93 647 10 647 b 10 660 10 647 10 660 b 278 924 142 688 240 785 b 292 924 278 924 292 924 b 292 683 292 924 292 683 b 503 683 292 683 503 683 b 496 647 503 683 496 647 b 292 647 496 647 292 647 b 292 207 292 647 292 207 b 379 86 292 128 321 86 b 507 242 444 86 489 142 m 385 -192 b 156 -371 385 -300 296 -368 b 156 -350 156 -371 156 -350 b 314 -235 260 -340 310 -301 b 246 -256 300 -247 274 -256 b 154 -161 193 -256 154 -212 b 260 -61 154 -104 200 -61 b 385 -192 333 -61 385 -114 "},"ȷ":{"ha":375,"x_min":0,"x_max":0,"o":"m 293 -50 b -4 -321 293 -242 160 -321 b -221 -185 -125 -321 -221 -275 b -106 -87 -221 -126 -171 -87 b -19 -114 -71 -87 -37 -99 b -83 -204 -57 -124 -83 -153 b 0 -299 -83 -262 -56 -299 b 93 -132 68 -299 93 -240 b 93 529 93 -132 93 529 b 15 681 93 618 81 646 b 15 683 15 681 15 683 b 293 683 15 683 293 683 b 293 -50 293 683 293 -50 "}}}
